<svg width="104" height="1541" viewBox="0 0 104 1541" fill="none" xmlns="http://www.w3.org/2000/svg">
<g filter="url(#filter0_f_1169_1276)">
<circle cx="52" cy="792" r="8" transform="rotate(-90 52 792)" fill="white"/>
</g>
<circle cx="52" cy="792" r="7.5" transform="rotate(-90 52 792)" fill="white" stroke="black"/>
<g filter="url(#filter1_f_1169_1276)">
<path d="M58.8618 1505.77L58.8618 1511.68L86.2102 1511.68L86.2102 1524L18.086 1524L18.086 1505.17C18.086 1498.35 19.6986 1493.54 22.9238 1490.74C26.149 1487.87 31.3159 1486.43 38.4245 1486.43C42.9661 1486.43 46.7508 1487.07 49.7786 1488.34C52.8063 1489.6 55.0771 1491.67 56.591 1494.55L86.2102 1484.23L86.2102 1497.05L58.8618 1505.77ZM48.0014 1511.68L48.0014 1505.27C48.0014 1502.79 47.2116 1501.09 45.6319 1500.16C43.9864 1499.22 41.5839 1498.75 38.4245 1498.75C35.2652 1498.75 32.8956 1499.22 31.3159 1500.16C29.7362 1501.03 28.9464 1502.73 28.9464 1505.27L28.9464 1511.68L48.0014 1511.68Z" fill="white"/>
<path d="M72.9803 1449.77L72.9803 1465.9L86.2102 1468.7L86.2102 1481.53L18.086 1463.79L18.086 1451.77L86.2102 1434.14L86.2102 1446.96L72.9803 1449.77ZM62.1199 1451.97L34.4753 1457.78L62.1199 1463.59L62.1199 1451.97Z" fill="white"/>
<path d="M87 1410.95C87 1416.89 85.3545 1421.6 82.0635 1425.08C78.7066 1428.55 73.8359 1430.29 67.4513 1430.29L36.7461 1430.29C30.2957 1430.29 25.425 1428.45 22.134 1424.78C18.7771 1421.1 17.0987 1416.26 17.0987 1410.25C17.0987 1404.51 18.7442 1399.86 22.0353 1396.32C25.3263 1392.78 30.3286 1391.01 37.0423 1391.01L39.1157 1391.01L39.1157 1403.34L37.141 1403.34C34.0475 1403.34 31.7767 1404 30.3286 1405.34C28.8148 1406.61 28.0578 1408.35 28.0578 1410.55C28.0578 1413.15 28.9464 1415.06 30.7235 1416.26C32.5007 1417.4 35.1664 1417.96 38.7207 1417.96L66.0691 1417.96C72.717 1417.96 76.0409 1415.49 76.0409 1410.55C76.0409 1408.35 75.284 1406.61 73.7701 1405.34C72.2562 1404 70.0183 1403.34 67.0564 1403.34L65.2793 1403.34L65.2793 1391.11L67.1551 1391.11C73.7372 1391.11 78.7066 1392.98 82.0635 1396.72C85.3545 1400.4 87 1405.14 87 1410.95Z" fill="white"/>
<path d="M18.086 1382.62L18.086 1370.4L86.2102 1370.4L86.2102 1382.62L18.086 1382.62Z" fill="white"/>
<path d="M18.086 1322.53L86.2102 1322.53L86.2102 1334.85L49.8773 1349.27L86.2102 1349.27L86.2102 1361.6L18.086 1361.6L18.086 1349.27L55.9986 1334.85L18.086 1334.85L18.086 1322.53Z" fill="white"/>
<path d="M87 1295.21C87 1301.16 85.3545 1305.87 82.0635 1309.34C78.7066 1312.81 73.8359 1314.55 67.4513 1314.55L36.7461 1314.55C30.2957 1314.55 25.425 1312.71 22.134 1309.04C18.7771 1305.36 17.0987 1300.52 17.0987 1294.51C17.0987 1288.77 18.7113 1284.13 21.9365 1280.59C25.1617 1277.05 29.9337 1275.28 36.2525 1275.28L38.3258 1275.28L38.3258 1287.6L36.2525 1287.6C33.6196 1287.6 31.6121 1288.27 30.2299 1289.6C28.7818 1290.94 28.0578 1292.68 28.0578 1294.81C28.0578 1297.42 28.9464 1299.32 30.7235 1300.52C32.5007 1301.66 35.1664 1302.23 38.7207 1302.23L66.0691 1302.23C72.717 1302.23 76.0409 1299.75 76.0409 1294.81C76.0409 1292.41 75.2511 1290.6 73.6714 1289.4C72.0258 1288.2 69.6892 1287.6 66.6615 1287.6L59.4541 1287.6L59.4541 1294.91L49.8773 1294.91L49.8773 1275.28L67.4513 1275.28C73.7701 1275.28 78.6079 1277.15 81.9647 1280.89C85.3216 1284.56 87 1289.34 87 1295.21Z" fill="white"/>
<path d="M87 1233.24C87 1239.32 85.2558 1243.96 81.7673 1247.17C78.2788 1250.37 73.2764 1252.01 66.7602 1252.08L66.7602 1240.46C70.1171 1240.32 72.5853 1239.65 74.165 1238.45C75.7447 1237.18 76.5345 1235.35 76.5345 1232.94C76.5345 1230.54 75.8105 1228.8 74.3625 1227.73C72.9144 1226.6 70.6107 1226.03 67.4513 1226.03C64.8185 1226.03 62.7452 1226.66 61.2313 1227.93C59.6516 1229.14 58.2036 1231.21 56.8872 1234.14L54.8138 1238.85C52.8392 1243.33 50.4038 1246.57 47.5077 1248.57C44.6116 1250.51 40.7282 1251.48 35.8575 1251.48C30.1312 1251.48 25.5566 1249.81 22.134 1246.47C18.7113 1243.06 17 1238.49 17 1232.74C17 1227.07 18.7113 1222.69 22.134 1219.62C25.4908 1216.48 30.3615 1214.81 36.7461 1214.61L36.7461 1225.93C33.6525 1226 31.3488 1226.56 29.835 1227.63C28.2553 1228.63 27.4654 1230.34 27.4654 1232.74C27.4654 1237.22 30.0653 1239.45 35.2651 1239.45C37.6347 1239.45 39.5435 1238.92 40.9915 1237.85C42.3738 1236.72 43.6243 1234.85 44.7433 1232.24L46.7179 1227.73C48.8242 1222.92 51.457 1219.45 54.6164 1217.31C57.7757 1215.11 61.9882 1214.01 67.2539 1214.01C73.5726 1214.01 78.4433 1215.68 81.866 1219.02C85.2887 1222.36 87 1227.1 87 1233.24Z" fill="white"/>
<path d="M87 1188.18C87 1194.13 85.3545 1198.84 82.0635 1202.31C78.7066 1205.78 73.8359 1207.52 67.4513 1207.52L36.7461 1207.52C30.2957 1207.52 25.425 1205.68 22.134 1202.01C18.7771 1198.34 17.0987 1193.49 17.0987 1187.48C17.0987 1181.67 18.7771 1177.03 22.134 1173.56C25.425 1170.02 30.2957 1168.25 36.7461 1168.25L67.4513 1168.25C73.7701 1168.25 78.6079 1170.12 81.9647 1173.86C85.3216 1177.53 87 1182.31 87 1188.18ZM76.0409 1187.78C76.0409 1185.45 75.1852 1183.68 73.4739 1182.47C71.6967 1181.2 69.2285 1180.57 66.0691 1180.57L38.7207 1180.57C35.2322 1180.57 32.5994 1181.17 30.8223 1182.37C28.9793 1183.58 28.0578 1185.38 28.0578 1187.78C28.0578 1190.39 28.9464 1192.29 30.7235 1193.49C32.5007 1194.63 35.1664 1195.2 38.7207 1195.2L66.0691 1195.2C72.717 1195.2 76.0409 1192.73 76.0409 1187.78Z" fill="white"/>
<path d="M87 1141.32C87 1147.27 85.3545 1151.97 82.0635 1155.45C78.7066 1158.92 73.8359 1160.66 67.4513 1160.66L36.7461 1160.66C30.2957 1160.66 25.425 1158.82 22.134 1155.15C18.7771 1151.47 17.0987 1146.63 17.0987 1140.62C17.0987 1134.88 18.7442 1130.23 22.0352 1126.69C25.3263 1123.16 30.3286 1121.39 37.0423 1121.39L39.1156 1121.39L39.1156 1133.71L37.141 1133.71C34.0475 1133.71 31.7767 1134.38 30.3286 1135.71C28.8147 1136.98 28.0578 1138.72 28.0578 1140.92C28.0578 1143.53 28.9464 1145.43 30.7235 1146.63C32.5007 1147.77 35.1664 1148.33 38.7207 1148.33L66.0691 1148.33C72.717 1148.33 76.0409 1145.86 76.0409 1140.92C76.0409 1138.72 75.284 1136.98 73.7701 1135.71C72.2562 1134.38 70.0183 1133.71 67.0564 1133.71L65.2792 1133.71L65.2792 1121.49L67.1551 1121.49C73.7372 1121.49 78.7066 1123.36 82.0635 1127.1C85.3545 1130.77 87 1135.51 87 1141.32Z" fill="white"/>
<path d="M18.086 1112.99L18.086 1100.77L86.2101 1100.77L86.2101 1112.99L18.086 1112.99Z" fill="white"/>
<path d="M72.9802 1063.82L72.9802 1079.95L86.2101 1082.75L86.2101 1095.57L18.086 1077.84L18.086 1065.82L86.2101 1048.19L86.2101 1061.01L72.9802 1063.82ZM62.1199 1066.02L34.4753 1071.83L62.1199 1077.64L62.1199 1066.02Z" fill="white"/>
<path d="M18.086 1043.34L18.086 1031.02L75.3498 1031.02L75.3498 1012.49L86.2101 1012.49L86.2101 1043.34L18.086 1043.34Z" fill="white"/>
<path d="M87 970.113C87 976.057 85.3545 980.766 82.0634 984.239C78.7066 987.711 73.8359 989.448 67.4513 989.448L36.7461 989.448C30.2957 989.448 25.425 987.611 22.134 983.938C18.7771 980.265 17.0987 975.423 17.0987 969.412C17.0987 963.668 18.7442 959.026 22.0352 955.486C25.3263 951.947 30.3286 950.177 37.0423 950.177L39.1156 950.177L39.1156 962.499L37.141 962.499C34.0475 962.499 31.7767 963.167 30.3286 964.503C28.8147 965.772 28.0578 967.508 28.0578 969.712C28.0578 972.317 28.9464 974.22 30.7235 975.423C32.5007 976.558 35.1664 977.126 38.7207 977.126L66.0691 977.126C72.7169 977.126 76.0409 974.655 76.0409 969.712C76.0409 967.508 75.2839 965.772 73.7701 964.503C72.2562 963.167 70.0183 962.499 67.0564 962.499L65.2792 962.499L65.2792 950.277L67.1551 950.277C73.7372 950.277 78.7066 952.147 82.0634 955.887C85.3545 959.561 87 964.302 87 970.113Z" fill="white"/>
<path d="M18.086 942.185L18.086 929.863L75.3498 929.863L75.3498 911.329L86.2101 911.329L86.2101 942.185L18.086 942.185Z" fill="white"/>
<path d="M87 888.914C87 892.52 86.243 895.759 84.7292 898.631C83.1495 901.436 80.9445 903.674 78.1142 905.343C75.2839 906.946 72.0258 907.748 68.3399 907.748L18.086 907.748L18.086 895.425L68.0437 895.425C70.8082 895.425 72.8486 894.891 74.165 893.823C75.4156 892.754 76.0409 891.118 76.0409 888.914C76.0409 884.572 73.3751 882.402 68.0437 882.402L18.086 882.402L18.086 870.08L68.3399 870.08C72.0258 870.08 75.2839 870.881 78.1142 872.484C80.9445 874.087 83.1495 876.324 84.7292 879.196C86.243 882.068 87 885.307 87 888.914Z" fill="white"/>
<path d="M50.4696 831.714C51.7861 828.708 53.7278 826.672 56.2948 825.603C58.8618 824.534 62.2515 824 66.464 824C73.3751 824 78.4104 825.436 81.5698 828.308C84.6633 831.18 86.2101 836.055 86.2101 842.934L86.2101 861.668L18.086 861.668L18.086 842.934C18.086 836.189 19.567 831.38 22.5289 828.508C25.425 825.636 30.0653 824.2 36.4499 824.2C39.8067 824.2 42.6699 824.768 45.0395 825.903C47.409 827.039 49.2191 828.976 50.4696 831.714ZM28.9464 849.446L45.4344 849.446L45.4344 844.237C45.4344 841.365 44.8091 839.361 43.5585 838.226C42.2421 837.09 40.1358 836.523 37.2397 836.523C34.212 836.523 32.0728 837.09 30.8223 838.226C29.5717 839.361 28.9464 841.365 28.9464 844.237L28.9464 849.446ZM75.3498 844.337C75.3498 841.265 74.6257 839.161 73.1777 838.025C71.6638 836.89 69.1297 836.322 65.5754 836.322C62.1528 836.322 59.6845 836.957 58.1706 838.226C56.6568 839.428 55.8998 841.465 55.8998 844.337L55.8998 849.446L75.3498 849.446L75.3498 844.337Z" fill="white"/>
</g>
<mask id="path-4-outside-1_1169_1276" maskUnits="userSpaceOnUse" x="16" y="823" width="72" height="702" fill="black">
<rect fill="white" x="16" y="823" width="72" height="702"/>
<path d="M58.8618 1505.77L58.8618 1511.68L86.2102 1511.68L86.2102 1524L18.086 1524L18.086 1505.17C18.086 1498.35 19.6986 1493.54 22.9238 1490.74C26.149 1487.87 31.3159 1486.43 38.4245 1486.43C42.9661 1486.43 46.7508 1487.07 49.7786 1488.34C52.8063 1489.6 55.0771 1491.67 56.591 1494.55L86.2102 1484.23L86.2102 1497.05L58.8618 1505.77ZM48.0014 1511.68L48.0014 1505.27C48.0014 1502.79 47.2116 1501.09 45.6319 1500.16C43.9864 1499.22 41.5839 1498.75 38.4245 1498.75C35.2652 1498.75 32.8956 1499.22 31.3159 1500.16C29.7362 1501.03 28.9464 1502.73 28.9464 1505.27L28.9464 1511.68L48.0014 1511.68Z"/>
<path d="M72.9803 1449.77L72.9803 1465.9L86.2102 1468.7L86.2102 1481.53L18.086 1463.79L18.086 1451.77L86.2102 1434.14L86.2102 1446.96L72.9803 1449.77ZM62.1199 1451.97L34.4753 1457.78L62.1199 1463.59L62.1199 1451.97Z"/>
<path d="M87 1410.95C87 1416.89 85.3545 1421.6 82.0635 1425.08C78.7066 1428.55 73.8359 1430.29 67.4513 1430.29L36.7461 1430.29C30.2957 1430.29 25.425 1428.45 22.134 1424.78C18.7771 1421.1 17.0987 1416.26 17.0987 1410.25C17.0987 1404.51 18.7442 1399.86 22.0353 1396.32C25.3263 1392.78 30.3286 1391.01 37.0423 1391.01L39.1157 1391.01L39.1157 1403.34L37.141 1403.34C34.0475 1403.34 31.7767 1404 30.3286 1405.34C28.8148 1406.61 28.0578 1408.35 28.0578 1410.55C28.0578 1413.15 28.9464 1415.06 30.7235 1416.26C32.5007 1417.4 35.1664 1417.96 38.7207 1417.96L66.0691 1417.96C72.717 1417.96 76.0409 1415.49 76.0409 1410.55C76.0409 1408.35 75.284 1406.61 73.7701 1405.34C72.2562 1404 70.0183 1403.34 67.0564 1403.34L65.2793 1403.34L65.2793 1391.11L67.1551 1391.11C73.7372 1391.11 78.7066 1392.98 82.0635 1396.72C85.3545 1400.4 87 1405.14 87 1410.95Z"/>
<path d="M18.086 1382.62L18.086 1370.4L86.2102 1370.4L86.2102 1382.62L18.086 1382.62Z"/>
<path d="M18.086 1322.53L86.2102 1322.53L86.2102 1334.85L49.8773 1349.27L86.2102 1349.27L86.2102 1361.6L18.086 1361.6L18.086 1349.27L55.9986 1334.85L18.086 1334.85L18.086 1322.53Z"/>
<path d="M87 1295.21C87 1301.16 85.3545 1305.87 82.0635 1309.34C78.7066 1312.81 73.8359 1314.55 67.4513 1314.55L36.7461 1314.55C30.2957 1314.55 25.425 1312.71 22.134 1309.04C18.7771 1305.36 17.0987 1300.52 17.0987 1294.51C17.0987 1288.77 18.7113 1284.13 21.9365 1280.59C25.1617 1277.05 29.9337 1275.28 36.2525 1275.28L38.3258 1275.28L38.3258 1287.6L36.2525 1287.6C33.6196 1287.6 31.6121 1288.27 30.2299 1289.6C28.7818 1290.94 28.0578 1292.68 28.0578 1294.81C28.0578 1297.42 28.9464 1299.32 30.7235 1300.52C32.5007 1301.66 35.1664 1302.23 38.7207 1302.23L66.0691 1302.23C72.717 1302.23 76.0409 1299.75 76.0409 1294.81C76.0409 1292.41 75.2511 1290.6 73.6714 1289.4C72.0258 1288.2 69.6892 1287.6 66.6615 1287.6L59.4541 1287.6L59.4541 1294.91L49.8773 1294.91L49.8773 1275.28L67.4513 1275.28C73.7701 1275.28 78.6079 1277.15 81.9647 1280.89C85.3216 1284.56 87 1289.34 87 1295.21Z"/>
<path d="M87 1233.24C87 1239.32 85.2558 1243.96 81.7673 1247.17C78.2788 1250.37 73.2764 1252.01 66.7602 1252.08L66.7602 1240.46C70.1171 1240.32 72.5853 1239.65 74.165 1238.45C75.7447 1237.18 76.5345 1235.35 76.5345 1232.94C76.5345 1230.54 75.8105 1228.8 74.3625 1227.73C72.9144 1226.6 70.6107 1226.03 67.4513 1226.03C64.8185 1226.03 62.7452 1226.66 61.2313 1227.93C59.6516 1229.14 58.2036 1231.21 56.8872 1234.14L54.8138 1238.85C52.8392 1243.33 50.4038 1246.57 47.5077 1248.57C44.6116 1250.51 40.7282 1251.48 35.8575 1251.48C30.1312 1251.48 25.5566 1249.81 22.134 1246.47C18.7113 1243.06 17 1238.49 17 1232.74C17 1227.07 18.7113 1222.69 22.134 1219.62C25.4908 1216.48 30.3615 1214.81 36.7461 1214.61L36.7461 1225.93C33.6525 1226 31.3488 1226.56 29.835 1227.63C28.2553 1228.63 27.4654 1230.34 27.4654 1232.74C27.4654 1237.22 30.0653 1239.45 35.2651 1239.45C37.6347 1239.45 39.5435 1238.92 40.9915 1237.85C42.3738 1236.72 43.6243 1234.85 44.7433 1232.24L46.7179 1227.73C48.8242 1222.92 51.457 1219.45 54.6164 1217.31C57.7757 1215.11 61.9882 1214.01 67.2539 1214.01C73.5726 1214.01 78.4433 1215.68 81.866 1219.02C85.2887 1222.36 87 1227.1 87 1233.24Z"/>
<path d="M87 1188.18C87 1194.13 85.3545 1198.84 82.0635 1202.31C78.7066 1205.78 73.8359 1207.52 67.4513 1207.52L36.7461 1207.52C30.2957 1207.52 25.425 1205.68 22.134 1202.01C18.7771 1198.34 17.0987 1193.49 17.0987 1187.48C17.0987 1181.67 18.7771 1177.03 22.134 1173.56C25.425 1170.02 30.2957 1168.25 36.7461 1168.25L67.4513 1168.25C73.7701 1168.25 78.6079 1170.12 81.9647 1173.86C85.3216 1177.53 87 1182.31 87 1188.18ZM76.0409 1187.78C76.0409 1185.45 75.1852 1183.68 73.4739 1182.47C71.6967 1181.2 69.2285 1180.57 66.0691 1180.57L38.7207 1180.57C35.2322 1180.57 32.5994 1181.17 30.8223 1182.37C28.9793 1183.58 28.0578 1185.38 28.0578 1187.78C28.0578 1190.39 28.9464 1192.29 30.7235 1193.49C32.5007 1194.63 35.1664 1195.2 38.7207 1195.2L66.0691 1195.2C72.717 1195.2 76.0409 1192.73 76.0409 1187.78Z"/>
<path d="M87 1141.32C87 1147.27 85.3545 1151.97 82.0635 1155.45C78.7066 1158.92 73.8359 1160.66 67.4513 1160.66L36.7461 1160.66C30.2957 1160.66 25.425 1158.82 22.134 1155.15C18.7771 1151.47 17.0987 1146.63 17.0987 1140.62C17.0987 1134.88 18.7442 1130.23 22.0352 1126.69C25.3263 1123.16 30.3286 1121.39 37.0423 1121.39L39.1156 1121.39L39.1156 1133.71L37.141 1133.71C34.0475 1133.71 31.7767 1134.38 30.3286 1135.71C28.8147 1136.98 28.0578 1138.72 28.0578 1140.92C28.0578 1143.53 28.9464 1145.43 30.7235 1146.63C32.5007 1147.77 35.1664 1148.33 38.7207 1148.33L66.0691 1148.33C72.717 1148.33 76.0409 1145.86 76.0409 1140.92C76.0409 1138.72 75.284 1136.98 73.7701 1135.71C72.2562 1134.38 70.0183 1133.71 67.0564 1133.71L65.2792 1133.71L65.2792 1121.49L67.1551 1121.49C73.7372 1121.49 78.7066 1123.36 82.0635 1127.1C85.3545 1130.77 87 1135.51 87 1141.32Z"/>
<path d="M18.086 1112.99L18.086 1100.77L86.2101 1100.77L86.2101 1112.99L18.086 1112.99Z"/>
<path d="M72.9802 1063.82L72.9802 1079.95L86.2101 1082.75L86.2101 1095.57L18.086 1077.84L18.086 1065.82L86.2101 1048.19L86.2101 1061.01L72.9802 1063.82ZM62.1199 1066.02L34.4753 1071.83L62.1199 1077.64L62.1199 1066.02Z"/>
<path d="M18.086 1043.34L18.086 1031.02L75.3498 1031.02L75.3498 1012.49L86.2101 1012.49L86.2101 1043.34L18.086 1043.34Z"/>
<path d="M87 970.113C87 976.057 85.3545 980.766 82.0634 984.239C78.7066 987.711 73.8359 989.448 67.4513 989.448L36.7461 989.448C30.2957 989.448 25.425 987.611 22.134 983.938C18.7771 980.265 17.0987 975.423 17.0987 969.412C17.0987 963.668 18.7442 959.026 22.0352 955.486C25.3263 951.947 30.3286 950.177 37.0423 950.177L39.1156 950.177L39.1156 962.499L37.141 962.499C34.0475 962.499 31.7767 963.167 30.3286 964.503C28.8147 965.772 28.0578 967.508 28.0578 969.712C28.0578 972.317 28.9464 974.22 30.7235 975.423C32.5007 976.558 35.1664 977.126 38.7207 977.126L66.0691 977.126C72.7169 977.126 76.0409 974.655 76.0409 969.712C76.0409 967.508 75.2839 965.772 73.7701 964.503C72.2562 963.167 70.0183 962.499 67.0564 962.499L65.2792 962.499L65.2792 950.277L67.1551 950.277C73.7372 950.277 78.7066 952.147 82.0634 955.887C85.3545 959.561 87 964.302 87 970.113Z"/>
<path d="M18.086 942.185L18.086 929.863L75.3498 929.863L75.3498 911.329L86.2101 911.329L86.2101 942.185L18.086 942.185Z"/>
<path d="M87 888.914C87 892.52 86.243 895.759 84.7292 898.631C83.1495 901.436 80.9445 903.674 78.1142 905.343C75.2839 906.946 72.0258 907.748 68.3399 907.748L18.086 907.748L18.086 895.425L68.0437 895.425C70.8082 895.425 72.8486 894.891 74.165 893.823C75.4156 892.754 76.0409 891.118 76.0409 888.914C76.0409 884.572 73.3751 882.402 68.0437 882.402L18.086 882.402L18.086 870.08L68.3399 870.08C72.0258 870.08 75.2839 870.881 78.1142 872.484C80.9445 874.087 83.1495 876.324 84.7292 879.196C86.243 882.068 87 885.307 87 888.914Z"/>
<path d="M50.4696 831.714C51.7861 828.708 53.7278 826.672 56.2948 825.603C58.8618 824.534 62.2515 824 66.464 824C73.3751 824 78.4104 825.436 81.5698 828.308C84.6633 831.18 86.2101 836.055 86.2101 842.934L86.2101 861.668L18.086 861.668L18.086 842.934C18.086 836.189 19.567 831.38 22.5289 828.508C25.425 825.636 30.0653 824.2 36.4499 824.2C39.8067 824.2 42.6699 824.768 45.0395 825.903C47.409 827.039 49.2191 828.976 50.4696 831.714ZM28.9464 849.446L45.4344 849.446L45.4344 844.237C45.4344 841.365 44.8091 839.361 43.5585 838.226C42.2421 837.09 40.1358 836.523 37.2397 836.523C34.212 836.523 32.0728 837.09 30.8223 838.226C29.5717 839.361 28.9464 841.365 28.9464 844.237L28.9464 849.446ZM75.3498 844.337C75.3498 841.265 74.6257 839.161 73.1777 838.025C71.6638 836.89 69.1297 836.322 65.5754 836.322C62.1528 836.322 59.6845 836.957 58.1706 838.226C56.6568 839.428 55.8998 841.465 55.8998 844.337L55.8998 849.446L75.3498 849.446L75.3498 844.337Z"/>
</mask>
<path d="M58.8618 1505.77L58.8618 1511.68L86.2102 1511.68L86.2102 1524L18.086 1524L18.086 1505.17C18.086 1498.35 19.6986 1493.54 22.9238 1490.74C26.149 1487.87 31.3159 1486.43 38.4245 1486.43C42.9661 1486.43 46.7508 1487.07 49.7786 1488.34C52.8063 1489.6 55.0771 1491.67 56.591 1494.55L86.2102 1484.23L86.2102 1497.05L58.8618 1505.77ZM48.0014 1511.68L48.0014 1505.27C48.0014 1502.79 47.2116 1501.09 45.6319 1500.16C43.9864 1499.22 41.5839 1498.75 38.4245 1498.75C35.2652 1498.75 32.8956 1499.22 31.3159 1500.16C29.7362 1501.03 28.9464 1502.73 28.9464 1505.27L28.9464 1511.68L48.0014 1511.68Z" fill="white"/>
<path d="M72.9803 1449.77L72.9803 1465.9L86.2102 1468.7L86.2102 1481.53L18.086 1463.79L18.086 1451.77L86.2102 1434.14L86.2102 1446.96L72.9803 1449.77ZM62.1199 1451.97L34.4753 1457.78L62.1199 1463.59L62.1199 1451.97Z" fill="white"/>
<path d="M87 1410.95C87 1416.89 85.3545 1421.6 82.0635 1425.08C78.7066 1428.55 73.8359 1430.29 67.4513 1430.29L36.7461 1430.29C30.2957 1430.29 25.425 1428.45 22.134 1424.78C18.7771 1421.1 17.0987 1416.26 17.0987 1410.25C17.0987 1404.51 18.7442 1399.86 22.0353 1396.32C25.3263 1392.78 30.3286 1391.01 37.0423 1391.01L39.1157 1391.01L39.1157 1403.34L37.141 1403.34C34.0475 1403.34 31.7767 1404 30.3286 1405.34C28.8148 1406.61 28.0578 1408.35 28.0578 1410.55C28.0578 1413.15 28.9464 1415.06 30.7235 1416.26C32.5007 1417.4 35.1664 1417.96 38.7207 1417.96L66.0691 1417.96C72.717 1417.96 76.0409 1415.49 76.0409 1410.55C76.0409 1408.35 75.284 1406.61 73.7701 1405.34C72.2562 1404 70.0183 1403.34 67.0564 1403.34L65.2793 1403.34L65.2793 1391.11L67.1551 1391.11C73.7372 1391.11 78.7066 1392.98 82.0635 1396.72C85.3545 1400.4 87 1405.14 87 1410.95Z" fill="white"/>
<path d="M18.086 1382.62L18.086 1370.4L86.2102 1370.4L86.2102 1382.62L18.086 1382.62Z" fill="white"/>
<path d="M18.086 1322.53L86.2102 1322.53L86.2102 1334.85L49.8773 1349.27L86.2102 1349.27L86.2102 1361.6L18.086 1361.6L18.086 1349.27L55.9986 1334.85L18.086 1334.85L18.086 1322.53Z" fill="white"/>
<path d="M87 1295.21C87 1301.16 85.3545 1305.87 82.0635 1309.34C78.7066 1312.81 73.8359 1314.55 67.4513 1314.55L36.7461 1314.55C30.2957 1314.55 25.425 1312.71 22.134 1309.04C18.7771 1305.36 17.0987 1300.52 17.0987 1294.51C17.0987 1288.77 18.7113 1284.13 21.9365 1280.59C25.1617 1277.05 29.9337 1275.28 36.2525 1275.28L38.3258 1275.28L38.3258 1287.6L36.2525 1287.6C33.6196 1287.6 31.6121 1288.27 30.2299 1289.6C28.7818 1290.94 28.0578 1292.68 28.0578 1294.81C28.0578 1297.42 28.9464 1299.32 30.7235 1300.52C32.5007 1301.66 35.1664 1302.23 38.7207 1302.23L66.0691 1302.23C72.717 1302.23 76.0409 1299.75 76.0409 1294.81C76.0409 1292.41 75.2511 1290.6 73.6714 1289.4C72.0258 1288.2 69.6892 1287.6 66.6615 1287.6L59.4541 1287.6L59.4541 1294.91L49.8773 1294.91L49.8773 1275.28L67.4513 1275.28C73.7701 1275.28 78.6079 1277.15 81.9647 1280.89C85.3216 1284.56 87 1289.34 87 1295.21Z" fill="white"/>
<path d="M87 1233.24C87 1239.32 85.2558 1243.96 81.7673 1247.17C78.2788 1250.37 73.2764 1252.01 66.7602 1252.08L66.7602 1240.46C70.1171 1240.32 72.5853 1239.65 74.165 1238.45C75.7447 1237.18 76.5345 1235.35 76.5345 1232.94C76.5345 1230.54 75.8105 1228.8 74.3625 1227.73C72.9144 1226.6 70.6107 1226.03 67.4513 1226.03C64.8185 1226.03 62.7452 1226.66 61.2313 1227.93C59.6516 1229.14 58.2036 1231.21 56.8872 1234.14L54.8138 1238.85C52.8392 1243.33 50.4038 1246.57 47.5077 1248.57C44.6116 1250.51 40.7282 1251.48 35.8575 1251.48C30.1312 1251.48 25.5566 1249.81 22.134 1246.47C18.7113 1243.06 17 1238.49 17 1232.74C17 1227.07 18.7113 1222.69 22.134 1219.62C25.4908 1216.48 30.3615 1214.81 36.7461 1214.61L36.7461 1225.93C33.6525 1226 31.3488 1226.56 29.835 1227.63C28.2553 1228.63 27.4654 1230.34 27.4654 1232.74C27.4654 1237.22 30.0653 1239.45 35.2651 1239.45C37.6347 1239.45 39.5435 1238.92 40.9915 1237.85C42.3738 1236.72 43.6243 1234.85 44.7433 1232.24L46.7179 1227.73C48.8242 1222.92 51.457 1219.45 54.6164 1217.31C57.7757 1215.11 61.9882 1214.01 67.2539 1214.01C73.5726 1214.01 78.4433 1215.68 81.866 1219.02C85.2887 1222.36 87 1227.1 87 1233.24Z" fill="white"/>
<path d="M87 1188.18C87 1194.13 85.3545 1198.84 82.0635 1202.31C78.7066 1205.78 73.8359 1207.52 67.4513 1207.52L36.7461 1207.52C30.2957 1207.52 25.425 1205.68 22.134 1202.01C18.7771 1198.34 17.0987 1193.49 17.0987 1187.48C17.0987 1181.67 18.7771 1177.03 22.134 1173.56C25.425 1170.02 30.2957 1168.25 36.7461 1168.25L67.4513 1168.25C73.7701 1168.25 78.6079 1170.12 81.9647 1173.86C85.3216 1177.53 87 1182.31 87 1188.18ZM76.0409 1187.78C76.0409 1185.45 75.1852 1183.68 73.4739 1182.47C71.6967 1181.2 69.2285 1180.57 66.0691 1180.57L38.7207 1180.57C35.2322 1180.57 32.5994 1181.17 30.8223 1182.37C28.9793 1183.58 28.0578 1185.38 28.0578 1187.78C28.0578 1190.39 28.9464 1192.29 30.7235 1193.49C32.5007 1194.63 35.1664 1195.2 38.7207 1195.2L66.0691 1195.2C72.717 1195.2 76.0409 1192.73 76.0409 1187.78Z" fill="white"/>
<path d="M87 1141.32C87 1147.27 85.3545 1151.97 82.0635 1155.45C78.7066 1158.92 73.8359 1160.66 67.4513 1160.66L36.7461 1160.66C30.2957 1160.66 25.425 1158.82 22.134 1155.15C18.7771 1151.47 17.0987 1146.63 17.0987 1140.62C17.0987 1134.88 18.7442 1130.23 22.0352 1126.69C25.3263 1123.16 30.3286 1121.39 37.0423 1121.39L39.1156 1121.39L39.1156 1133.71L37.141 1133.71C34.0475 1133.71 31.7767 1134.38 30.3286 1135.71C28.8147 1136.98 28.0578 1138.72 28.0578 1140.92C28.0578 1143.53 28.9464 1145.43 30.7235 1146.63C32.5007 1147.77 35.1664 1148.33 38.7207 1148.33L66.0691 1148.33C72.717 1148.33 76.0409 1145.86 76.0409 1140.92C76.0409 1138.72 75.284 1136.98 73.7701 1135.71C72.2562 1134.38 70.0183 1133.71 67.0564 1133.71L65.2792 1133.71L65.2792 1121.49L67.1551 1121.49C73.7372 1121.49 78.7066 1123.36 82.0635 1127.1C85.3545 1130.77 87 1135.51 87 1141.32Z" fill="white"/>
<path d="M18.086 1112.99L18.086 1100.77L86.2101 1100.77L86.2101 1112.99L18.086 1112.99Z" fill="white"/>
<path d="M72.9802 1063.82L72.9802 1079.95L86.2101 1082.75L86.2101 1095.57L18.086 1077.84L18.086 1065.82L86.2101 1048.19L86.2101 1061.01L72.9802 1063.82ZM62.1199 1066.02L34.4753 1071.83L62.1199 1077.64L62.1199 1066.02Z" fill="white"/>
<path d="M18.086 1043.34L18.086 1031.02L75.3498 1031.02L75.3498 1012.49L86.2101 1012.49L86.2101 1043.34L18.086 1043.34Z" fill="white"/>
<path d="M87 970.113C87 976.057 85.3545 980.766 82.0634 984.239C78.7066 987.711 73.8359 989.448 67.4513 989.448L36.7461 989.448C30.2957 989.448 25.425 987.611 22.134 983.938C18.7771 980.265 17.0987 975.423 17.0987 969.412C17.0987 963.668 18.7442 959.026 22.0352 955.486C25.3263 951.947 30.3286 950.177 37.0423 950.177L39.1156 950.177L39.1156 962.499L37.141 962.499C34.0475 962.499 31.7767 963.167 30.3286 964.503C28.8147 965.772 28.0578 967.508 28.0578 969.712C28.0578 972.317 28.9464 974.22 30.7235 975.423C32.5007 976.558 35.1664 977.126 38.7207 977.126L66.0691 977.126C72.7169 977.126 76.0409 974.655 76.0409 969.712C76.0409 967.508 75.2839 965.772 73.7701 964.503C72.2562 963.167 70.0183 962.499 67.0564 962.499L65.2792 962.499L65.2792 950.277L67.1551 950.277C73.7372 950.277 78.7066 952.147 82.0634 955.887C85.3545 959.561 87 964.302 87 970.113Z" fill="white"/>
<path d="M18.086 942.185L18.086 929.863L75.3498 929.863L75.3498 911.329L86.2101 911.329L86.2101 942.185L18.086 942.185Z" fill="white"/>
<path d="M87 888.914C87 892.52 86.243 895.759 84.7292 898.631C83.1495 901.436 80.9445 903.674 78.1142 905.343C75.2839 906.946 72.0258 907.748 68.3399 907.748L18.086 907.748L18.086 895.425L68.0437 895.425C70.8082 895.425 72.8486 894.891 74.165 893.823C75.4156 892.754 76.0409 891.118 76.0409 888.914C76.0409 884.572 73.3751 882.402 68.0437 882.402L18.086 882.402L18.086 870.08L68.3399 870.08C72.0258 870.08 75.2839 870.881 78.1142 872.484C80.9445 874.087 83.1495 876.324 84.7292 879.196C86.243 882.068 87 885.307 87 888.914Z" fill="white"/>
<path d="M50.4696 831.714C51.7861 828.708 53.7278 826.672 56.2948 825.603C58.8618 824.534 62.2515 824 66.464 824C73.3751 824 78.4104 825.436 81.5698 828.308C84.6633 831.18 86.2101 836.055 86.2101 842.934L86.2101 861.668L18.086 861.668L18.086 842.934C18.086 836.189 19.567 831.38 22.5289 828.508C25.425 825.636 30.0653 824.2 36.4499 824.2C39.8067 824.2 42.6699 824.768 45.0395 825.903C47.409 827.039 49.2191 828.976 50.4696 831.714ZM28.9464 849.446L45.4344 849.446L45.4344 844.237C45.4344 841.365 44.8091 839.361 43.5585 838.226C42.2421 837.09 40.1358 836.523 37.2397 836.523C34.212 836.523 32.0728 837.09 30.8223 838.226C29.5717 839.361 28.9464 841.365 28.9464 844.237L28.9464 849.446ZM75.3498 844.337C75.3498 841.265 74.6257 839.161 73.1777 838.025C71.6638 836.89 69.1297 836.322 65.5754 836.322C62.1528 836.322 59.6845 836.957 58.1706 838.226C56.6568 839.428 55.8998 841.465 55.8998 844.337L55.8998 849.446L75.3498 849.446L75.3498 844.337Z" fill="white"/>
<path d="M58.8618 1505.77L58.8618 1511.68L86.2102 1511.68L86.2102 1524L18.086 1524L18.086 1505.17C18.086 1498.35 19.6986 1493.54 22.9238 1490.74C26.149 1487.87 31.3159 1486.43 38.4245 1486.43C42.9661 1486.43 46.7508 1487.07 49.7786 1488.34C52.8063 1489.6 55.0771 1491.67 56.591 1494.55L86.2102 1484.23L86.2102 1497.05L58.8618 1505.77ZM48.0014 1511.68L48.0014 1505.27C48.0014 1502.79 47.2116 1501.09 45.6319 1500.16C43.9864 1499.22 41.5839 1498.75 38.4245 1498.75C35.2652 1498.75 32.8956 1499.22 31.3159 1500.16C29.7362 1501.03 28.9464 1502.73 28.9464 1505.27L28.9464 1511.68L48.0014 1511.68Z" stroke="black" stroke-width="2" mask="url(#path-4-outside-1_1169_1276)"/>
<path d="M72.9803 1449.77L72.9803 1465.9L86.2102 1468.7L86.2102 1481.53L18.086 1463.79L18.086 1451.77L86.2102 1434.14L86.2102 1446.96L72.9803 1449.77ZM62.1199 1451.97L34.4753 1457.78L62.1199 1463.59L62.1199 1451.97Z" stroke="black" stroke-width="2" mask="url(#path-4-outside-1_1169_1276)"/>
<path d="M87 1410.95C87 1416.89 85.3545 1421.6 82.0635 1425.08C78.7066 1428.55 73.8359 1430.29 67.4513 1430.29L36.7461 1430.29C30.2957 1430.29 25.425 1428.45 22.134 1424.78C18.7771 1421.1 17.0987 1416.26 17.0987 1410.25C17.0987 1404.51 18.7442 1399.86 22.0353 1396.32C25.3263 1392.78 30.3286 1391.01 37.0423 1391.01L39.1157 1391.01L39.1157 1403.34L37.141 1403.34C34.0475 1403.34 31.7767 1404 30.3286 1405.34C28.8148 1406.61 28.0578 1408.35 28.0578 1410.55C28.0578 1413.15 28.9464 1415.06 30.7235 1416.26C32.5007 1417.4 35.1664 1417.96 38.7207 1417.96L66.0691 1417.96C72.717 1417.96 76.0409 1415.49 76.0409 1410.55C76.0409 1408.35 75.284 1406.61 73.7701 1405.34C72.2562 1404 70.0183 1403.34 67.0564 1403.34L65.2793 1403.34L65.2793 1391.11L67.1551 1391.11C73.7372 1391.11 78.7066 1392.98 82.0635 1396.72C85.3545 1400.4 87 1405.14 87 1410.95Z" stroke="black" stroke-width="2" mask="url(#path-4-outside-1_1169_1276)"/>
<path d="M18.086 1382.62L18.086 1370.4L86.2102 1370.4L86.2102 1382.62L18.086 1382.62Z" stroke="black" stroke-width="2" mask="url(#path-4-outside-1_1169_1276)"/>
<path d="M18.086 1322.53L86.2102 1322.53L86.2102 1334.85L49.8773 1349.27L86.2102 1349.27L86.2102 1361.6L18.086 1361.6L18.086 1349.27L55.9986 1334.85L18.086 1334.85L18.086 1322.53Z" stroke="black" stroke-width="2" mask="url(#path-4-outside-1_1169_1276)"/>
<path d="M87 1295.21C87 1301.16 85.3545 1305.87 82.0635 1309.34C78.7066 1312.81 73.8359 1314.55 67.4513 1314.55L36.7461 1314.55C30.2957 1314.55 25.425 1312.71 22.134 1309.04C18.7771 1305.36 17.0987 1300.52 17.0987 1294.51C17.0987 1288.77 18.7113 1284.13 21.9365 1280.59C25.1617 1277.05 29.9337 1275.28 36.2525 1275.28L38.3258 1275.28L38.3258 1287.6L36.2525 1287.6C33.6196 1287.6 31.6121 1288.27 30.2299 1289.6C28.7818 1290.94 28.0578 1292.68 28.0578 1294.81C28.0578 1297.42 28.9464 1299.32 30.7235 1300.52C32.5007 1301.66 35.1664 1302.23 38.7207 1302.23L66.0691 1302.23C72.717 1302.23 76.0409 1299.75 76.0409 1294.81C76.0409 1292.41 75.2511 1290.6 73.6714 1289.4C72.0258 1288.2 69.6892 1287.6 66.6615 1287.6L59.4541 1287.6L59.4541 1294.91L49.8773 1294.91L49.8773 1275.28L67.4513 1275.28C73.7701 1275.28 78.6079 1277.15 81.9647 1280.89C85.3216 1284.56 87 1289.34 87 1295.21Z" stroke="black" stroke-width="2" mask="url(#path-4-outside-1_1169_1276)"/>
<path d="M87 1233.24C87 1239.32 85.2558 1243.96 81.7673 1247.17C78.2788 1250.37 73.2764 1252.01 66.7602 1252.08L66.7602 1240.46C70.1171 1240.32 72.5853 1239.65 74.165 1238.45C75.7447 1237.18 76.5345 1235.35 76.5345 1232.94C76.5345 1230.54 75.8105 1228.8 74.3625 1227.73C72.9144 1226.6 70.6107 1226.03 67.4513 1226.03C64.8185 1226.03 62.7452 1226.66 61.2313 1227.93C59.6516 1229.14 58.2036 1231.21 56.8872 1234.14L54.8138 1238.85C52.8392 1243.33 50.4038 1246.57 47.5077 1248.57C44.6116 1250.51 40.7282 1251.48 35.8575 1251.48C30.1312 1251.48 25.5566 1249.81 22.134 1246.47C18.7113 1243.06 17 1238.49 17 1232.74C17 1227.07 18.7113 1222.69 22.134 1219.62C25.4908 1216.48 30.3615 1214.81 36.7461 1214.61L36.7461 1225.93C33.6525 1226 31.3488 1226.56 29.835 1227.63C28.2553 1228.63 27.4654 1230.34 27.4654 1232.74C27.4654 1237.22 30.0653 1239.45 35.2651 1239.45C37.6347 1239.45 39.5435 1238.92 40.9915 1237.85C42.3738 1236.72 43.6243 1234.85 44.7433 1232.24L46.7179 1227.73C48.8242 1222.92 51.457 1219.45 54.6164 1217.31C57.7757 1215.11 61.9882 1214.01 67.2539 1214.01C73.5726 1214.01 78.4433 1215.68 81.866 1219.02C85.2887 1222.36 87 1227.1 87 1233.24Z" stroke="black" stroke-width="2" mask="url(#path-4-outside-1_1169_1276)"/>
<path d="M87 1188.18C87 1194.13 85.3545 1198.84 82.0635 1202.31C78.7066 1205.78 73.8359 1207.52 67.4513 1207.52L36.7461 1207.52C30.2957 1207.52 25.425 1205.68 22.134 1202.01C18.7771 1198.34 17.0987 1193.49 17.0987 1187.48C17.0987 1181.67 18.7771 1177.03 22.134 1173.56C25.425 1170.02 30.2957 1168.25 36.7461 1168.25L67.4513 1168.25C73.7701 1168.25 78.6079 1170.12 81.9647 1173.86C85.3216 1177.53 87 1182.31 87 1188.18ZM76.0409 1187.78C76.0409 1185.45 75.1852 1183.68 73.4739 1182.47C71.6967 1181.2 69.2285 1180.57 66.0691 1180.57L38.7207 1180.57C35.2322 1180.57 32.5994 1181.17 30.8223 1182.37C28.9793 1183.58 28.0578 1185.38 28.0578 1187.78C28.0578 1190.39 28.9464 1192.29 30.7235 1193.49C32.5007 1194.63 35.1664 1195.2 38.7207 1195.2L66.0691 1195.2C72.717 1195.2 76.0409 1192.73 76.0409 1187.78Z" stroke="black" stroke-width="2" mask="url(#path-4-outside-1_1169_1276)"/>
<path d="M87 1141.32C87 1147.27 85.3545 1151.97 82.0635 1155.45C78.7066 1158.92 73.8359 1160.66 67.4513 1160.66L36.7461 1160.66C30.2957 1160.66 25.425 1158.82 22.134 1155.15C18.7771 1151.47 17.0987 1146.63 17.0987 1140.62C17.0987 1134.88 18.7442 1130.23 22.0352 1126.69C25.3263 1123.16 30.3286 1121.39 37.0423 1121.39L39.1156 1121.39L39.1156 1133.71L37.141 1133.71C34.0475 1133.71 31.7767 1134.38 30.3286 1135.71C28.8147 1136.98 28.0578 1138.72 28.0578 1140.92C28.0578 1143.53 28.9464 1145.43 30.7235 1146.63C32.5007 1147.77 35.1664 1148.33 38.7207 1148.33L66.0691 1148.33C72.717 1148.33 76.0409 1145.86 76.0409 1140.92C76.0409 1138.72 75.284 1136.98 73.7701 1135.71C72.2562 1134.38 70.0183 1133.71 67.0564 1133.71L65.2792 1133.71L65.2792 1121.49L67.1551 1121.49C73.7372 1121.49 78.7066 1123.36 82.0635 1127.1C85.3545 1130.77 87 1135.51 87 1141.32Z" stroke="black" stroke-width="2" mask="url(#path-4-outside-1_1169_1276)"/>
<path d="M18.086 1112.99L18.086 1100.77L86.2101 1100.77L86.2101 1112.99L18.086 1112.99Z" stroke="black" stroke-width="2" mask="url(#path-4-outside-1_1169_1276)"/>
<path d="M72.9802 1063.82L72.9802 1079.95L86.2101 1082.75L86.2101 1095.57L18.086 1077.84L18.086 1065.82L86.2101 1048.19L86.2101 1061.01L72.9802 1063.82ZM62.1199 1066.02L34.4753 1071.83L62.1199 1077.64L62.1199 1066.02Z" stroke="black" stroke-width="2" mask="url(#path-4-outside-1_1169_1276)"/>
<path d="M18.086 1043.34L18.086 1031.02L75.3498 1031.02L75.3498 1012.49L86.2101 1012.49L86.2101 1043.34L18.086 1043.34Z" stroke="black" stroke-width="2" mask="url(#path-4-outside-1_1169_1276)"/>
<path d="M87 970.113C87 976.057 85.3545 980.766 82.0634 984.239C78.7066 987.711 73.8359 989.448 67.4513 989.448L36.7461 989.448C30.2957 989.448 25.425 987.611 22.134 983.938C18.7771 980.265 17.0987 975.423 17.0987 969.412C17.0987 963.668 18.7442 959.026 22.0352 955.486C25.3263 951.947 30.3286 950.177 37.0423 950.177L39.1156 950.177L39.1156 962.499L37.141 962.499C34.0475 962.499 31.7767 963.167 30.3286 964.503C28.8147 965.772 28.0578 967.508 28.0578 969.712C28.0578 972.317 28.9464 974.22 30.7235 975.423C32.5007 976.558 35.1664 977.126 38.7207 977.126L66.0691 977.126C72.7169 977.126 76.0409 974.655 76.0409 969.712C76.0409 967.508 75.2839 965.772 73.7701 964.503C72.2562 963.167 70.0183 962.499 67.0564 962.499L65.2792 962.499L65.2792 950.277L67.1551 950.277C73.7372 950.277 78.7066 952.147 82.0634 955.887C85.3545 959.561 87 964.302 87 970.113Z" stroke="black" stroke-width="2" mask="url(#path-4-outside-1_1169_1276)"/>
<path d="M18.086 942.185L18.086 929.863L75.3498 929.863L75.3498 911.329L86.2101 911.329L86.2101 942.185L18.086 942.185Z" stroke="black" stroke-width="2" mask="url(#path-4-outside-1_1169_1276)"/>
<path d="M87 888.914C87 892.52 86.243 895.759 84.7292 898.631C83.1495 901.436 80.9445 903.674 78.1142 905.343C75.2839 906.946 72.0258 907.748 68.3399 907.748L18.086 907.748L18.086 895.425L68.0437 895.425C70.8082 895.425 72.8486 894.891 74.165 893.823C75.4156 892.754 76.0409 891.118 76.0409 888.914C76.0409 884.572 73.3751 882.402 68.0437 882.402L18.086 882.402L18.086 870.08L68.3399 870.08C72.0258 870.08 75.2839 870.881 78.1142 872.484C80.9445 874.087 83.1495 876.324 84.7292 879.196C86.243 882.068 87 885.307 87 888.914Z" stroke="black" stroke-width="2" mask="url(#path-4-outside-1_1169_1276)"/>
<path d="M50.4696 831.714C51.7861 828.708 53.7278 826.672 56.2948 825.603C58.8618 824.534 62.2515 824 66.464 824C73.3751 824 78.4104 825.436 81.5698 828.308C84.6633 831.18 86.2101 836.055 86.2101 842.934L86.2101 861.668L18.086 861.668L18.086 842.934C18.086 836.189 19.567 831.38 22.5289 828.508C25.425 825.636 30.0653 824.2 36.4499 824.2C39.8067 824.2 42.6699 824.768 45.0395 825.903C47.409 827.039 49.2191 828.976 50.4696 831.714ZM28.9464 849.446L45.4344 849.446L45.4344 844.237C45.4344 841.365 44.8091 839.361 43.5585 838.226C42.2421 837.09 40.1358 836.523 37.2397 836.523C34.212 836.523 32.0728 837.09 30.8223 838.226C29.5717 839.361 28.9464 841.365 28.9464 844.237L28.9464 849.446ZM75.3498 844.337C75.3498 841.265 74.6257 839.161 73.1777 838.025C71.6638 836.89 69.1297 836.322 65.5754 836.322C62.1528 836.322 59.6845 836.957 58.1706 838.226C56.6568 839.428 55.8998 841.465 55.8998 844.337L55.8998 849.446L75.3498 849.446L75.3498 844.337Z" stroke="black" stroke-width="2" mask="url(#path-4-outside-1_1169_1276)"/>
<g filter="url(#filter2_f_1169_1276)">
<circle cx="52" cy="28" r="8" transform="rotate(-90 52 28)" fill="white"/>
</g>
<circle cx="52" cy="28" r="8" transform="rotate(-90 52 28)" fill="white"/>
<g filter="url(#filter3_f_1169_1276)">
<path d="M58.8618 741.767L58.8618 747.678L86.2102 747.678L86.2102 760L18.086 760L18.086 741.166C18.086 734.354 19.6986 729.545 22.9238 726.74C26.149 723.868 31.3159 722.432 38.4245 722.432C42.9661 722.432 46.7508 723.066 49.7786 724.335C52.8063 725.604 55.0771 727.675 56.591 730.547L86.2102 720.228L86.2102 733.051L58.8618 741.767ZM48.0014 747.678L48.0014 741.266C48.0014 738.795 47.2116 737.092 45.6319 736.157C43.9864 735.222 41.5839 734.754 38.4245 734.754C35.2652 734.754 32.8956 735.222 31.3159 736.157C29.7362 737.025 28.9464 738.728 28.9464 741.266L28.9464 747.678L48.0014 747.678Z" fill="white"/>
<path d="M72.9803 685.77L72.9803 701.899L86.2102 704.704L86.2102 717.527L18.086 699.795L18.086 687.773L86.2102 670.141L86.2102 682.964L72.9803 685.77ZM62.1199 687.974L34.4753 693.784L62.1199 699.595L62.1199 687.974Z" fill="white"/>
<path d="M87 646.95C87 652.894 85.3545 657.603 82.0635 661.076C78.7066 664.549 73.8359 666.285 67.4513 666.285L36.7461 666.285C30.2957 666.285 25.425 664.448 22.134 660.775C18.7771 657.102 17.0987 652.26 17.0987 646.249C17.0987 640.505 18.7442 635.863 22.0353 632.324C25.3263 628.784 30.3286 627.014 37.0423 627.014L39.1157 627.014L39.1157 639.336L37.141 639.336C34.0475 639.336 31.7767 640.004 30.3286 641.34C28.8148 642.609 28.0578 644.345 28.0578 646.549C28.0578 649.154 28.9464 651.057 30.7235 652.26C32.5007 653.395 35.1664 653.963 38.7207 653.963L66.0691 653.963C72.717 653.963 76.0409 651.492 76.0409 646.549C76.0409 644.345 75.284 642.609 73.7701 641.34C72.2562 640.004 70.0183 639.336 67.0564 639.336L65.2793 639.336L65.2793 627.114L67.1551 627.114C73.7372 627.114 78.7066 628.984 82.0635 632.724C85.3545 636.398 87 641.14 87 646.95Z" fill="white"/>
<path d="M18.086 618.621L18.086 606.399L86.2102 606.399L86.2102 618.621L18.086 618.621Z" fill="white"/>
<path d="M18.086 558.526L86.2102 558.526L86.2102 570.848L49.8773 585.274L86.2102 585.274L86.2102 597.597L18.086 597.597L18.086 585.274L55.9986 570.848L18.086 570.848L18.086 558.526Z" fill="white"/>
<path d="M87 531.213C87 537.157 85.3545 541.866 82.0635 545.339C78.7066 548.812 73.8359 550.548 67.4513 550.548L36.7461 550.548C30.2957 550.548 25.425 548.712 22.134 545.038C18.7771 541.365 17.0987 536.523 17.0987 530.512C17.0987 524.768 18.7113 520.126 21.9365 516.587C25.1617 513.047 29.9337 511.277 36.2525 511.277L38.3258 511.277L38.3258 523.599L36.2525 523.599C33.6196 523.599 31.6121 524.267 30.2299 525.603C28.7818 526.939 28.0578 528.675 28.0578 530.812C28.0578 533.417 28.9464 535.321 30.7235 536.523C32.5007 537.658 35.1664 538.226 38.7207 538.226L66.0691 538.226C72.717 538.226 76.0409 535.755 76.0409 530.812C76.0409 528.408 75.2511 526.605 73.6714 525.403C72.0258 524.2 69.6892 523.599 66.6615 523.599L59.4541 523.599L59.4541 530.913L49.8773 530.913L49.8773 511.277L67.4513 511.277C73.7701 511.277 78.6079 513.147 81.9647 516.887C85.3216 520.561 87 525.336 87 531.213Z" fill="white"/>
<path d="M87 469.243C87 475.321 85.2558 479.963 81.7673 483.168C78.2788 486.374 73.2764 488.01 66.7602 488.077L66.7602 476.456C70.1171 476.323 72.5853 475.655 74.165 474.453C75.7447 473.184 76.5345 471.347 76.5345 468.943C76.5345 466.538 75.8105 464.802 74.3625 463.733C72.9144 462.598 70.6107 462.03 67.4513 462.03C64.8185 462.03 62.7452 462.665 61.2313 463.934C59.6516 465.136 58.2036 467.206 56.8872 470.145L54.8138 474.853C52.8392 479.328 50.4038 482.567 47.5077 484.571C44.6116 486.508 40.7282 487.476 35.8575 487.476C30.1312 487.476 25.5566 485.807 22.134 482.467C18.7113 479.061 17 474.486 17 468.742C17 463.065 18.7113 458.691 22.134 455.619C25.4908 452.479 30.3615 450.81 36.7461 450.609L36.7461 461.93C33.6525 461.997 31.3488 462.564 29.835 463.633C28.2553 464.635 27.4654 466.338 27.4654 468.742C27.4654 473.217 30.0653 475.454 35.2651 475.454C37.6347 475.454 39.5435 474.92 40.9915 473.852C42.3738 472.716 43.6243 470.846 44.7433 468.241L46.7179 463.733C48.8242 458.924 51.457 455.452 54.6164 453.314C57.7757 451.11 61.9882 450.008 67.2539 450.008C73.5726 450.008 78.4433 451.678 81.866 455.017C85.2887 458.357 87 463.099 87 469.243Z" fill="white"/>
<path d="M87 424.183C87 430.128 85.3545 434.836 82.0635 438.309C78.7066 441.782 73.8359 443.518 67.4513 443.518L36.7461 443.518C30.2957 443.518 25.425 441.682 22.134 438.009C18.7771 434.335 17.0987 429.493 17.0987 423.482C17.0987 417.672 18.7771 413.03 22.134 409.557C25.425 406.017 30.2957 404.247 36.7461 404.247L67.4513 404.247C73.7701 404.247 78.6079 406.117 81.9647 409.858C85.3216 413.531 87 418.306 87 424.183ZM76.0409 423.783C76.0409 421.445 75.1852 419.675 73.4739 418.473C71.6967 417.204 69.2285 416.57 66.0691 416.57L38.7207 416.57C35.2322 416.57 32.5994 417.171 30.8223 418.373C28.9793 419.575 28.0578 421.378 28.0578 423.783C28.0578 426.388 28.9464 428.291 30.7235 429.493C32.5007 430.628 35.1664 431.196 38.7207 431.196L66.0691 431.196C72.717 431.196 76.0409 428.725 76.0409 423.783Z" fill="white"/>
<path d="M87 377.321C87 383.265 85.3545 387.974 82.0635 391.447C78.7066 394.92 73.8359 396.656 67.4513 396.656L36.7461 396.656C30.2957 396.656 25.425 394.82 22.134 391.146C18.7771 387.473 17.0987 382.631 17.0987 376.62C17.0987 370.876 18.7442 366.235 22.0352 362.695C25.3263 359.155 30.3286 357.385 37.0423 357.385L39.1156 357.385L39.1156 369.708L37.141 369.708C34.0475 369.708 31.7767 370.375 30.3286 371.711C28.8147 372.98 28.0578 374.717 28.0578 376.921C28.0578 379.525 28.9464 381.429 30.7235 382.631C32.5007 383.766 35.1664 384.334 38.7207 384.334L66.0691 384.334C72.717 384.334 76.0409 381.863 76.0409 376.921C76.0409 374.717 75.284 372.98 73.7701 371.711C72.2562 370.375 70.0183 369.708 67.0564 369.708L65.2792 369.708L65.2792 357.485L67.1551 357.485C73.7372 357.485 78.7066 359.355 82.0635 363.096C85.3545 366.769 87 371.511 87 377.321Z" fill="white"/>
<path d="M18.086 348.993L18.086 336.771L86.2101 336.771L86.2101 348.993L18.086 348.993Z" fill="white"/>
<path d="M72.9802 299.817L72.9802 315.946L86.2101 318.751L86.2101 331.574L18.086 313.842L18.086 301.821L86.2101 284.189L86.2101 297.012L72.9802 299.817ZM62.1199 302.021L34.4753 307.831L62.1199 313.642L62.1199 302.021Z" fill="white"/>
<path d="M18.086 279.345L18.086 267.022L75.3498 267.022L75.3498 248.489L86.2101 248.489L86.2101 279.345L18.086 279.345Z" fill="white"/>
<path d="M87 206.113C87 212.057 85.3545 216.766 82.0634 220.239C78.7066 223.711 73.8359 225.448 67.4513 225.448L36.7461 225.448C30.2957 225.448 25.425 223.611 22.134 219.938C18.7771 216.265 17.0987 211.423 17.0987 205.412C17.0987 199.668 18.7442 195.026 22.0352 191.486C25.3263 187.947 30.3286 186.177 37.0423 186.177L39.1156 186.177L39.1156 198.499L37.141 198.499C34.0475 198.499 31.7767 199.167 30.3286 200.503C28.8147 201.772 28.0578 203.508 28.0578 205.712C28.0578 208.317 28.9464 210.22 30.7235 211.423C32.5007 212.558 35.1664 213.126 38.7207 213.126L66.0691 213.126C72.7169 213.126 76.0409 210.655 76.0409 205.712C76.0409 203.508 75.2839 201.772 73.7701 200.503C72.2562 199.167 70.0183 198.499 67.0564 198.499L65.2792 198.499L65.2792 186.277L67.1551 186.277C73.7372 186.277 78.7066 188.147 82.0634 191.887C85.3545 195.561 87 200.302 87 206.113Z" fill="white"/>
<path d="M18.086 178.185L18.086 165.863L75.3498 165.863L75.3498 147.329L86.2101 147.329L86.2101 178.185L18.086 178.185Z" fill="white"/>
<path d="M87 124.914C87 128.52 86.243 131.759 84.7292 134.631C83.1495 137.436 80.9445 139.674 78.1142 141.343C75.2839 142.946 72.0258 143.748 68.3399 143.748L18.086 143.748L18.086 131.425L68.0437 131.425C70.8082 131.425 72.8486 130.891 74.165 129.823C75.4156 128.754 76.0409 127.118 76.0409 124.914C76.0409 120.572 73.3751 118.402 68.0437 118.402L18.086 118.402L18.086 106.08L68.3399 106.08C72.0258 106.08 75.2839 106.881 78.1142 108.484C80.9445 110.087 83.1495 112.324 84.7292 115.196C86.243 118.068 87 121.307 87 124.914Z" fill="white"/>
<path d="M50.4696 67.7139C51.7861 64.7085 53.7278 62.6715 56.2948 61.6029C58.8618 60.5343 62.2515 60.0001 66.464 60.0001C73.3751 60.0001 78.4104 61.436 81.5698 64.3078C84.6633 67.1797 86.2101 72.0552 86.2101 78.9343L86.2101 97.6682L18.086 97.6682L18.086 78.9343C18.086 72.1887 19.567 67.3801 22.5289 64.5082C25.425 61.6364 30.0653 60.2004 36.4499 60.2004C39.8067 60.2004 42.6699 60.7681 45.0395 61.9034C47.409 63.0388 49.2191 64.9756 50.4696 67.7139ZM28.9464 85.446L45.4344 85.446L45.4344 80.2366C45.4344 77.3647 44.8091 75.3611 43.5585 74.2258C42.2421 73.0903 40.1358 72.5227 37.2397 72.5227C34.212 72.5227 32.0728 73.0903 30.8223 74.2258C29.5717 75.3611 28.9464 77.3647 28.9464 80.2366L28.9464 85.446ZM75.3498 80.3369C75.3498 77.2646 74.6257 75.1608 73.1777 74.0254C71.6638 72.89 69.1297 72.3223 65.5754 72.3223C62.1528 72.3223 59.6845 72.9568 58.1706 74.2258C56.6568 75.4279 55.8998 77.465 55.8998 80.3369L55.8998 85.446L75.3498 85.446L75.3498 80.3369Z" fill="white"/>
</g>
<mask id="path-8-outside-2_1169_1276" maskUnits="userSpaceOnUse" x="16" y="59" width="72" height="702" fill="black">
<rect fill="white" x="16" y="59" width="72" height="702"/>
<path d="M58.8618 741.767L58.8618 747.678L86.2102 747.678L86.2102 760L18.086 760L18.086 741.166C18.086 734.354 19.6986 729.545 22.9238 726.74C26.149 723.868 31.3159 722.432 38.4245 722.432C42.9661 722.432 46.7508 723.066 49.7786 724.335C52.8063 725.604 55.0771 727.675 56.591 730.547L86.2102 720.228L86.2102 733.051L58.8618 741.767ZM48.0014 747.678L48.0014 741.266C48.0014 738.795 47.2116 737.092 45.6319 736.157C43.9864 735.222 41.5839 734.754 38.4245 734.754C35.2652 734.754 32.8956 735.222 31.3159 736.157C29.7362 737.025 28.9464 738.728 28.9464 741.266L28.9464 747.678L48.0014 747.678Z"/>
<path d="M72.9803 685.77L72.9803 701.899L86.2102 704.704L86.2102 717.527L18.086 699.795L18.086 687.773L86.2102 670.141L86.2102 682.964L72.9803 685.77ZM62.1199 687.974L34.4753 693.784L62.1199 699.595L62.1199 687.974Z"/>
<path d="M87 646.95C87 652.894 85.3545 657.603 82.0635 661.076C78.7066 664.549 73.8359 666.285 67.4513 666.285L36.7461 666.285C30.2957 666.285 25.425 664.448 22.134 660.775C18.7771 657.102 17.0987 652.26 17.0987 646.249C17.0987 640.505 18.7442 635.863 22.0353 632.324C25.3263 628.784 30.3286 627.014 37.0423 627.014L39.1157 627.014L39.1157 639.336L37.141 639.336C34.0475 639.336 31.7767 640.004 30.3286 641.34C28.8148 642.609 28.0578 644.345 28.0578 646.549C28.0578 649.154 28.9464 651.057 30.7235 652.26C32.5007 653.395 35.1664 653.963 38.7207 653.963L66.0691 653.963C72.717 653.963 76.0409 651.492 76.0409 646.549C76.0409 644.345 75.284 642.609 73.7701 641.34C72.2562 640.004 70.0183 639.336 67.0564 639.336L65.2793 639.336L65.2793 627.114L67.1551 627.114C73.7372 627.114 78.7066 628.984 82.0635 632.724C85.3545 636.398 87 641.14 87 646.95Z"/>
<path d="M18.086 618.621L18.086 606.399L86.2102 606.399L86.2102 618.621L18.086 618.621Z"/>
<path d="M18.086 558.526L86.2102 558.526L86.2102 570.848L49.8773 585.274L86.2102 585.274L86.2102 597.597L18.086 597.597L18.086 585.274L55.9986 570.848L18.086 570.848L18.086 558.526Z"/>
<path d="M87 531.213C87 537.157 85.3545 541.866 82.0635 545.339C78.7066 548.812 73.8359 550.548 67.4513 550.548L36.7461 550.548C30.2957 550.548 25.425 548.712 22.134 545.038C18.7771 541.365 17.0987 536.523 17.0987 530.512C17.0987 524.768 18.7113 520.126 21.9365 516.587C25.1617 513.047 29.9337 511.277 36.2525 511.277L38.3258 511.277L38.3258 523.599L36.2525 523.599C33.6196 523.599 31.6121 524.267 30.2299 525.603C28.7818 526.939 28.0578 528.675 28.0578 530.812C28.0578 533.417 28.9464 535.321 30.7235 536.523C32.5007 537.658 35.1664 538.226 38.7207 538.226L66.0691 538.226C72.717 538.226 76.0409 535.755 76.0409 530.812C76.0409 528.408 75.2511 526.605 73.6714 525.403C72.0258 524.2 69.6892 523.599 66.6615 523.599L59.4541 523.599L59.4541 530.913L49.8773 530.913L49.8773 511.277L67.4513 511.277C73.7701 511.277 78.6079 513.147 81.9647 516.887C85.3216 520.561 87 525.336 87 531.213Z"/>
<path d="M87 469.243C87 475.321 85.2558 479.963 81.7673 483.168C78.2788 486.374 73.2764 488.01 66.7602 488.077L66.7602 476.456C70.1171 476.323 72.5853 475.655 74.165 474.453C75.7447 473.184 76.5345 471.347 76.5345 468.943C76.5345 466.538 75.8105 464.802 74.3625 463.733C72.9144 462.598 70.6107 462.03 67.4513 462.03C64.8185 462.03 62.7452 462.665 61.2313 463.934C59.6516 465.136 58.2036 467.206 56.8872 470.145L54.8138 474.853C52.8392 479.328 50.4038 482.567 47.5077 484.571C44.6116 486.508 40.7282 487.476 35.8575 487.476C30.1312 487.476 25.5566 485.807 22.134 482.467C18.7113 479.061 17 474.486 17 468.742C17 463.065 18.7113 458.691 22.134 455.619C25.4908 452.479 30.3615 450.81 36.7461 450.609L36.7461 461.93C33.6525 461.997 31.3488 462.564 29.835 463.633C28.2553 464.635 27.4654 466.338 27.4654 468.742C27.4654 473.217 30.0653 475.454 35.2651 475.454C37.6347 475.454 39.5435 474.92 40.9915 473.852C42.3738 472.716 43.6243 470.846 44.7433 468.241L46.7179 463.733C48.8242 458.924 51.457 455.452 54.6164 453.314C57.7757 451.11 61.9882 450.008 67.2539 450.008C73.5726 450.008 78.4433 451.678 81.866 455.017C85.2887 458.357 87 463.099 87 469.243Z"/>
<path d="M87 424.183C87 430.128 85.3545 434.836 82.0635 438.309C78.7066 441.782 73.8359 443.518 67.4513 443.518L36.7461 443.518C30.2957 443.518 25.425 441.682 22.134 438.009C18.7771 434.335 17.0987 429.493 17.0987 423.482C17.0987 417.672 18.7771 413.03 22.134 409.557C25.425 406.017 30.2957 404.247 36.7461 404.247L67.4513 404.247C73.7701 404.247 78.6079 406.117 81.9647 409.858C85.3216 413.531 87 418.306 87 424.183ZM76.0409 423.783C76.0409 421.445 75.1852 419.675 73.4739 418.473C71.6967 417.204 69.2285 416.57 66.0691 416.57L38.7207 416.57C35.2322 416.57 32.5994 417.171 30.8223 418.373C28.9793 419.575 28.0578 421.378 28.0578 423.783C28.0578 426.388 28.9464 428.291 30.7235 429.493C32.5007 430.628 35.1664 431.196 38.7207 431.196L66.0691 431.196C72.717 431.196 76.0409 428.725 76.0409 423.783Z"/>
<path d="M87 377.321C87 383.265 85.3545 387.974 82.0635 391.447C78.7066 394.92 73.8359 396.656 67.4513 396.656L36.7461 396.656C30.2957 396.656 25.425 394.82 22.134 391.146C18.7771 387.473 17.0987 382.631 17.0987 376.62C17.0987 370.876 18.7442 366.235 22.0352 362.695C25.3263 359.155 30.3286 357.385 37.0423 357.385L39.1156 357.385L39.1156 369.708L37.141 369.708C34.0475 369.708 31.7767 370.375 30.3286 371.711C28.8147 372.98 28.0578 374.717 28.0578 376.921C28.0578 379.525 28.9464 381.429 30.7235 382.631C32.5007 383.766 35.1664 384.334 38.7207 384.334L66.0691 384.334C72.717 384.334 76.0409 381.863 76.0409 376.921C76.0409 374.717 75.284 372.98 73.7701 371.711C72.2562 370.375 70.0183 369.708 67.0564 369.708L65.2792 369.708L65.2792 357.485L67.1551 357.485C73.7372 357.485 78.7066 359.355 82.0635 363.096C85.3545 366.769 87 371.511 87 377.321Z"/>
<path d="M18.086 348.993L18.086 336.771L86.2101 336.771L86.2101 348.993L18.086 348.993Z"/>
<path d="M72.9802 299.817L72.9802 315.946L86.2101 318.751L86.2101 331.574L18.086 313.842L18.086 301.821L86.2101 284.189L86.2101 297.012L72.9802 299.817ZM62.1199 302.021L34.4753 307.831L62.1199 313.642L62.1199 302.021Z"/>
<path d="M18.086 279.345L18.086 267.022L75.3498 267.022L75.3498 248.489L86.2101 248.489L86.2101 279.345L18.086 279.345Z"/>
<path d="M87 206.113C87 212.057 85.3545 216.766 82.0634 220.239C78.7066 223.711 73.8359 225.448 67.4513 225.448L36.7461 225.448C30.2957 225.448 25.425 223.611 22.134 219.938C18.7771 216.265 17.0987 211.423 17.0987 205.412C17.0987 199.668 18.7442 195.026 22.0352 191.486C25.3263 187.947 30.3286 186.177 37.0423 186.177L39.1156 186.177L39.1156 198.499L37.141 198.499C34.0475 198.499 31.7767 199.167 30.3286 200.503C28.8147 201.772 28.0578 203.508 28.0578 205.712C28.0578 208.317 28.9464 210.22 30.7235 211.423C32.5007 212.558 35.1664 213.126 38.7207 213.126L66.0691 213.126C72.7169 213.126 76.0409 210.655 76.0409 205.712C76.0409 203.508 75.2839 201.772 73.7701 200.503C72.2562 199.167 70.0183 198.499 67.0564 198.499L65.2792 198.499L65.2792 186.277L67.1551 186.277C73.7372 186.277 78.7066 188.147 82.0634 191.887C85.3545 195.561 87 200.302 87 206.113Z"/>
<path d="M18.086 178.185L18.086 165.863L75.3498 165.863L75.3498 147.329L86.2101 147.329L86.2101 178.185L18.086 178.185Z"/>
<path d="M87 124.914C87 128.52 86.243 131.759 84.7292 134.631C83.1495 137.436 80.9445 139.674 78.1142 141.343C75.2839 142.946 72.0258 143.748 68.3399 143.748L18.086 143.748L18.086 131.425L68.0437 131.425C70.8082 131.425 72.8486 130.891 74.165 129.823C75.4156 128.754 76.0409 127.118 76.0409 124.914C76.0409 120.572 73.3751 118.402 68.0437 118.402L18.086 118.402L18.086 106.08L68.3399 106.08C72.0258 106.08 75.2839 106.881 78.1142 108.484C80.9445 110.087 83.1495 112.324 84.7292 115.196C86.243 118.068 87 121.307 87 124.914Z"/>
<path d="M50.4696 67.7139C51.7861 64.7085 53.7278 62.6715 56.2948 61.6029C58.8618 60.5343 62.2515 60.0001 66.464 60.0001C73.3751 60.0001 78.4104 61.436 81.5698 64.3078C84.6633 67.1797 86.2101 72.0552 86.2101 78.9343L86.2101 97.6682L18.086 97.6682L18.086 78.9343C18.086 72.1887 19.567 67.3801 22.5289 64.5082C25.425 61.6364 30.0653 60.2004 36.4499 60.2004C39.8067 60.2004 42.6699 60.7681 45.0395 61.9034C47.409 63.0388 49.2191 64.9756 50.4696 67.7139ZM28.9464 85.446L45.4344 85.446L45.4344 80.2366C45.4344 77.3647 44.8091 75.3611 43.5585 74.2258C42.2421 73.0903 40.1358 72.5227 37.2397 72.5227C34.212 72.5227 32.0728 73.0903 30.8223 74.2258C29.5717 75.3611 28.9464 77.3647 28.9464 80.2366L28.9464 85.446ZM75.3498 80.3369C75.3498 77.2646 74.6257 75.1608 73.1777 74.0254C71.6638 72.89 69.1297 72.3223 65.5754 72.3223C62.1528 72.3223 59.6845 72.9568 58.1706 74.2258C56.6568 75.4279 55.8998 77.465 55.8998 80.3369L55.8998 85.446L75.3498 85.446L75.3498 80.3369Z"/>
</mask>
<path d="M58.8618 741.767L58.8618 747.678L86.2102 747.678L86.2102 760L18.086 760L18.086 741.166C18.086 734.354 19.6986 729.545 22.9238 726.74C26.149 723.868 31.3159 722.432 38.4245 722.432C42.9661 722.432 46.7508 723.066 49.7786 724.335C52.8063 725.604 55.0771 727.675 56.591 730.547L86.2102 720.228L86.2102 733.051L58.8618 741.767ZM48.0014 747.678L48.0014 741.266C48.0014 738.795 47.2116 737.092 45.6319 736.157C43.9864 735.222 41.5839 734.754 38.4245 734.754C35.2652 734.754 32.8956 735.222 31.3159 736.157C29.7362 737.025 28.9464 738.728 28.9464 741.266L28.9464 747.678L48.0014 747.678Z" fill="white"/>
<path d="M72.9803 685.77L72.9803 701.899L86.2102 704.704L86.2102 717.527L18.086 699.795L18.086 687.773L86.2102 670.141L86.2102 682.964L72.9803 685.77ZM62.1199 687.974L34.4753 693.784L62.1199 699.595L62.1199 687.974Z" fill="white"/>
<path d="M87 646.95C87 652.894 85.3545 657.603 82.0635 661.076C78.7066 664.549 73.8359 666.285 67.4513 666.285L36.7461 666.285C30.2957 666.285 25.425 664.448 22.134 660.775C18.7771 657.102 17.0987 652.26 17.0987 646.249C17.0987 640.505 18.7442 635.863 22.0353 632.324C25.3263 628.784 30.3286 627.014 37.0423 627.014L39.1157 627.014L39.1157 639.336L37.141 639.336C34.0475 639.336 31.7767 640.004 30.3286 641.34C28.8148 642.609 28.0578 644.345 28.0578 646.549C28.0578 649.154 28.9464 651.057 30.7235 652.26C32.5007 653.395 35.1664 653.963 38.7207 653.963L66.0691 653.963C72.717 653.963 76.0409 651.492 76.0409 646.549C76.0409 644.345 75.284 642.609 73.7701 641.34C72.2562 640.004 70.0183 639.336 67.0564 639.336L65.2793 639.336L65.2793 627.114L67.1551 627.114C73.7372 627.114 78.7066 628.984 82.0635 632.724C85.3545 636.398 87 641.14 87 646.95Z" fill="white"/>
<path d="M18.086 618.621L18.086 606.399L86.2102 606.399L86.2102 618.621L18.086 618.621Z" fill="white"/>
<path d="M18.086 558.526L86.2102 558.526L86.2102 570.848L49.8773 585.274L86.2102 585.274L86.2102 597.597L18.086 597.597L18.086 585.274L55.9986 570.848L18.086 570.848L18.086 558.526Z" fill="white"/>
<path d="M87 531.213C87 537.157 85.3545 541.866 82.0635 545.339C78.7066 548.812 73.8359 550.548 67.4513 550.548L36.7461 550.548C30.2957 550.548 25.425 548.712 22.134 545.038C18.7771 541.365 17.0987 536.523 17.0987 530.512C17.0987 524.768 18.7113 520.126 21.9365 516.587C25.1617 513.047 29.9337 511.277 36.2525 511.277L38.3258 511.277L38.3258 523.599L36.2525 523.599C33.6196 523.599 31.6121 524.267 30.2299 525.603C28.7818 526.939 28.0578 528.675 28.0578 530.812C28.0578 533.417 28.9464 535.321 30.7235 536.523C32.5007 537.658 35.1664 538.226 38.7207 538.226L66.0691 538.226C72.717 538.226 76.0409 535.755 76.0409 530.812C76.0409 528.408 75.2511 526.605 73.6714 525.403C72.0258 524.2 69.6892 523.599 66.6615 523.599L59.4541 523.599L59.4541 530.913L49.8773 530.913L49.8773 511.277L67.4513 511.277C73.7701 511.277 78.6079 513.147 81.9647 516.887C85.3216 520.561 87 525.336 87 531.213Z" fill="white"/>
<path d="M87 469.243C87 475.321 85.2558 479.963 81.7673 483.168C78.2788 486.374 73.2764 488.01 66.7602 488.077L66.7602 476.456C70.1171 476.323 72.5853 475.655 74.165 474.453C75.7447 473.184 76.5345 471.347 76.5345 468.943C76.5345 466.538 75.8105 464.802 74.3625 463.733C72.9144 462.598 70.6107 462.03 67.4513 462.03C64.8185 462.03 62.7452 462.665 61.2313 463.934C59.6516 465.136 58.2036 467.206 56.8872 470.145L54.8138 474.853C52.8392 479.328 50.4038 482.567 47.5077 484.571C44.6116 486.508 40.7282 487.476 35.8575 487.476C30.1312 487.476 25.5566 485.807 22.134 482.467C18.7113 479.061 17 474.486 17 468.742C17 463.065 18.7113 458.691 22.134 455.619C25.4908 452.479 30.3615 450.81 36.7461 450.609L36.7461 461.93C33.6525 461.997 31.3488 462.564 29.835 463.633C28.2553 464.635 27.4654 466.338 27.4654 468.742C27.4654 473.217 30.0653 475.454 35.2651 475.454C37.6347 475.454 39.5435 474.92 40.9915 473.852C42.3738 472.716 43.6243 470.846 44.7433 468.241L46.7179 463.733C48.8242 458.924 51.457 455.452 54.6164 453.314C57.7757 451.11 61.9882 450.008 67.2539 450.008C73.5726 450.008 78.4433 451.678 81.866 455.017C85.2887 458.357 87 463.099 87 469.243Z" fill="white"/>
<path d="M87 424.183C87 430.128 85.3545 434.836 82.0635 438.309C78.7066 441.782 73.8359 443.518 67.4513 443.518L36.7461 443.518C30.2957 443.518 25.425 441.682 22.134 438.009C18.7771 434.335 17.0987 429.493 17.0987 423.482C17.0987 417.672 18.7771 413.03 22.134 409.557C25.425 406.017 30.2957 404.247 36.7461 404.247L67.4513 404.247C73.7701 404.247 78.6079 406.117 81.9647 409.858C85.3216 413.531 87 418.306 87 424.183ZM76.0409 423.783C76.0409 421.445 75.1852 419.675 73.4739 418.473C71.6967 417.204 69.2285 416.57 66.0691 416.57L38.7207 416.57C35.2322 416.57 32.5994 417.171 30.8223 418.373C28.9793 419.575 28.0578 421.378 28.0578 423.783C28.0578 426.388 28.9464 428.291 30.7235 429.493C32.5007 430.628 35.1664 431.196 38.7207 431.196L66.0691 431.196C72.717 431.196 76.0409 428.725 76.0409 423.783Z" fill="white"/>
<path d="M87 377.321C87 383.265 85.3545 387.974 82.0635 391.447C78.7066 394.92 73.8359 396.656 67.4513 396.656L36.7461 396.656C30.2957 396.656 25.425 394.82 22.134 391.146C18.7771 387.473 17.0987 382.631 17.0987 376.62C17.0987 370.876 18.7442 366.235 22.0352 362.695C25.3263 359.155 30.3286 357.385 37.0423 357.385L39.1156 357.385L39.1156 369.708L37.141 369.708C34.0475 369.708 31.7767 370.375 30.3286 371.711C28.8147 372.98 28.0578 374.717 28.0578 376.921C28.0578 379.525 28.9464 381.429 30.7235 382.631C32.5007 383.766 35.1664 384.334 38.7207 384.334L66.0691 384.334C72.717 384.334 76.0409 381.863 76.0409 376.921C76.0409 374.717 75.284 372.98 73.7701 371.711C72.2562 370.375 70.0183 369.708 67.0564 369.708L65.2792 369.708L65.2792 357.485L67.1551 357.485C73.7372 357.485 78.7066 359.355 82.0635 363.096C85.3545 366.769 87 371.511 87 377.321Z" fill="white"/>
<path d="M18.086 348.993L18.086 336.771L86.2101 336.771L86.2101 348.993L18.086 348.993Z" fill="white"/>
<path d="M72.9802 299.817L72.9802 315.946L86.2101 318.751L86.2101 331.574L18.086 313.842L18.086 301.821L86.2101 284.189L86.2101 297.012L72.9802 299.817ZM62.1199 302.021L34.4753 307.831L62.1199 313.642L62.1199 302.021Z" fill="white"/>
<path d="M18.086 279.345L18.086 267.022L75.3498 267.022L75.3498 248.489L86.2101 248.489L86.2101 279.345L18.086 279.345Z" fill="white"/>
<path d="M87 206.113C87 212.057 85.3545 216.766 82.0634 220.239C78.7066 223.711 73.8359 225.448 67.4513 225.448L36.7461 225.448C30.2957 225.448 25.425 223.611 22.134 219.938C18.7771 216.265 17.0987 211.423 17.0987 205.412C17.0987 199.668 18.7442 195.026 22.0352 191.486C25.3263 187.947 30.3286 186.177 37.0423 186.177L39.1156 186.177L39.1156 198.499L37.141 198.499C34.0475 198.499 31.7767 199.167 30.3286 200.503C28.8147 201.772 28.0578 203.508 28.0578 205.712C28.0578 208.317 28.9464 210.22 30.7235 211.423C32.5007 212.558 35.1664 213.126 38.7207 213.126L66.0691 213.126C72.7169 213.126 76.0409 210.655 76.0409 205.712C76.0409 203.508 75.2839 201.772 73.7701 200.503C72.2562 199.167 70.0183 198.499 67.0564 198.499L65.2792 198.499L65.2792 186.277L67.1551 186.277C73.7372 186.277 78.7066 188.147 82.0634 191.887C85.3545 195.561 87 200.302 87 206.113Z" fill="white"/>
<path d="M18.086 178.185L18.086 165.863L75.3498 165.863L75.3498 147.329L86.2101 147.329L86.2101 178.185L18.086 178.185Z" fill="white"/>
<path d="M87 124.914C87 128.52 86.243 131.759 84.7292 134.631C83.1495 137.436 80.9445 139.674 78.1142 141.343C75.2839 142.946 72.0258 143.748 68.3399 143.748L18.086 143.748L18.086 131.425L68.0437 131.425C70.8082 131.425 72.8486 130.891 74.165 129.823C75.4156 128.754 76.0409 127.118 76.0409 124.914C76.0409 120.572 73.3751 118.402 68.0437 118.402L18.086 118.402L18.086 106.08L68.3399 106.08C72.0258 106.08 75.2839 106.881 78.1142 108.484C80.9445 110.087 83.1495 112.324 84.7292 115.196C86.243 118.068 87 121.307 87 124.914Z" fill="white"/>
<path d="M50.4696 67.7139C51.7861 64.7085 53.7278 62.6715 56.2948 61.6029C58.8618 60.5343 62.2515 60.0001 66.464 60.0001C73.3751 60.0001 78.4104 61.436 81.5698 64.3078C84.6633 67.1797 86.2101 72.0552 86.2101 78.9343L86.2101 97.6682L18.086 97.6682L18.086 78.9343C18.086 72.1887 19.567 67.3801 22.5289 64.5082C25.425 61.6364 30.0653 60.2004 36.4499 60.2004C39.8067 60.2004 42.6699 60.7681 45.0395 61.9034C47.409 63.0388 49.2191 64.9756 50.4696 67.7139ZM28.9464 85.446L45.4344 85.446L45.4344 80.2366C45.4344 77.3647 44.8091 75.3611 43.5585 74.2258C42.2421 73.0903 40.1358 72.5227 37.2397 72.5227C34.212 72.5227 32.0728 73.0903 30.8223 74.2258C29.5717 75.3611 28.9464 77.3647 28.9464 80.2366L28.9464 85.446ZM75.3498 80.3369C75.3498 77.2646 74.6257 75.1608 73.1777 74.0254C71.6638 72.89 69.1297 72.3223 65.5754 72.3223C62.1528 72.3223 59.6845 72.9568 58.1706 74.2258C56.6568 75.4279 55.8998 77.465 55.8998 80.3369L55.8998 85.446L75.3498 85.446L75.3498 80.3369Z" fill="white"/>
<path d="M58.8618 741.767L58.8618 747.678L86.2102 747.678L86.2102 760L18.086 760L18.086 741.166C18.086 734.354 19.6986 729.545 22.9238 726.74C26.149 723.868 31.3159 722.432 38.4245 722.432C42.9661 722.432 46.7508 723.066 49.7786 724.335C52.8063 725.604 55.0771 727.675 56.591 730.547L86.2102 720.228L86.2102 733.051L58.8618 741.767ZM48.0014 747.678L48.0014 741.266C48.0014 738.795 47.2116 737.092 45.6319 736.157C43.9864 735.222 41.5839 734.754 38.4245 734.754C35.2652 734.754 32.8956 735.222 31.3159 736.157C29.7362 737.025 28.9464 738.728 28.9464 741.266L28.9464 747.678L48.0014 747.678Z" stroke="black" stroke-width="2" mask="url(#path-8-outside-2_1169_1276)"/>
<path d="M72.9803 685.77L72.9803 701.899L86.2102 704.704L86.2102 717.527L18.086 699.795L18.086 687.773L86.2102 670.141L86.2102 682.964L72.9803 685.77ZM62.1199 687.974L34.4753 693.784L62.1199 699.595L62.1199 687.974Z" stroke="black" stroke-width="2" mask="url(#path-8-outside-2_1169_1276)"/>
<path d="M87 646.95C87 652.894 85.3545 657.603 82.0635 661.076C78.7066 664.549 73.8359 666.285 67.4513 666.285L36.7461 666.285C30.2957 666.285 25.425 664.448 22.134 660.775C18.7771 657.102 17.0987 652.26 17.0987 646.249C17.0987 640.505 18.7442 635.863 22.0353 632.324C25.3263 628.784 30.3286 627.014 37.0423 627.014L39.1157 627.014L39.1157 639.336L37.141 639.336C34.0475 639.336 31.7767 640.004 30.3286 641.34C28.8148 642.609 28.0578 644.345 28.0578 646.549C28.0578 649.154 28.9464 651.057 30.7235 652.26C32.5007 653.395 35.1664 653.963 38.7207 653.963L66.0691 653.963C72.717 653.963 76.0409 651.492 76.0409 646.549C76.0409 644.345 75.284 642.609 73.7701 641.34C72.2562 640.004 70.0183 639.336 67.0564 639.336L65.2793 639.336L65.2793 627.114L67.1551 627.114C73.7372 627.114 78.7066 628.984 82.0635 632.724C85.3545 636.398 87 641.14 87 646.95Z" stroke="black" stroke-width="2" mask="url(#path-8-outside-2_1169_1276)"/>
<path d="M18.086 618.621L18.086 606.399L86.2102 606.399L86.2102 618.621L18.086 618.621Z" stroke="black" stroke-width="2" mask="url(#path-8-outside-2_1169_1276)"/>
<path d="M18.086 558.526L86.2102 558.526L86.2102 570.848L49.8773 585.274L86.2102 585.274L86.2102 597.597L18.086 597.597L18.086 585.274L55.9986 570.848L18.086 570.848L18.086 558.526Z" stroke="black" stroke-width="2" mask="url(#path-8-outside-2_1169_1276)"/>
<path d="M87 531.213C87 537.157 85.3545 541.866 82.0635 545.339C78.7066 548.812 73.8359 550.548 67.4513 550.548L36.7461 550.548C30.2957 550.548 25.425 548.712 22.134 545.038C18.7771 541.365 17.0987 536.523 17.0987 530.512C17.0987 524.768 18.7113 520.126 21.9365 516.587C25.1617 513.047 29.9337 511.277 36.2525 511.277L38.3258 511.277L38.3258 523.599L36.2525 523.599C33.6196 523.599 31.6121 524.267 30.2299 525.603C28.7818 526.939 28.0578 528.675 28.0578 530.812C28.0578 533.417 28.9464 535.321 30.7235 536.523C32.5007 537.658 35.1664 538.226 38.7207 538.226L66.0691 538.226C72.717 538.226 76.0409 535.755 76.0409 530.812C76.0409 528.408 75.2511 526.605 73.6714 525.403C72.0258 524.2 69.6892 523.599 66.6615 523.599L59.4541 523.599L59.4541 530.913L49.8773 530.913L49.8773 511.277L67.4513 511.277C73.7701 511.277 78.6079 513.147 81.9647 516.887C85.3216 520.561 87 525.336 87 531.213Z" stroke="black" stroke-width="2" mask="url(#path-8-outside-2_1169_1276)"/>
<path d="M87 469.243C87 475.321 85.2558 479.963 81.7673 483.168C78.2788 486.374 73.2764 488.01 66.7602 488.077L66.7602 476.456C70.1171 476.323 72.5853 475.655 74.165 474.453C75.7447 473.184 76.5345 471.347 76.5345 468.943C76.5345 466.538 75.8105 464.802 74.3625 463.733C72.9144 462.598 70.6107 462.03 67.4513 462.03C64.8185 462.03 62.7452 462.665 61.2313 463.934C59.6516 465.136 58.2036 467.206 56.8872 470.145L54.8138 474.853C52.8392 479.328 50.4038 482.567 47.5077 484.571C44.6116 486.508 40.7282 487.476 35.8575 487.476C30.1312 487.476 25.5566 485.807 22.134 482.467C18.7113 479.061 17 474.486 17 468.742C17 463.065 18.7113 458.691 22.134 455.619C25.4908 452.479 30.3615 450.81 36.7461 450.609L36.7461 461.93C33.6525 461.997 31.3488 462.564 29.835 463.633C28.2553 464.635 27.4654 466.338 27.4654 468.742C27.4654 473.217 30.0653 475.454 35.2651 475.454C37.6347 475.454 39.5435 474.92 40.9915 473.852C42.3738 472.716 43.6243 470.846 44.7433 468.241L46.7179 463.733C48.8242 458.924 51.457 455.452 54.6164 453.314C57.7757 451.11 61.9882 450.008 67.2539 450.008C73.5726 450.008 78.4433 451.678 81.866 455.017C85.2887 458.357 87 463.099 87 469.243Z" stroke="black" stroke-width="2" mask="url(#path-8-outside-2_1169_1276)"/>
<path d="M87 424.183C87 430.128 85.3545 434.836 82.0635 438.309C78.7066 441.782 73.8359 443.518 67.4513 443.518L36.7461 443.518C30.2957 443.518 25.425 441.682 22.134 438.009C18.7771 434.335 17.0987 429.493 17.0987 423.482C17.0987 417.672 18.7771 413.03 22.134 409.557C25.425 406.017 30.2957 404.247 36.7461 404.247L67.4513 404.247C73.7701 404.247 78.6079 406.117 81.9647 409.858C85.3216 413.531 87 418.306 87 424.183ZM76.0409 423.783C76.0409 421.445 75.1852 419.675 73.4739 418.473C71.6967 417.204 69.2285 416.57 66.0691 416.57L38.7207 416.57C35.2322 416.57 32.5994 417.171 30.8223 418.373C28.9793 419.575 28.0578 421.378 28.0578 423.783C28.0578 426.388 28.9464 428.291 30.7235 429.493C32.5007 430.628 35.1664 431.196 38.7207 431.196L66.0691 431.196C72.717 431.196 76.0409 428.725 76.0409 423.783Z" stroke="black" stroke-width="2" mask="url(#path-8-outside-2_1169_1276)"/>
<path d="M87 377.321C87 383.265 85.3545 387.974 82.0635 391.447C78.7066 394.92 73.8359 396.656 67.4513 396.656L36.7461 396.656C30.2957 396.656 25.425 394.82 22.134 391.146C18.7771 387.473 17.0987 382.631 17.0987 376.62C17.0987 370.876 18.7442 366.235 22.0352 362.695C25.3263 359.155 30.3286 357.385 37.0423 357.385L39.1156 357.385L39.1156 369.708L37.141 369.708C34.0475 369.708 31.7767 370.375 30.3286 371.711C28.8147 372.98 28.0578 374.717 28.0578 376.921C28.0578 379.525 28.9464 381.429 30.7235 382.631C32.5007 383.766 35.1664 384.334 38.7207 384.334L66.0691 384.334C72.717 384.334 76.0409 381.863 76.0409 376.921C76.0409 374.717 75.284 372.98 73.7701 371.711C72.2562 370.375 70.0183 369.708 67.0564 369.708L65.2792 369.708L65.2792 357.485L67.1551 357.485C73.7372 357.485 78.7066 359.355 82.0635 363.096C85.3545 366.769 87 371.511 87 377.321Z" stroke="black" stroke-width="2" mask="url(#path-8-outside-2_1169_1276)"/>
<path d="M18.086 348.993L18.086 336.771L86.2101 336.771L86.2101 348.993L18.086 348.993Z" stroke="black" stroke-width="2" mask="url(#path-8-outside-2_1169_1276)"/>
<path d="M72.9802 299.817L72.9802 315.946L86.2101 318.751L86.2101 331.574L18.086 313.842L18.086 301.821L86.2101 284.189L86.2101 297.012L72.9802 299.817ZM62.1199 302.021L34.4753 307.831L62.1199 313.642L62.1199 302.021Z" stroke="black" stroke-width="2" mask="url(#path-8-outside-2_1169_1276)"/>
<path d="M18.086 279.345L18.086 267.022L75.3498 267.022L75.3498 248.489L86.2101 248.489L86.2101 279.345L18.086 279.345Z" stroke="black" stroke-width="2" mask="url(#path-8-outside-2_1169_1276)"/>
<path d="M87 206.113C87 212.057 85.3545 216.766 82.0634 220.239C78.7066 223.711 73.8359 225.448 67.4513 225.448L36.7461 225.448C30.2957 225.448 25.425 223.611 22.134 219.938C18.7771 216.265 17.0987 211.423 17.0987 205.412C17.0987 199.668 18.7442 195.026 22.0352 191.486C25.3263 187.947 30.3286 186.177 37.0423 186.177L39.1156 186.177L39.1156 198.499L37.141 198.499C34.0475 198.499 31.7767 199.167 30.3286 200.503C28.8147 201.772 28.0578 203.508 28.0578 205.712C28.0578 208.317 28.9464 210.22 30.7235 211.423C32.5007 212.558 35.1664 213.126 38.7207 213.126L66.0691 213.126C72.7169 213.126 76.0409 210.655 76.0409 205.712C76.0409 203.508 75.2839 201.772 73.7701 200.503C72.2562 199.167 70.0183 198.499 67.0564 198.499L65.2792 198.499L65.2792 186.277L67.1551 186.277C73.7372 186.277 78.7066 188.147 82.0634 191.887C85.3545 195.561 87 200.302 87 206.113Z" stroke="black" stroke-width="2" mask="url(#path-8-outside-2_1169_1276)"/>
<path d="M18.086 178.185L18.086 165.863L75.3498 165.863L75.3498 147.329L86.2101 147.329L86.2101 178.185L18.086 178.185Z" stroke="black" stroke-width="2" mask="url(#path-8-outside-2_1169_1276)"/>
<path d="M87 124.914C87 128.52 86.243 131.759 84.7292 134.631C83.1495 137.436 80.9445 139.674 78.1142 141.343C75.2839 142.946 72.0258 143.748 68.3399 143.748L18.086 143.748L18.086 131.425L68.0437 131.425C70.8082 131.425 72.8486 130.891 74.165 129.823C75.4156 128.754 76.0409 127.118 76.0409 124.914C76.0409 120.572 73.3751 118.402 68.0437 118.402L18.086 118.402L18.086 106.08L68.3399 106.08C72.0258 106.08 75.2839 106.881 78.1142 108.484C80.9445 110.087 83.1495 112.324 84.7292 115.196C86.243 118.068 87 121.307 87 124.914Z" stroke="black" stroke-width="2" mask="url(#path-8-outside-2_1169_1276)"/>
<path d="M50.4696 67.7139C51.7861 64.7085 53.7278 62.6715 56.2948 61.6029C58.8618 60.5343 62.2515 60.0001 66.464 60.0001C73.3751 60.0001 78.4104 61.436 81.5698 64.3078C84.6633 67.1797 86.2101 72.0552 86.2101 78.9343L86.2101 97.6682L18.086 97.6682L18.086 78.9343C18.086 72.1887 19.567 67.3801 22.5289 64.5082C25.425 61.6364 30.0653 60.2004 36.4499 60.2004C39.8067 60.2004 42.6699 60.7681 45.0395 61.9034C47.409 63.0388 49.2191 64.9756 50.4696 67.7139ZM28.9464 85.446L45.4344 85.446L45.4344 80.2366C45.4344 77.3647 44.8091 75.3611 43.5585 74.2258C42.2421 73.0903 40.1358 72.5227 37.2397 72.5227C34.212 72.5227 32.0728 73.0903 30.8223 74.2258C29.5717 75.3611 28.9464 77.3647 28.9464 80.2366L28.9464 85.446ZM75.3498 80.3369C75.3498 77.2646 74.6257 75.1608 73.1777 74.0254C71.6638 72.89 69.1297 72.3223 65.5754 72.3223C62.1528 72.3223 59.6845 72.9568 58.1706 74.2258C56.6568 75.4279 55.8998 77.465 55.8998 80.3369L55.8998 85.446L75.3498 85.446L75.3498 80.3369Z" stroke="black" stroke-width="2" mask="url(#path-8-outside-2_1169_1276)"/>
<defs>
<filter id="filter0_f_1169_1276" x="24" y="764" width="56" height="56" filterUnits="userSpaceOnUse" color-interpolation-filters="sRGB">
<feFlood flood-opacity="0" result="BackgroundImageFix"/>
<feBlend mode="normal" in="SourceGraphic" in2="BackgroundImageFix" result="shape"/>
<feGaussianBlur stdDeviation="10" result="effect1_foregroundBlur_1169_1276"/>
</filter>
<filter id="filter1_f_1169_1276" x="0" y="807" width="104" height="734" filterUnits="userSpaceOnUse" color-interpolation-filters="sRGB">
<feFlood flood-opacity="0" result="BackgroundImageFix"/>
<feBlend mode="normal" in="SourceGraphic" in2="BackgroundImageFix" result="shape"/>
<feGaussianBlur stdDeviation="8.5" result="effect1_foregroundBlur_1169_1276"/>
</filter>
<filter id="filter2_f_1169_1276" x="24" y="0" width="56" height="56" filterUnits="userSpaceOnUse" color-interpolation-filters="sRGB">
<feFlood flood-opacity="0" result="BackgroundImageFix"/>
<feBlend mode="normal" in="SourceGraphic" in2="BackgroundImageFix" result="shape"/>
<feGaussianBlur stdDeviation="10" result="effect1_foregroundBlur_1169_1276"/>
</filter>
<filter id="filter3_f_1169_1276" x="3" y="46" width="98" height="728" filterUnits="userSpaceOnUse" color-interpolation-filters="sRGB">
<feFlood flood-opacity="0" result="BackgroundImageFix"/>
<feBlend mode="normal" in="SourceGraphic" in2="BackgroundImageFix" result="shape"/>
<feGaussianBlur stdDeviation="7" result="effect1_foregroundBlur_1169_1276"/>
</filter>
</defs>
</svg>
