<svg width="104" height="777" viewBox="0 0 104 777" fill="none" xmlns="http://www.w3.org/2000/svg">
<g filter="url(#filter0_f_1169_1277)">
<circle cx="52" cy="28" r="8" transform="rotate(-90 52 28)" fill="white"/>
</g>
<circle cx="52" cy="28" r="7.5" transform="rotate(-90 52 28)" fill="white" stroke="black"/>
<g filter="url(#filter1_f_1169_1277)">
<path d="M58.8618 741.767L58.8618 747.678L86.2102 747.678L86.2102 760L18.086 760L18.086 741.166C18.086 734.354 19.6986 729.545 22.9238 726.74C26.149 723.868 31.3159 722.432 38.4245 722.432C42.9661 722.432 46.7508 723.066 49.7786 724.335C52.8063 725.604 55.0771 727.675 56.591 730.547L86.2102 720.228L86.2102 733.051L58.8618 741.767ZM48.0014 747.678L48.0014 741.266C48.0014 738.795 47.2116 737.092 45.6319 736.157C43.9864 735.222 41.5839 734.754 38.4245 734.754C35.2652 734.754 32.8956 735.222 31.3159 736.157C29.7362 737.025 28.9464 738.728 28.9464 741.266L28.9464 747.678L48.0014 747.678Z" fill="white"/>
<path d="M72.9803 685.77L72.9803 701.899L86.2102 704.704L86.2102 717.527L18.086 699.795L18.086 687.773L86.2102 670.141L86.2102 682.964L72.9803 685.77ZM62.1199 687.974L34.4753 693.784L62.1199 699.595L62.1199 687.974Z" fill="white"/>
<path d="M87 646.95C87 652.894 85.3545 657.603 82.0635 661.076C78.7066 664.549 73.8359 666.285 67.4513 666.285L36.7461 666.285C30.2957 666.285 25.425 664.448 22.134 660.775C18.7771 657.102 17.0987 652.26 17.0987 646.249C17.0987 640.505 18.7442 635.863 22.0353 632.324C25.3263 628.784 30.3286 627.014 37.0423 627.014L39.1157 627.014L39.1157 639.336L37.141 639.336C34.0475 639.336 31.7767 640.004 30.3286 641.34C28.8148 642.609 28.0578 644.345 28.0578 646.549C28.0578 649.154 28.9464 651.057 30.7235 652.26C32.5007 653.395 35.1664 653.963 38.7207 653.963L66.0691 653.963C72.717 653.963 76.0409 651.492 76.0409 646.549C76.0409 644.345 75.284 642.609 73.7701 641.34C72.2562 640.004 70.0183 639.336 67.0564 639.336L65.2793 639.336L65.2793 627.114L67.1551 627.114C73.7372 627.114 78.7066 628.984 82.0635 632.724C85.3545 636.398 87 641.14 87 646.95Z" fill="white"/>
<path d="M18.086 618.621L18.086 606.399L86.2102 606.399L86.2102 618.621L18.086 618.621Z" fill="white"/>
<path d="M18.086 558.526L86.2102 558.526L86.2102 570.848L49.8773 585.274L86.2102 585.274L86.2102 597.597L18.086 597.597L18.086 585.274L55.9986 570.848L18.086 570.848L18.086 558.526Z" fill="white"/>
<path d="M87 531.213C87 537.157 85.3545 541.866 82.0635 545.339C78.7066 548.812 73.8359 550.548 67.4513 550.548L36.7461 550.548C30.2957 550.548 25.425 548.712 22.134 545.038C18.7771 541.365 17.0987 536.523 17.0987 530.512C17.0987 524.768 18.7113 520.126 21.9365 516.587C25.1617 513.047 29.9337 511.277 36.2525 511.277L38.3258 511.277L38.3258 523.599L36.2525 523.599C33.6196 523.599 31.6121 524.267 30.2299 525.603C28.7818 526.939 28.0578 528.675 28.0578 530.812C28.0578 533.417 28.9464 535.321 30.7235 536.523C32.5007 537.658 35.1664 538.226 38.7207 538.226L66.0691 538.226C72.717 538.226 76.0409 535.755 76.0409 530.812C76.0409 528.408 75.2511 526.605 73.6714 525.403C72.0258 524.2 69.6892 523.599 66.6615 523.599L59.4541 523.599L59.4541 530.913L49.8773 530.913L49.8773 511.277L67.4513 511.277C73.7701 511.277 78.6079 513.147 81.9647 516.887C85.3216 520.561 87 525.336 87 531.213Z" fill="white"/>
<path d="M87 469.243C87 475.321 85.2558 479.963 81.7673 483.168C78.2788 486.374 73.2764 488.01 66.7602 488.077L66.7602 476.456C70.1171 476.323 72.5853 475.655 74.165 474.453C75.7447 473.184 76.5345 471.347 76.5345 468.943C76.5345 466.538 75.8105 464.802 74.3625 463.733C72.9144 462.598 70.6107 462.03 67.4513 462.03C64.8185 462.03 62.7452 462.665 61.2313 463.934C59.6516 465.136 58.2036 467.206 56.8872 470.145L54.8138 474.853C52.8392 479.328 50.4038 482.567 47.5077 484.571C44.6116 486.508 40.7282 487.476 35.8575 487.476C30.1312 487.476 25.5566 485.807 22.134 482.467C18.7113 479.061 17 474.486 17 468.742C17 463.065 18.7113 458.691 22.134 455.619C25.4908 452.479 30.3615 450.81 36.7461 450.609L36.7461 461.93C33.6525 461.997 31.3488 462.564 29.835 463.633C28.2553 464.635 27.4654 466.338 27.4654 468.742C27.4654 473.217 30.0653 475.454 35.2651 475.454C37.6347 475.454 39.5435 474.92 40.9915 473.852C42.3738 472.716 43.6243 470.846 44.7433 468.241L46.7179 463.733C48.8242 458.924 51.457 455.452 54.6164 453.314C57.7757 451.11 61.9882 450.008 67.2539 450.008C73.5726 450.008 78.4433 451.678 81.866 455.017C85.2887 458.357 87 463.099 87 469.243Z" fill="white"/>
<path d="M87 424.183C87 430.128 85.3545 434.836 82.0635 438.309C78.7066 441.782 73.8359 443.518 67.4513 443.518L36.7461 443.518C30.2957 443.518 25.425 441.682 22.134 438.009C18.7771 434.335 17.0987 429.493 17.0987 423.482C17.0987 417.672 18.7771 413.03 22.134 409.557C25.425 406.017 30.2957 404.247 36.7461 404.247L67.4513 404.247C73.7701 404.247 78.6079 406.117 81.9647 409.858C85.3216 413.531 87 418.306 87 424.183ZM76.0409 423.783C76.0409 421.445 75.1852 419.675 73.4739 418.473C71.6967 417.204 69.2285 416.57 66.0691 416.57L38.7207 416.57C35.2322 416.57 32.5994 417.171 30.8223 418.373C28.9793 419.575 28.0578 421.378 28.0578 423.783C28.0578 426.388 28.9464 428.291 30.7235 429.493C32.5007 430.628 35.1664 431.196 38.7207 431.196L66.0691 431.196C72.717 431.196 76.0409 428.725 76.0409 423.783Z" fill="white"/>
<path d="M87 377.321C87 383.265 85.3545 387.974 82.0635 391.447C78.7066 394.92 73.8359 396.656 67.4513 396.656L36.7461 396.656C30.2957 396.656 25.425 394.82 22.134 391.146C18.7771 387.473 17.0987 382.631 17.0987 376.62C17.0987 370.876 18.7442 366.235 22.0352 362.695C25.3263 359.155 30.3286 357.385 37.0423 357.385L39.1156 357.385L39.1156 369.708L37.141 369.708C34.0475 369.708 31.7767 370.375 30.3286 371.711C28.8147 372.98 28.0578 374.717 28.0578 376.921C28.0578 379.525 28.9464 381.429 30.7235 382.631C32.5007 383.766 35.1664 384.334 38.7207 384.334L66.0691 384.334C72.717 384.334 76.0409 381.863 76.0409 376.921C76.0409 374.717 75.284 372.98 73.7701 371.711C72.2562 370.375 70.0183 369.708 67.0564 369.708L65.2792 369.708L65.2792 357.485L67.1551 357.485C73.7372 357.485 78.7066 359.355 82.0635 363.096C85.3545 366.769 87 371.511 87 377.321Z" fill="white"/>
<path d="M18.086 348.993L18.086 336.771L86.2101 336.771L86.2101 348.993L18.086 348.993Z" fill="white"/>
<path d="M72.9802 299.817L72.9802 315.946L86.2101 318.751L86.2101 331.574L18.086 313.842L18.086 301.821L86.2101 284.189L86.2101 297.012L72.9802 299.817ZM62.1199 302.021L34.4753 307.831L62.1199 313.642L62.1199 302.021Z" fill="white"/>
<path d="M18.086 279.345L18.086 267.022L75.3498 267.022L75.3498 248.489L86.2101 248.489L86.2101 279.345L18.086 279.345Z" fill="white"/>
<path d="M87 206.113C87 212.057 85.3545 216.766 82.0634 220.239C78.7066 223.711 73.8359 225.448 67.4513 225.448L36.7461 225.448C30.2957 225.448 25.425 223.611 22.134 219.938C18.7771 216.265 17.0987 211.423 17.0987 205.412C17.0987 199.668 18.7442 195.026 22.0352 191.486C25.3263 187.947 30.3286 186.177 37.0423 186.177L39.1156 186.177L39.1156 198.499L37.141 198.499C34.0475 198.499 31.7767 199.167 30.3286 200.503C28.8147 201.772 28.0578 203.508 28.0578 205.712C28.0578 208.317 28.9464 210.22 30.7235 211.423C32.5007 212.558 35.1664 213.126 38.7207 213.126L66.0691 213.126C72.7169 213.126 76.0409 210.655 76.0409 205.712C76.0409 203.508 75.2839 201.772 73.7701 200.503C72.2562 199.167 70.0183 198.499 67.0564 198.499L65.2792 198.499L65.2792 186.277L67.1551 186.277C73.7372 186.277 78.7066 188.147 82.0634 191.887C85.3545 195.561 87 200.302 87 206.113Z" fill="white"/>
<path d="M18.086 178.185L18.086 165.863L75.3498 165.863L75.3498 147.329L86.2101 147.329L86.2101 178.185L18.086 178.185Z" fill="white"/>
<path d="M87 124.914C87 128.52 86.243 131.759 84.7292 134.631C83.1495 137.436 80.9445 139.674 78.1142 141.343C75.2839 142.946 72.0258 143.748 68.3399 143.748L18.086 143.748L18.086 131.425L68.0437 131.425C70.8082 131.425 72.8486 130.891 74.165 129.823C75.4156 128.754 76.0409 127.118 76.0409 124.914C76.0409 120.572 73.3751 118.402 68.0437 118.402L18.086 118.402L18.086 106.08L68.3399 106.08C72.0258 106.08 75.2839 106.881 78.1142 108.484C80.9445 110.087 83.1495 112.324 84.7292 115.196C86.243 118.068 87 121.307 87 124.914Z" fill="white"/>
<path d="M50.4696 67.7139C51.7861 64.7085 53.7278 62.6715 56.2948 61.6029C58.8618 60.5343 62.2515 60.0001 66.464 60.0001C73.3751 60.0001 78.4104 61.436 81.5698 64.3078C84.6633 67.1797 86.2101 72.0552 86.2101 78.9343L86.2101 97.6682L18.086 97.6682L18.086 78.9343C18.086 72.1887 19.567 67.3801 22.5289 64.5082C25.425 61.6364 30.0653 60.2004 36.4499 60.2004C39.8067 60.2004 42.6699 60.7681 45.0395 61.9034C47.409 63.0388 49.2191 64.9756 50.4696 67.7139ZM28.9464 85.446L45.4344 85.446L45.4344 80.2366C45.4344 77.3647 44.8091 75.3611 43.5585 74.2258C42.2421 73.0903 40.1358 72.5227 37.2397 72.5227C34.212 72.5227 32.0728 73.0903 30.8223 74.2258C29.5717 75.3611 28.9464 77.3647 28.9464 80.2366L28.9464 85.446ZM75.3498 80.3369C75.3498 77.2646 74.6257 75.1608 73.1777 74.0254C71.6638 72.89 69.1297 72.3223 65.5754 72.3223C62.1528 72.3223 59.6845 72.9568 58.1706 74.2258C56.6568 75.4279 55.8998 77.465 55.8998 80.3369L55.8998 85.446L75.3498 85.446L75.3498 80.3369Z" fill="white"/>
</g>
<mask id="path-4-outside-1_1169_1277" maskUnits="userSpaceOnUse" x="16" y="59" width="72" height="702" fill="black">
<rect fill="white" x="16" y="59" width="72" height="702"/>
<path d="M58.8618 741.767L58.8618 747.678L86.2102 747.678L86.2102 760L18.086 760L18.086 741.166C18.086 734.354 19.6986 729.545 22.9238 726.74C26.149 723.868 31.3159 722.432 38.4245 722.432C42.9661 722.432 46.7508 723.066 49.7786 724.335C52.8063 725.604 55.0771 727.675 56.591 730.547L86.2102 720.228L86.2102 733.051L58.8618 741.767ZM48.0014 747.678L48.0014 741.266C48.0014 738.795 47.2116 737.092 45.6319 736.157C43.9864 735.222 41.5839 734.754 38.4245 734.754C35.2652 734.754 32.8956 735.222 31.3159 736.157C29.7362 737.025 28.9464 738.728 28.9464 741.266L28.9464 747.678L48.0014 747.678Z"/>
<path d="M72.9803 685.77L72.9803 701.899L86.2102 704.704L86.2102 717.527L18.086 699.795L18.086 687.773L86.2102 670.141L86.2102 682.964L72.9803 685.77ZM62.1199 687.974L34.4753 693.784L62.1199 699.595L62.1199 687.974Z"/>
<path d="M87 646.95C87 652.894 85.3545 657.603 82.0635 661.076C78.7066 664.549 73.8359 666.285 67.4513 666.285L36.7461 666.285C30.2957 666.285 25.425 664.448 22.134 660.775C18.7771 657.102 17.0987 652.26 17.0987 646.249C17.0987 640.505 18.7442 635.863 22.0353 632.324C25.3263 628.784 30.3286 627.014 37.0423 627.014L39.1157 627.014L39.1157 639.336L37.141 639.336C34.0475 639.336 31.7767 640.004 30.3286 641.34C28.8148 642.609 28.0578 644.345 28.0578 646.549C28.0578 649.154 28.9464 651.057 30.7235 652.26C32.5007 653.395 35.1664 653.963 38.7207 653.963L66.0691 653.963C72.717 653.963 76.0409 651.492 76.0409 646.549C76.0409 644.345 75.284 642.609 73.7701 641.34C72.2562 640.004 70.0183 639.336 67.0564 639.336L65.2793 639.336L65.2793 627.114L67.1551 627.114C73.7372 627.114 78.7066 628.984 82.0635 632.724C85.3545 636.398 87 641.14 87 646.95Z"/>
<path d="M18.086 618.621L18.086 606.399L86.2102 606.399L86.2102 618.621L18.086 618.621Z"/>
<path d="M18.086 558.526L86.2102 558.526L86.2102 570.848L49.8773 585.274L86.2102 585.274L86.2102 597.597L18.086 597.597L18.086 585.274L55.9986 570.848L18.086 570.848L18.086 558.526Z"/>
<path d="M87 531.213C87 537.157 85.3545 541.866 82.0635 545.339C78.7066 548.812 73.8359 550.548 67.4513 550.548L36.7461 550.548C30.2957 550.548 25.425 548.712 22.134 545.038C18.7771 541.365 17.0987 536.523 17.0987 530.512C17.0987 524.768 18.7113 520.126 21.9365 516.587C25.1617 513.047 29.9337 511.277 36.2525 511.277L38.3258 511.277L38.3258 523.599L36.2525 523.599C33.6196 523.599 31.6121 524.267 30.2299 525.603C28.7818 526.939 28.0578 528.675 28.0578 530.812C28.0578 533.417 28.9464 535.321 30.7235 536.523C32.5007 537.658 35.1664 538.226 38.7207 538.226L66.0691 538.226C72.717 538.226 76.0409 535.755 76.0409 530.812C76.0409 528.408 75.2511 526.605 73.6714 525.403C72.0258 524.2 69.6892 523.599 66.6615 523.599L59.4541 523.599L59.4541 530.913L49.8773 530.913L49.8773 511.277L67.4513 511.277C73.7701 511.277 78.6079 513.147 81.9647 516.887C85.3216 520.561 87 525.336 87 531.213Z"/>
<path d="M87 469.243C87 475.321 85.2558 479.963 81.7673 483.168C78.2788 486.374 73.2764 488.01 66.7602 488.077L66.7602 476.456C70.1171 476.323 72.5853 475.655 74.165 474.453C75.7447 473.184 76.5345 471.347 76.5345 468.943C76.5345 466.538 75.8105 464.802 74.3625 463.733C72.9144 462.598 70.6107 462.03 67.4513 462.03C64.8185 462.03 62.7452 462.665 61.2313 463.934C59.6516 465.136 58.2036 467.206 56.8872 470.145L54.8138 474.853C52.8392 479.328 50.4038 482.567 47.5077 484.571C44.6116 486.508 40.7282 487.476 35.8575 487.476C30.1312 487.476 25.5566 485.807 22.134 482.467C18.7113 479.061 17 474.486 17 468.742C17 463.065 18.7113 458.691 22.134 455.619C25.4908 452.479 30.3615 450.81 36.7461 450.609L36.7461 461.93C33.6525 461.997 31.3488 462.564 29.835 463.633C28.2553 464.635 27.4654 466.338 27.4654 468.742C27.4654 473.217 30.0653 475.454 35.2651 475.454C37.6347 475.454 39.5435 474.92 40.9915 473.852C42.3738 472.716 43.6243 470.846 44.7433 468.241L46.7179 463.733C48.8242 458.924 51.457 455.452 54.6164 453.314C57.7757 451.11 61.9882 450.008 67.2539 450.008C73.5726 450.008 78.4433 451.678 81.866 455.017C85.2887 458.357 87 463.099 87 469.243Z"/>
<path d="M87 424.183C87 430.128 85.3545 434.836 82.0635 438.309C78.7066 441.782 73.8359 443.518 67.4513 443.518L36.7461 443.518C30.2957 443.518 25.425 441.682 22.134 438.009C18.7771 434.335 17.0987 429.493 17.0987 423.482C17.0987 417.672 18.7771 413.03 22.134 409.557C25.425 406.017 30.2957 404.247 36.7461 404.247L67.4513 404.247C73.7701 404.247 78.6079 406.117 81.9647 409.858C85.3216 413.531 87 418.306 87 424.183ZM76.0409 423.783C76.0409 421.445 75.1852 419.675 73.4739 418.473C71.6967 417.204 69.2285 416.57 66.0691 416.57L38.7207 416.57C35.2322 416.57 32.5994 417.171 30.8223 418.373C28.9793 419.575 28.0578 421.378 28.0578 423.783C28.0578 426.388 28.9464 428.291 30.7235 429.493C32.5007 430.628 35.1664 431.196 38.7207 431.196L66.0691 431.196C72.717 431.196 76.0409 428.725 76.0409 423.783Z"/>
<path d="M87 377.321C87 383.265 85.3545 387.974 82.0635 391.447C78.7066 394.92 73.8359 396.656 67.4513 396.656L36.7461 396.656C30.2957 396.656 25.425 394.82 22.134 391.146C18.7771 387.473 17.0987 382.631 17.0987 376.62C17.0987 370.876 18.7442 366.235 22.0352 362.695C25.3263 359.155 30.3286 357.385 37.0423 357.385L39.1156 357.385L39.1156 369.708L37.141 369.708C34.0475 369.708 31.7767 370.375 30.3286 371.711C28.8147 372.98 28.0578 374.717 28.0578 376.921C28.0578 379.525 28.9464 381.429 30.7235 382.631C32.5007 383.766 35.1664 384.334 38.7207 384.334L66.0691 384.334C72.717 384.334 76.0409 381.863 76.0409 376.921C76.0409 374.717 75.284 372.98 73.7701 371.711C72.2562 370.375 70.0183 369.708 67.0564 369.708L65.2792 369.708L65.2792 357.485L67.1551 357.485C73.7372 357.485 78.7066 359.355 82.0635 363.096C85.3545 366.769 87 371.511 87 377.321Z"/>
<path d="M18.086 348.993L18.086 336.771L86.2101 336.771L86.2101 348.993L18.086 348.993Z"/>
<path d="M72.9802 299.817L72.9802 315.946L86.2101 318.751L86.2101 331.574L18.086 313.842L18.086 301.821L86.2101 284.189L86.2101 297.012L72.9802 299.817ZM62.1199 302.021L34.4753 307.831L62.1199 313.642L62.1199 302.021Z"/>
<path d="M18.086 279.345L18.086 267.022L75.3498 267.022L75.3498 248.489L86.2101 248.489L86.2101 279.345L18.086 279.345Z"/>
<path d="M87 206.113C87 212.057 85.3545 216.766 82.0634 220.239C78.7066 223.711 73.8359 225.448 67.4513 225.448L36.7461 225.448C30.2957 225.448 25.425 223.611 22.134 219.938C18.7771 216.265 17.0987 211.423 17.0987 205.412C17.0987 199.668 18.7442 195.026 22.0352 191.486C25.3263 187.947 30.3286 186.177 37.0423 186.177L39.1156 186.177L39.1156 198.499L37.141 198.499C34.0475 198.499 31.7767 199.167 30.3286 200.503C28.8147 201.772 28.0578 203.508 28.0578 205.712C28.0578 208.317 28.9464 210.22 30.7235 211.423C32.5007 212.558 35.1664 213.126 38.7207 213.126L66.0691 213.126C72.7169 213.126 76.0409 210.655 76.0409 205.712C76.0409 203.508 75.2839 201.772 73.7701 200.503C72.2562 199.167 70.0183 198.499 67.0564 198.499L65.2792 198.499L65.2792 186.277L67.1551 186.277C73.7372 186.277 78.7066 188.147 82.0634 191.887C85.3545 195.561 87 200.302 87 206.113Z"/>
<path d="M18.086 178.185L18.086 165.863L75.3498 165.863L75.3498 147.329L86.2101 147.329L86.2101 178.185L18.086 178.185Z"/>
<path d="M87 124.914C87 128.52 86.243 131.759 84.7292 134.631C83.1495 137.436 80.9445 139.674 78.1142 141.343C75.2839 142.946 72.0258 143.748 68.3399 143.748L18.086 143.748L18.086 131.425L68.0437 131.425C70.8082 131.425 72.8486 130.891 74.165 129.823C75.4156 128.754 76.0409 127.118 76.0409 124.914C76.0409 120.572 73.3751 118.402 68.0437 118.402L18.086 118.402L18.086 106.08L68.3399 106.08C72.0258 106.08 75.2839 106.881 78.1142 108.484C80.9445 110.087 83.1495 112.324 84.7292 115.196C86.243 118.068 87 121.307 87 124.914Z"/>
<path d="M50.4696 67.7139C51.7861 64.7085 53.7278 62.6715 56.2948 61.6029C58.8618 60.5343 62.2515 60.0001 66.464 60.0001C73.3751 60.0001 78.4104 61.436 81.5698 64.3078C84.6633 67.1797 86.2101 72.0552 86.2101 78.9343L86.2101 97.6682L18.086 97.6682L18.086 78.9343C18.086 72.1887 19.567 67.3801 22.5289 64.5082C25.425 61.6364 30.0653 60.2004 36.4499 60.2004C39.8067 60.2004 42.6699 60.7681 45.0395 61.9034C47.409 63.0388 49.2191 64.9756 50.4696 67.7139ZM28.9464 85.446L45.4344 85.446L45.4344 80.2366C45.4344 77.3647 44.8091 75.3611 43.5585 74.2258C42.2421 73.0903 40.1358 72.5227 37.2397 72.5227C34.212 72.5227 32.0728 73.0903 30.8223 74.2258C29.5717 75.3611 28.9464 77.3647 28.9464 80.2366L28.9464 85.446ZM75.3498 80.3369C75.3498 77.2646 74.6257 75.1608 73.1777 74.0254C71.6638 72.89 69.1297 72.3223 65.5754 72.3223C62.1528 72.3223 59.6845 72.9568 58.1706 74.2258C56.6568 75.4279 55.8998 77.465 55.8998 80.3369L55.8998 85.446L75.3498 85.446L75.3498 80.3369Z"/>
</mask>
<path d="M58.8618 741.767L58.8618 747.678L86.2102 747.678L86.2102 760L18.086 760L18.086 741.166C18.086 734.354 19.6986 729.545 22.9238 726.74C26.149 723.868 31.3159 722.432 38.4245 722.432C42.9661 722.432 46.7508 723.066 49.7786 724.335C52.8063 725.604 55.0771 727.675 56.591 730.547L86.2102 720.228L86.2102 733.051L58.8618 741.767ZM48.0014 747.678L48.0014 741.266C48.0014 738.795 47.2116 737.092 45.6319 736.157C43.9864 735.222 41.5839 734.754 38.4245 734.754C35.2652 734.754 32.8956 735.222 31.3159 736.157C29.7362 737.025 28.9464 738.728 28.9464 741.266L28.9464 747.678L48.0014 747.678Z" fill="white"/>
<path d="M72.9803 685.77L72.9803 701.899L86.2102 704.704L86.2102 717.527L18.086 699.795L18.086 687.773L86.2102 670.141L86.2102 682.964L72.9803 685.77ZM62.1199 687.974L34.4753 693.784L62.1199 699.595L62.1199 687.974Z" fill="white"/>
<path d="M87 646.95C87 652.894 85.3545 657.603 82.0635 661.076C78.7066 664.549 73.8359 666.285 67.4513 666.285L36.7461 666.285C30.2957 666.285 25.425 664.448 22.134 660.775C18.7771 657.102 17.0987 652.26 17.0987 646.249C17.0987 640.505 18.7442 635.863 22.0353 632.324C25.3263 628.784 30.3286 627.014 37.0423 627.014L39.1157 627.014L39.1157 639.336L37.141 639.336C34.0475 639.336 31.7767 640.004 30.3286 641.34C28.8148 642.609 28.0578 644.345 28.0578 646.549C28.0578 649.154 28.9464 651.057 30.7235 652.26C32.5007 653.395 35.1664 653.963 38.7207 653.963L66.0691 653.963C72.717 653.963 76.0409 651.492 76.0409 646.549C76.0409 644.345 75.284 642.609 73.7701 641.34C72.2562 640.004 70.0183 639.336 67.0564 639.336L65.2793 639.336L65.2793 627.114L67.1551 627.114C73.7372 627.114 78.7066 628.984 82.0635 632.724C85.3545 636.398 87 641.14 87 646.95Z" fill="white"/>
<path d="M18.086 618.621L18.086 606.399L86.2102 606.399L86.2102 618.621L18.086 618.621Z" fill="white"/>
<path d="M18.086 558.526L86.2102 558.526L86.2102 570.848L49.8773 585.274L86.2102 585.274L86.2102 597.597L18.086 597.597L18.086 585.274L55.9986 570.848L18.086 570.848L18.086 558.526Z" fill="white"/>
<path d="M87 531.213C87 537.157 85.3545 541.866 82.0635 545.339C78.7066 548.812 73.8359 550.548 67.4513 550.548L36.7461 550.548C30.2957 550.548 25.425 548.712 22.134 545.038C18.7771 541.365 17.0987 536.523 17.0987 530.512C17.0987 524.768 18.7113 520.126 21.9365 516.587C25.1617 513.047 29.9337 511.277 36.2525 511.277L38.3258 511.277L38.3258 523.599L36.2525 523.599C33.6196 523.599 31.6121 524.267 30.2299 525.603C28.7818 526.939 28.0578 528.675 28.0578 530.812C28.0578 533.417 28.9464 535.321 30.7235 536.523C32.5007 537.658 35.1664 538.226 38.7207 538.226L66.0691 538.226C72.717 538.226 76.0409 535.755 76.0409 530.812C76.0409 528.408 75.2511 526.605 73.6714 525.403C72.0258 524.2 69.6892 523.599 66.6615 523.599L59.4541 523.599L59.4541 530.913L49.8773 530.913L49.8773 511.277L67.4513 511.277C73.7701 511.277 78.6079 513.147 81.9647 516.887C85.3216 520.561 87 525.336 87 531.213Z" fill="white"/>
<path d="M87 469.243C87 475.321 85.2558 479.963 81.7673 483.168C78.2788 486.374 73.2764 488.01 66.7602 488.077L66.7602 476.456C70.1171 476.323 72.5853 475.655 74.165 474.453C75.7447 473.184 76.5345 471.347 76.5345 468.943C76.5345 466.538 75.8105 464.802 74.3625 463.733C72.9144 462.598 70.6107 462.03 67.4513 462.03C64.8185 462.03 62.7452 462.665 61.2313 463.934C59.6516 465.136 58.2036 467.206 56.8872 470.145L54.8138 474.853C52.8392 479.328 50.4038 482.567 47.5077 484.571C44.6116 486.508 40.7282 487.476 35.8575 487.476C30.1312 487.476 25.5566 485.807 22.134 482.467C18.7113 479.061 17 474.486 17 468.742C17 463.065 18.7113 458.691 22.134 455.619C25.4908 452.479 30.3615 450.81 36.7461 450.609L36.7461 461.93C33.6525 461.997 31.3488 462.564 29.835 463.633C28.2553 464.635 27.4654 466.338 27.4654 468.742C27.4654 473.217 30.0653 475.454 35.2651 475.454C37.6347 475.454 39.5435 474.92 40.9915 473.852C42.3738 472.716 43.6243 470.846 44.7433 468.241L46.7179 463.733C48.8242 458.924 51.457 455.452 54.6164 453.314C57.7757 451.11 61.9882 450.008 67.2539 450.008C73.5726 450.008 78.4433 451.678 81.866 455.017C85.2887 458.357 87 463.099 87 469.243Z" fill="white"/>
<path d="M87 424.183C87 430.128 85.3545 434.836 82.0635 438.309C78.7066 441.782 73.8359 443.518 67.4513 443.518L36.7461 443.518C30.2957 443.518 25.425 441.682 22.134 438.009C18.7771 434.335 17.0987 429.493 17.0987 423.482C17.0987 417.672 18.7771 413.03 22.134 409.557C25.425 406.017 30.2957 404.247 36.7461 404.247L67.4513 404.247C73.7701 404.247 78.6079 406.117 81.9647 409.858C85.3216 413.531 87 418.306 87 424.183ZM76.0409 423.783C76.0409 421.445 75.1852 419.675 73.4739 418.473C71.6967 417.204 69.2285 416.57 66.0691 416.57L38.7207 416.57C35.2322 416.57 32.5994 417.171 30.8223 418.373C28.9793 419.575 28.0578 421.378 28.0578 423.783C28.0578 426.388 28.9464 428.291 30.7235 429.493C32.5007 430.628 35.1664 431.196 38.7207 431.196L66.0691 431.196C72.717 431.196 76.0409 428.725 76.0409 423.783Z" fill="white"/>
<path d="M87 377.321C87 383.265 85.3545 387.974 82.0635 391.447C78.7066 394.92 73.8359 396.656 67.4513 396.656L36.7461 396.656C30.2957 396.656 25.425 394.82 22.134 391.146C18.7771 387.473 17.0987 382.631 17.0987 376.62C17.0987 370.876 18.7442 366.235 22.0352 362.695C25.3263 359.155 30.3286 357.385 37.0423 357.385L39.1156 357.385L39.1156 369.708L37.141 369.708C34.0475 369.708 31.7767 370.375 30.3286 371.711C28.8147 372.98 28.0578 374.717 28.0578 376.921C28.0578 379.525 28.9464 381.429 30.7235 382.631C32.5007 383.766 35.1664 384.334 38.7207 384.334L66.0691 384.334C72.717 384.334 76.0409 381.863 76.0409 376.921C76.0409 374.717 75.284 372.98 73.7701 371.711C72.2562 370.375 70.0183 369.708 67.0564 369.708L65.2792 369.708L65.2792 357.485L67.1551 357.485C73.7372 357.485 78.7066 359.355 82.0635 363.096C85.3545 366.769 87 371.511 87 377.321Z" fill="white"/>
<path d="M18.086 348.993L18.086 336.771L86.2101 336.771L86.2101 348.993L18.086 348.993Z" fill="white"/>
<path d="M72.9802 299.817L72.9802 315.946L86.2101 318.751L86.2101 331.574L18.086 313.842L18.086 301.821L86.2101 284.189L86.2101 297.012L72.9802 299.817ZM62.1199 302.021L34.4753 307.831L62.1199 313.642L62.1199 302.021Z" fill="white"/>
<path d="M18.086 279.345L18.086 267.022L75.3498 267.022L75.3498 248.489L86.2101 248.489L86.2101 279.345L18.086 279.345Z" fill="white"/>
<path d="M87 206.113C87 212.057 85.3545 216.766 82.0634 220.239C78.7066 223.711 73.8359 225.448 67.4513 225.448L36.7461 225.448C30.2957 225.448 25.425 223.611 22.134 219.938C18.7771 216.265 17.0987 211.423 17.0987 205.412C17.0987 199.668 18.7442 195.026 22.0352 191.486C25.3263 187.947 30.3286 186.177 37.0423 186.177L39.1156 186.177L39.1156 198.499L37.141 198.499C34.0475 198.499 31.7767 199.167 30.3286 200.503C28.8147 201.772 28.0578 203.508 28.0578 205.712C28.0578 208.317 28.9464 210.22 30.7235 211.423C32.5007 212.558 35.1664 213.126 38.7207 213.126L66.0691 213.126C72.7169 213.126 76.0409 210.655 76.0409 205.712C76.0409 203.508 75.2839 201.772 73.7701 200.503C72.2562 199.167 70.0183 198.499 67.0564 198.499L65.2792 198.499L65.2792 186.277L67.1551 186.277C73.7372 186.277 78.7066 188.147 82.0634 191.887C85.3545 195.561 87 200.302 87 206.113Z" fill="white"/>
<path d="M18.086 178.185L18.086 165.863L75.3498 165.863L75.3498 147.329L86.2101 147.329L86.2101 178.185L18.086 178.185Z" fill="white"/>
<path d="M87 124.914C87 128.52 86.243 131.759 84.7292 134.631C83.1495 137.436 80.9445 139.674 78.1142 141.343C75.2839 142.946 72.0258 143.748 68.3399 143.748L18.086 143.748L18.086 131.425L68.0437 131.425C70.8082 131.425 72.8486 130.891 74.165 129.823C75.4156 128.754 76.0409 127.118 76.0409 124.914C76.0409 120.572 73.3751 118.402 68.0437 118.402L18.086 118.402L18.086 106.08L68.3399 106.08C72.0258 106.08 75.2839 106.881 78.1142 108.484C80.9445 110.087 83.1495 112.324 84.7292 115.196C86.243 118.068 87 121.307 87 124.914Z" fill="white"/>
<path d="M50.4696 67.7139C51.7861 64.7085 53.7278 62.6715 56.2948 61.6029C58.8618 60.5343 62.2515 60.0001 66.464 60.0001C73.3751 60.0001 78.4104 61.436 81.5698 64.3078C84.6633 67.1797 86.2101 72.0552 86.2101 78.9343L86.2101 97.6682L18.086 97.6682L18.086 78.9343C18.086 72.1887 19.567 67.3801 22.5289 64.5082C25.425 61.6364 30.0653 60.2004 36.4499 60.2004C39.8067 60.2004 42.6699 60.7681 45.0395 61.9034C47.409 63.0388 49.2191 64.9756 50.4696 67.7139ZM28.9464 85.446L45.4344 85.446L45.4344 80.2366C45.4344 77.3647 44.8091 75.3611 43.5585 74.2258C42.2421 73.0903 40.1358 72.5227 37.2397 72.5227C34.212 72.5227 32.0728 73.0903 30.8223 74.2258C29.5717 75.3611 28.9464 77.3647 28.9464 80.2366L28.9464 85.446ZM75.3498 80.3369C75.3498 77.2646 74.6257 75.1608 73.1777 74.0254C71.6638 72.89 69.1297 72.3223 65.5754 72.3223C62.1528 72.3223 59.6845 72.9568 58.1706 74.2258C56.6568 75.4279 55.8998 77.465 55.8998 80.3369L55.8998 85.446L75.3498 85.446L75.3498 80.3369Z" fill="white"/>
<path d="M58.8618 741.767L58.8618 747.678L86.2102 747.678L86.2102 760L18.086 760L18.086 741.166C18.086 734.354 19.6986 729.545 22.9238 726.74C26.149 723.868 31.3159 722.432 38.4245 722.432C42.9661 722.432 46.7508 723.066 49.7786 724.335C52.8063 725.604 55.0771 727.675 56.591 730.547L86.2102 720.228L86.2102 733.051L58.8618 741.767ZM48.0014 747.678L48.0014 741.266C48.0014 738.795 47.2116 737.092 45.6319 736.157C43.9864 735.222 41.5839 734.754 38.4245 734.754C35.2652 734.754 32.8956 735.222 31.3159 736.157C29.7362 737.025 28.9464 738.728 28.9464 741.266L28.9464 747.678L48.0014 747.678Z" stroke="black" stroke-width="2" mask="url(#path-4-outside-1_1169_1277)"/>
<path d="M72.9803 685.77L72.9803 701.899L86.2102 704.704L86.2102 717.527L18.086 699.795L18.086 687.773L86.2102 670.141L86.2102 682.964L72.9803 685.77ZM62.1199 687.974L34.4753 693.784L62.1199 699.595L62.1199 687.974Z" stroke="black" stroke-width="2" mask="url(#path-4-outside-1_1169_1277)"/>
<path d="M87 646.95C87 652.894 85.3545 657.603 82.0635 661.076C78.7066 664.549 73.8359 666.285 67.4513 666.285L36.7461 666.285C30.2957 666.285 25.425 664.448 22.134 660.775C18.7771 657.102 17.0987 652.26 17.0987 646.249C17.0987 640.505 18.7442 635.863 22.0353 632.324C25.3263 628.784 30.3286 627.014 37.0423 627.014L39.1157 627.014L39.1157 639.336L37.141 639.336C34.0475 639.336 31.7767 640.004 30.3286 641.34C28.8148 642.609 28.0578 644.345 28.0578 646.549C28.0578 649.154 28.9464 651.057 30.7235 652.26C32.5007 653.395 35.1664 653.963 38.7207 653.963L66.0691 653.963C72.717 653.963 76.0409 651.492 76.0409 646.549C76.0409 644.345 75.284 642.609 73.7701 641.34C72.2562 640.004 70.0183 639.336 67.0564 639.336L65.2793 639.336L65.2793 627.114L67.1551 627.114C73.7372 627.114 78.7066 628.984 82.0635 632.724C85.3545 636.398 87 641.14 87 646.95Z" stroke="black" stroke-width="2" mask="url(#path-4-outside-1_1169_1277)"/>
<path d="M18.086 618.621L18.086 606.399L86.2102 606.399L86.2102 618.621L18.086 618.621Z" stroke="black" stroke-width="2" mask="url(#path-4-outside-1_1169_1277)"/>
<path d="M18.086 558.526L86.2102 558.526L86.2102 570.848L49.8773 585.274L86.2102 585.274L86.2102 597.597L18.086 597.597L18.086 585.274L55.9986 570.848L18.086 570.848L18.086 558.526Z" stroke="black" stroke-width="2" mask="url(#path-4-outside-1_1169_1277)"/>
<path d="M87 531.213C87 537.157 85.3545 541.866 82.0635 545.339C78.7066 548.812 73.8359 550.548 67.4513 550.548L36.7461 550.548C30.2957 550.548 25.425 548.712 22.134 545.038C18.7771 541.365 17.0987 536.523 17.0987 530.512C17.0987 524.768 18.7113 520.126 21.9365 516.587C25.1617 513.047 29.9337 511.277 36.2525 511.277L38.3258 511.277L38.3258 523.599L36.2525 523.599C33.6196 523.599 31.6121 524.267 30.2299 525.603C28.7818 526.939 28.0578 528.675 28.0578 530.812C28.0578 533.417 28.9464 535.321 30.7235 536.523C32.5007 537.658 35.1664 538.226 38.7207 538.226L66.0691 538.226C72.717 538.226 76.0409 535.755 76.0409 530.812C76.0409 528.408 75.2511 526.605 73.6714 525.403C72.0258 524.2 69.6892 523.599 66.6615 523.599L59.4541 523.599L59.4541 530.913L49.8773 530.913L49.8773 511.277L67.4513 511.277C73.7701 511.277 78.6079 513.147 81.9647 516.887C85.3216 520.561 87 525.336 87 531.213Z" stroke="black" stroke-width="2" mask="url(#path-4-outside-1_1169_1277)"/>
<path d="M87 469.243C87 475.321 85.2558 479.963 81.7673 483.168C78.2788 486.374 73.2764 488.01 66.7602 488.077L66.7602 476.456C70.1171 476.323 72.5853 475.655 74.165 474.453C75.7447 473.184 76.5345 471.347 76.5345 468.943C76.5345 466.538 75.8105 464.802 74.3625 463.733C72.9144 462.598 70.6107 462.03 67.4513 462.03C64.8185 462.03 62.7452 462.665 61.2313 463.934C59.6516 465.136 58.2036 467.206 56.8872 470.145L54.8138 474.853C52.8392 479.328 50.4038 482.567 47.5077 484.571C44.6116 486.508 40.7282 487.476 35.8575 487.476C30.1312 487.476 25.5566 485.807 22.134 482.467C18.7113 479.061 17 474.486 17 468.742C17 463.065 18.7113 458.691 22.134 455.619C25.4908 452.479 30.3615 450.81 36.7461 450.609L36.7461 461.93C33.6525 461.997 31.3488 462.564 29.835 463.633C28.2553 464.635 27.4654 466.338 27.4654 468.742C27.4654 473.217 30.0653 475.454 35.2651 475.454C37.6347 475.454 39.5435 474.92 40.9915 473.852C42.3738 472.716 43.6243 470.846 44.7433 468.241L46.7179 463.733C48.8242 458.924 51.457 455.452 54.6164 453.314C57.7757 451.11 61.9882 450.008 67.2539 450.008C73.5726 450.008 78.4433 451.678 81.866 455.017C85.2887 458.357 87 463.099 87 469.243Z" stroke="black" stroke-width="2" mask="url(#path-4-outside-1_1169_1277)"/>
<path d="M87 424.183C87 430.128 85.3545 434.836 82.0635 438.309C78.7066 441.782 73.8359 443.518 67.4513 443.518L36.7461 443.518C30.2957 443.518 25.425 441.682 22.134 438.009C18.7771 434.335 17.0987 429.493 17.0987 423.482C17.0987 417.672 18.7771 413.03 22.134 409.557C25.425 406.017 30.2957 404.247 36.7461 404.247L67.4513 404.247C73.7701 404.247 78.6079 406.117 81.9647 409.858C85.3216 413.531 87 418.306 87 424.183ZM76.0409 423.783C76.0409 421.445 75.1852 419.675 73.4739 418.473C71.6967 417.204 69.2285 416.57 66.0691 416.57L38.7207 416.57C35.2322 416.57 32.5994 417.171 30.8223 418.373C28.9793 419.575 28.0578 421.378 28.0578 423.783C28.0578 426.388 28.9464 428.291 30.7235 429.493C32.5007 430.628 35.1664 431.196 38.7207 431.196L66.0691 431.196C72.717 431.196 76.0409 428.725 76.0409 423.783Z" stroke="black" stroke-width="2" mask="url(#path-4-outside-1_1169_1277)"/>
<path d="M87 377.321C87 383.265 85.3545 387.974 82.0635 391.447C78.7066 394.92 73.8359 396.656 67.4513 396.656L36.7461 396.656C30.2957 396.656 25.425 394.82 22.134 391.146C18.7771 387.473 17.0987 382.631 17.0987 376.62C17.0987 370.876 18.7442 366.235 22.0352 362.695C25.3263 359.155 30.3286 357.385 37.0423 357.385L39.1156 357.385L39.1156 369.708L37.141 369.708C34.0475 369.708 31.7767 370.375 30.3286 371.711C28.8147 372.98 28.0578 374.717 28.0578 376.921C28.0578 379.525 28.9464 381.429 30.7235 382.631C32.5007 383.766 35.1664 384.334 38.7207 384.334L66.0691 384.334C72.717 384.334 76.0409 381.863 76.0409 376.921C76.0409 374.717 75.284 372.98 73.7701 371.711C72.2562 370.375 70.0183 369.708 67.0564 369.708L65.2792 369.708L65.2792 357.485L67.1551 357.485C73.7372 357.485 78.7066 359.355 82.0635 363.096C85.3545 366.769 87 371.511 87 377.321Z" stroke="black" stroke-width="2" mask="url(#path-4-outside-1_1169_1277)"/>
<path d="M18.086 348.993L18.086 336.771L86.2101 336.771L86.2101 348.993L18.086 348.993Z" stroke="black" stroke-width="2" mask="url(#path-4-outside-1_1169_1277)"/>
<path d="M72.9802 299.817L72.9802 315.946L86.2101 318.751L86.2101 331.574L18.086 313.842L18.086 301.821L86.2101 284.189L86.2101 297.012L72.9802 299.817ZM62.1199 302.021L34.4753 307.831L62.1199 313.642L62.1199 302.021Z" stroke="black" stroke-width="2" mask="url(#path-4-outside-1_1169_1277)"/>
<path d="M18.086 279.345L18.086 267.022L75.3498 267.022L75.3498 248.489L86.2101 248.489L86.2101 279.345L18.086 279.345Z" stroke="black" stroke-width="2" mask="url(#path-4-outside-1_1169_1277)"/>
<path d="M87 206.113C87 212.057 85.3545 216.766 82.0634 220.239C78.7066 223.711 73.8359 225.448 67.4513 225.448L36.7461 225.448C30.2957 225.448 25.425 223.611 22.134 219.938C18.7771 216.265 17.0987 211.423 17.0987 205.412C17.0987 199.668 18.7442 195.026 22.0352 191.486C25.3263 187.947 30.3286 186.177 37.0423 186.177L39.1156 186.177L39.1156 198.499L37.141 198.499C34.0475 198.499 31.7767 199.167 30.3286 200.503C28.8147 201.772 28.0578 203.508 28.0578 205.712C28.0578 208.317 28.9464 210.22 30.7235 211.423C32.5007 212.558 35.1664 213.126 38.7207 213.126L66.0691 213.126C72.7169 213.126 76.0409 210.655 76.0409 205.712C76.0409 203.508 75.2839 201.772 73.7701 200.503C72.2562 199.167 70.0183 198.499 67.0564 198.499L65.2792 198.499L65.2792 186.277L67.1551 186.277C73.7372 186.277 78.7066 188.147 82.0634 191.887C85.3545 195.561 87 200.302 87 206.113Z" stroke="black" stroke-width="2" mask="url(#path-4-outside-1_1169_1277)"/>
<path d="M18.086 178.185L18.086 165.863L75.3498 165.863L75.3498 147.329L86.2101 147.329L86.2101 178.185L18.086 178.185Z" stroke="black" stroke-width="2" mask="url(#path-4-outside-1_1169_1277)"/>
<path d="M87 124.914C87 128.52 86.243 131.759 84.7292 134.631C83.1495 137.436 80.9445 139.674 78.1142 141.343C75.2839 142.946 72.0258 143.748 68.3399 143.748L18.086 143.748L18.086 131.425L68.0437 131.425C70.8082 131.425 72.8486 130.891 74.165 129.823C75.4156 128.754 76.0409 127.118 76.0409 124.914C76.0409 120.572 73.3751 118.402 68.0437 118.402L18.086 118.402L18.086 106.08L68.3399 106.08C72.0258 106.08 75.2839 106.881 78.1142 108.484C80.9445 110.087 83.1495 112.324 84.7292 115.196C86.243 118.068 87 121.307 87 124.914Z" stroke="black" stroke-width="2" mask="url(#path-4-outside-1_1169_1277)"/>
<path d="M50.4696 67.7139C51.7861 64.7085 53.7278 62.6715 56.2948 61.6029C58.8618 60.5343 62.2515 60.0001 66.464 60.0001C73.3751 60.0001 78.4104 61.436 81.5698 64.3078C84.6633 67.1797 86.2101 72.0552 86.2101 78.9343L86.2101 97.6682L18.086 97.6682L18.086 78.9343C18.086 72.1887 19.567 67.3801 22.5289 64.5082C25.425 61.6364 30.0653 60.2004 36.4499 60.2004C39.8067 60.2004 42.6699 60.7681 45.0395 61.9034C47.409 63.0388 49.2191 64.9756 50.4696 67.7139ZM28.9464 85.446L45.4344 85.446L45.4344 80.2366C45.4344 77.3647 44.8091 75.3611 43.5585 74.2258C42.2421 73.0903 40.1358 72.5227 37.2397 72.5227C34.212 72.5227 32.0728 73.0903 30.8223 74.2258C29.5717 75.3611 28.9464 77.3647 28.9464 80.2366L28.9464 85.446ZM75.3498 80.3369C75.3498 77.2646 74.6257 75.1608 73.1777 74.0254C71.6638 72.89 69.1297 72.3223 65.5754 72.3223C62.1528 72.3223 59.6845 72.9568 58.1706 74.2258C56.6568 75.4279 55.8998 77.465 55.8998 80.3369L55.8998 85.446L75.3498 85.446L75.3498 80.3369Z" stroke="black" stroke-width="2" mask="url(#path-4-outside-1_1169_1277)"/>
<defs>
<filter id="filter0_f_1169_1277" x="24" y="0" width="56" height="56" filterUnits="userSpaceOnUse" color-interpolation-filters="sRGB">
<feFlood flood-opacity="0" result="BackgroundImageFix"/>
<feBlend mode="normal" in="SourceGraphic" in2="BackgroundImageFix" result="shape"/>
<feGaussianBlur stdDeviation="10" result="effect1_foregroundBlur_1169_1277"/>
</filter>
<filter id="filter1_f_1169_1277" x="0" y="43" width="104" height="734" filterUnits="userSpaceOnUse" color-interpolation-filters="sRGB">
<feFlood flood-opacity="0" result="BackgroundImageFix"/>
<feBlend mode="normal" in="SourceGraphic" in2="BackgroundImageFix" result="shape"/>
<feGaussianBlur stdDeviation="8.5" result="effect1_foregroundBlur_1169_1277"/>
</filter>
</defs>
</svg>
