<svg width="171" height="840" viewBox="0 0 171 840" fill="none" xmlns="http://www.w3.org/2000/svg">
<rect y="839.002" width="841" height="20" transform="rotate(-90 0 839.002)" fill="url(#paint0_linear_1059_1003)"/>
<rect x="151" y="839.002" width="841" height="20" transform="rotate(-90 151 839.002)" fill="url(#paint1_linear_1059_1003)"/>
<g clip-path="url(#clip0_1059_1003)">
<rect width="131" height="839" transform="translate(19.9883)" fill="white"/>
<path d="M218.566 266.208L218.566 0L19.9877 -8.68015e-06L19.9877 266.208L218.566 266.208Z" fill="white"/>
<path d="M218.566 16.6411L218.566 0L202.019 -7.23321e-07L202.019 16.6411L218.566 16.6411Z" fill="black"/>
<path d="M218.566 49.925L218.566 33.2839L202.019 33.2839L202.019 49.925L218.566 49.925Z" fill="black"/>
<path d="M218.566 83.2071L218.566 66.5661L202.019 66.5661L202.019 83.2071L218.566 83.2071Z" fill="black"/>
<path d="M218.566 116.491L218.566 99.85L202.019 99.85L202.019 116.491L218.566 116.491Z" fill="black"/>
<path d="M218.566 149.775L218.566 133.134L202.019 133.134L202.019 149.775L218.566 149.775Z" fill="black"/>
<path d="M218.566 183.057L218.566 166.416L202.019 166.416L202.019 183.057L218.566 183.057Z" fill="black"/>
<path d="M218.566 216.341L218.566 199.7L202.019 199.7L202.019 216.341L218.566 216.341Z" fill="black"/>
<path d="M218.566 249.625L218.566 232.984L202.019 232.984L202.019 249.625L218.566 249.625Z" fill="black"/>
<path d="M202.019 33.2822L202.019 16.6411L185.471 16.6411L185.471 33.2822L202.019 33.2822Z" fill="black"/>
<path d="M202.019 66.5661L202.019 49.925L185.471 49.925L185.471 66.5661L202.019 66.5661Z" fill="black"/>
<path d="M202.019 99.85L202.019 83.2089L185.471 83.2089L185.471 99.85L202.019 99.85Z" fill="black"/>
<path d="M202.019 133.132L202.019 116.491L185.471 116.491L185.471 133.132L202.019 133.132Z" fill="black"/>
<path d="M202.019 166.416L202.019 149.775L185.471 149.775L185.471 166.416L202.019 166.416Z" fill="black"/>
<path d="M202.019 199.7L202.019 183.059L185.471 183.059L185.471 199.7L202.019 199.7Z" fill="black"/>
<path d="M202.019 232.982L202.019 216.341L185.471 216.341L185.471 232.982L202.019 232.982Z" fill="black"/>
<path d="M202.019 266.266L202.019 249.625L185.471 249.625L185.471 266.266L202.019 266.266Z" fill="black"/>
<path d="M185.469 16.6411L185.469 -1.44672e-06L168.922 -2.17004e-06L168.922 16.6411L185.469 16.6411Z" fill="black"/>
<path d="M185.469 49.925L185.469 33.2839L168.922 33.2839L168.922 49.925L185.469 49.925Z" fill="black"/>
<path d="M185.469 83.2071L185.469 66.5661L168.922 66.5661L168.922 83.2071L185.469 83.2071Z" fill="black"/>
<path d="M185.469 116.491L185.469 99.85L168.922 99.85L168.922 116.491L185.469 116.491Z" fill="black"/>
<path d="M185.469 149.775L185.469 133.134L168.922 133.134L168.922 149.775L185.469 149.775Z" fill="black"/>
<path d="M185.469 183.057L185.469 166.416L168.922 166.416L168.922 183.057L185.469 183.057Z" fill="black"/>
<path d="M185.469 216.341L185.469 199.7L168.922 199.7L168.922 216.341L185.469 216.341Z" fill="black"/>
<path d="M185.469 249.625L185.469 232.984L168.922 232.984L168.922 249.625L185.469 249.625Z" fill="black"/>
<path d="M168.922 33.2822L168.922 16.6411L152.374 16.6411L152.374 33.2822L168.922 33.2822Z" fill="black"/>
<path d="M168.922 66.5661L168.922 49.925L152.374 49.925L152.374 66.5661L168.922 66.5661Z" fill="black"/>
<path d="M168.922 99.85L168.922 83.2089L152.374 83.2089L152.374 99.85L168.922 99.85Z" fill="black"/>
<path d="M168.922 133.132L168.922 116.491L152.374 116.491L152.374 133.132L168.922 133.132Z" fill="black"/>
<path d="M168.922 166.416L168.922 149.775L152.374 149.775L152.374 166.416L168.922 166.416Z" fill="black"/>
<path d="M168.922 199.7L168.922 183.059L152.374 183.059L152.374 199.7L168.922 199.7Z" fill="black"/>
<path d="M168.922 232.982L168.922 216.341L152.374 216.341L152.374 232.982L168.922 232.982Z" fill="black"/>
<path d="M168.922 266.266L168.922 249.625L152.374 249.625L152.374 266.266L168.922 266.266Z" fill="black"/>
<path d="M152.374 16.6411L152.374 -2.89336e-06L135.826 -3.61668e-06L135.826 16.6411L152.374 16.6411Z" fill="black"/>
<path d="M152.374 49.925L152.374 33.2839L135.826 33.2839L135.826 49.925L152.374 49.925Z" fill="black"/>
<path d="M152.374 83.2071L152.374 66.5661L135.826 66.5661L135.826 83.2071L152.374 83.2071Z" fill="black"/>
<path d="M152.374 116.491L152.374 99.85L135.826 99.85L135.826 116.491L152.374 116.491Z" fill="black"/>
<path d="M152.374 149.775L152.374 133.134L135.826 133.134L135.826 149.775L152.374 149.775Z" fill="black"/>
<path d="M152.374 183.057L152.374 166.416L135.826 166.416L135.826 183.057L152.374 183.057Z" fill="black"/>
<path d="M152.374 216.341L152.374 199.7L135.826 199.7L135.826 216.341L152.374 216.341Z" fill="black"/>
<path d="M152.374 249.625L152.374 232.984L135.826 232.984L135.826 249.625L152.374 249.625Z" fill="black"/>
<path d="M135.825 33.2822L135.825 16.6411L119.277 16.6411L119.277 33.2822L135.825 33.2822Z" fill="black"/>
<path d="M135.825 66.5661L135.825 49.925L119.277 49.925L119.277 66.5661L135.825 66.5661Z" fill="black"/>
<path d="M135.825 99.85L135.825 83.2089L119.277 83.2089L119.277 99.85L135.825 99.85Z" fill="black"/>
<path d="M135.825 133.132L135.825 116.491L119.277 116.491L119.277 133.132L135.825 133.132Z" fill="black"/>
<path d="M135.825 166.416L135.825 149.775L119.277 149.775L119.277 166.416L135.825 166.416Z" fill="black"/>
<path d="M135.825 199.7L135.825 183.059L119.277 183.059L119.277 199.7L135.825 199.7Z" fill="black"/>
<path d="M135.825 232.982L135.825 216.341L119.277 216.341L119.277 232.982L135.825 232.982Z" fill="black"/>
<path d="M135.825 266.266L135.825 249.625L119.277 249.625L119.277 266.266L135.825 266.266Z" fill="black"/>
<path d="M119.277 16.6411L119.277 -4.34008e-06L102.729 -5.0634e-06L102.729 16.6411L119.277 16.6411Z" fill="black"/>
<path d="M119.277 49.925L119.277 33.2839L102.729 33.2839L102.729 49.925L119.277 49.925Z" fill="black"/>
<path d="M119.277 83.2071L119.277 66.5661L102.729 66.5661L102.729 83.2071L119.277 83.2071Z" fill="black"/>
<path d="M119.277 116.491L119.277 99.85L102.729 99.85L102.729 116.491L119.277 116.491Z" fill="black"/>
<path d="M119.277 149.775L119.277 133.134L102.729 133.134L102.729 149.775L119.277 149.775Z" fill="black"/>
<path d="M119.277 183.057L119.277 166.416L102.729 166.416L102.729 183.057L119.277 183.057Z" fill="black"/>
<path d="M119.277 216.341L119.277 199.7L102.729 199.7L102.729 216.341L119.277 216.341Z" fill="black"/>
<path d="M119.277 249.625L119.277 232.984L102.729 232.984L102.729 249.625L119.277 249.625Z" fill="black"/>
<path d="M102.729 33.2822L102.729 16.6411L86.1818 16.6411L86.1818 33.2822L102.729 33.2822Z" fill="black"/>
<path d="M102.729 66.5661L102.729 49.925L86.1818 49.925L86.1818 66.5661L102.729 66.5661Z" fill="black"/>
<path d="M102.729 99.85L102.729 83.2089L86.1818 83.2089L86.1818 99.85L102.729 99.85Z" fill="black"/>
<path d="M102.729 133.132L102.729 116.491L86.1818 116.491L86.1818 133.132L102.729 133.132Z" fill="black"/>
<path d="M102.729 166.416L102.729 149.775L86.1818 149.775L86.1818 166.416L102.729 166.416Z" fill="black"/>
<path d="M102.729 199.7L102.729 183.059L86.1818 183.059L86.1818 199.7L102.729 199.7Z" fill="black"/>
<path d="M102.729 232.982L102.729 216.341L86.1818 216.341L86.1818 232.982L102.729 232.982Z" fill="black"/>
<path d="M102.729 266.266L102.729 249.625L86.1818 249.625L86.1818 266.266L102.729 266.266Z" fill="black"/>
<path d="M86.18 16.6411L86.18 -5.78679e-06L69.6324 -6.51011e-06L69.6324 16.6411L86.18 16.6411Z" fill="black"/>
<path d="M86.18 49.925L86.18 33.2839L69.6324 33.2839L69.6324 49.925L86.18 49.925Z" fill="black"/>
<path d="M86.18 83.2071L86.18 66.5661L69.6324 66.5661L69.6324 83.2071L86.18 83.2071Z" fill="black"/>
<path d="M86.18 116.491L86.18 99.85L69.6324 99.85L69.6324 116.491L86.18 116.491Z" fill="black"/>
<path d="M86.18 149.775L86.18 133.134L69.6324 133.134L69.6324 149.775L86.18 149.775Z" fill="black"/>
<path d="M86.18 183.057L86.18 166.416L69.6324 166.416L69.6324 183.057L86.18 183.057Z" fill="black"/>
<path d="M86.18 216.341L86.18 199.7L69.6324 199.7L69.6324 216.341L86.18 216.341Z" fill="black"/>
<path d="M86.18 249.625L86.18 232.984L69.6324 232.984L69.6324 249.625L86.18 249.625Z" fill="black"/>
<path d="M69.6324 33.2822L69.6324 16.6411L53.0847 16.6411L53.0847 33.2822L69.6324 33.2822Z" fill="black"/>
<path d="M69.6324 66.5661L69.6324 49.925L53.0847 49.925L53.0847 66.5661L69.6324 66.5661Z" fill="black"/>
<path d="M69.6324 99.85L69.6324 83.2089L53.0847 83.2089L53.0847 99.85L69.6324 99.85Z" fill="black"/>
<path d="M69.6324 133.132L69.6324 116.491L53.0847 116.491L53.0847 133.132L69.6324 133.132Z" fill="black"/>
<path d="M69.6324 166.416L69.6324 149.775L53.0847 149.775L53.0847 166.416L69.6324 166.416Z" fill="black"/>
<path d="M69.6324 199.7L69.6324 183.059L53.0847 183.059L53.0847 199.7L69.6324 199.7Z" fill="black"/>
<path d="M69.6324 232.982L69.6324 216.341L53.0847 216.341L53.0847 232.982L69.6324 232.982Z" fill="black"/>
<path d="M69.6324 266.266L69.6324 249.625L53.0847 249.625L53.0847 266.266L69.6324 266.266Z" fill="black"/>
<path d="M53.0847 16.6411L53.0847 -7.23343e-06L36.5371 -7.95676e-06L36.5371 16.6411L53.0847 16.6411Z" fill="black"/>
<path d="M53.0847 49.925L53.0847 33.2839L36.5371 33.2839L36.5371 49.925L53.0847 49.925Z" fill="black"/>
<path d="M53.0847 83.2071L53.0847 66.5661L36.5371 66.5661L36.5371 83.2071L53.0847 83.2071Z" fill="black"/>
<path d="M53.0847 116.491L53.0847 99.85L36.5371 99.85L36.5371 116.491L53.0847 116.491Z" fill="black"/>
<path d="M53.0847 149.775L53.0847 133.134L36.5371 133.134L36.5371 149.775L53.0847 149.775Z" fill="black"/>
<path d="M53.0847 183.057L53.0847 166.416L36.5371 166.416L36.5371 183.057L53.0847 183.057Z" fill="black"/>
<path d="M53.0847 216.341L53.0847 199.7L36.5371 199.7L36.5371 216.341L53.0847 216.341Z" fill="black"/>
<path d="M53.0847 249.625L53.0847 232.984L36.5371 232.984L36.5371 249.625L53.0847 249.625Z" fill="black"/>
<path d="M36.5353 33.2821L36.5353 16.6411L19.9877 16.6411L19.9877 33.2821L36.5353 33.2821Z" fill="black"/>
<path d="M36.5353 66.5661L36.5353 49.925L19.9877 49.925L19.9877 66.5661L36.5353 66.5661Z" fill="black"/>
<path d="M36.5353 99.85L36.5353 83.2089L19.9877 83.2089L19.9877 99.85L36.5353 99.85Z" fill="black"/>
<path d="M36.5353 133.132L36.5353 116.491L19.9877 116.491L19.9877 133.132L36.5353 133.132Z" fill="black"/>
<path d="M36.5353 166.416L36.5353 149.775L19.9877 149.775L19.9877 166.416L36.5353 166.416Z" fill="black"/>
<path d="M36.5353 199.7L36.5353 183.059L19.9877 183.059L19.9877 199.7L36.5353 199.7Z" fill="black"/>
<path d="M36.5353 232.982L36.5353 216.341L19.9877 216.341L19.9877 232.982L36.5353 232.982Z" fill="black"/>
<path d="M36.5353 266.266L36.5353 249.625L19.9877 249.625L19.9877 266.266L36.5353 266.266Z" fill="black"/>
<path d="M218.566 532.474L218.566 266.266L19.9877 266.266L19.9877 532.474L218.566 532.474Z" fill="white"/>
<path d="M218.566 282.907L218.566 266.266L202.019 266.266L202.019 282.907L218.566 282.907Z" fill="black"/>
<path d="M218.566 316.191L218.566 299.55L202.019 299.55L202.019 316.191L218.566 316.191Z" fill="black"/>
<path d="M218.566 349.473L218.566 332.832L202.019 332.832L202.019 349.473L218.566 349.473Z" fill="black"/>
<path d="M218.566 382.757L218.566 366.116L202.019 366.116L202.019 382.757L218.566 382.757Z" fill="black"/>
<path d="M218.566 416.041L218.566 399.4L202.019 399.4L202.019 416.041L218.566 416.041Z" fill="black"/>
<path d="M218.566 449.323L218.566 432.682L202.019 432.682L202.019 449.323L218.566 449.323Z" fill="black"/>
<path d="M218.566 482.607L218.566 465.966L202.019 465.966L202.019 482.607L218.566 482.607Z" fill="black"/>
<path d="M218.566 515.891L218.566 499.25L202.019 499.25L202.019 515.891L218.566 515.891Z" fill="black"/>
<path d="M202.019 299.548L202.019 282.907L185.471 282.907L185.471 299.548L202.019 299.548Z" fill="black"/>
<path d="M202.019 332.832L202.019 316.191L185.471 316.191L185.471 332.832L202.019 332.832Z" fill="black"/>
<path d="M202.019 366.116L202.019 349.475L185.471 349.475L185.471 366.116L202.019 366.116Z" fill="black"/>
<path d="M202.019 399.398L202.019 382.757L185.471 382.757L185.471 399.398L202.019 399.398Z" fill="black"/>
<path d="M202.019 432.682L202.019 416.041L185.471 416.041L185.471 432.682L202.019 432.682Z" fill="black"/>
<path d="M202.019 465.966L202.019 449.325L185.471 449.325L185.471 465.966L202.019 465.966Z" fill="black"/>
<path d="M202.019 499.248L202.019 482.607L185.471 482.607L185.471 499.248L202.019 499.248Z" fill="black"/>
<path d="M202.019 532.532L202.019 515.891L185.471 515.891L185.471 532.532L202.019 532.532Z" fill="black"/>
<path d="M185.469 282.907L185.469 266.266L168.922 266.266L168.922 282.907L185.469 282.907Z" fill="black"/>
<path d="M185.469 316.191L185.469 299.55L168.922 299.55L168.922 316.191L185.469 316.191Z" fill="black"/>
<path d="M185.469 349.473L185.469 332.832L168.922 332.832L168.922 349.473L185.469 349.473Z" fill="black"/>
<path d="M185.469 382.757L185.469 366.116L168.922 366.116L168.922 382.757L185.469 382.757Z" fill="black"/>
<path d="M185.469 416.041L185.469 399.4L168.922 399.4L168.922 416.041L185.469 416.041Z" fill="black"/>
<path d="M185.469 449.323L185.469 432.682L168.922 432.682L168.922 449.323L185.469 449.323Z" fill="black"/>
<path d="M185.469 482.607L185.469 465.966L168.922 465.966L168.922 482.607L185.469 482.607Z" fill="black"/>
<path d="M185.469 515.891L185.469 499.25L168.922 499.25L168.922 515.891L185.469 515.891Z" fill="black"/>
<path d="M168.922 299.548L168.922 282.907L152.374 282.907L152.374 299.548L168.922 299.548Z" fill="black"/>
<path d="M168.922 332.832L168.922 316.191L152.374 316.191L152.374 332.832L168.922 332.832Z" fill="black"/>
<path d="M168.922 366.116L168.922 349.475L152.374 349.475L152.374 366.116L168.922 366.116Z" fill="black"/>
<path d="M168.922 399.398L168.922 382.757L152.374 382.757L152.374 399.398L168.922 399.398Z" fill="black"/>
<path d="M168.922 432.682L168.922 416.041L152.374 416.041L152.374 432.682L168.922 432.682Z" fill="black"/>
<path d="M168.922 465.966L168.922 449.325L152.374 449.325L152.374 465.966L168.922 465.966Z" fill="black"/>
<path d="M168.922 499.248L168.922 482.607L152.374 482.607L152.374 499.248L168.922 499.248Z" fill="black"/>
<path d="M168.922 532.532L168.922 515.891L152.374 515.891L152.374 532.532L168.922 532.532Z" fill="black"/>
<path d="M152.374 282.907L152.374 266.266L135.826 266.266L135.826 282.907L152.374 282.907Z" fill="black"/>
<path d="M152.374 316.191L152.374 299.55L135.826 299.55L135.826 316.191L152.374 316.191Z" fill="black"/>
<path d="M152.374 349.473L152.374 332.832L135.826 332.832L135.826 349.473L152.374 349.473Z" fill="black"/>
<path d="M152.374 382.757L152.374 366.116L135.826 366.116L135.826 382.757L152.374 382.757Z" fill="black"/>
<path d="M152.374 416.041L152.374 399.4L135.826 399.4L135.826 416.041L152.374 416.041Z" fill="black"/>
<path d="M152.374 449.323L152.374 432.682L135.826 432.682L135.826 449.323L152.374 449.323Z" fill="black"/>
<path d="M152.374 482.607L152.374 465.966L135.826 465.966L135.826 482.607L152.374 482.607Z" fill="black"/>
<path d="M152.374 515.891L152.374 499.25L135.826 499.25L135.826 515.891L152.374 515.891Z" fill="black"/>
<path d="M135.825 299.548L135.825 282.907L119.277 282.907L119.277 299.548L135.825 299.548Z" fill="black"/>
<path d="M135.825 332.832L135.825 316.191L119.277 316.191L119.277 332.832L135.825 332.832Z" fill="black"/>
<path d="M135.825 366.116L135.825 349.475L119.277 349.475L119.277 366.116L135.825 366.116Z" fill="black"/>
<path d="M135.825 399.398L135.825 382.757L119.277 382.757L119.277 399.398L135.825 399.398Z" fill="black"/>
<path d="M135.825 432.682L135.825 416.041L119.277 416.041L119.277 432.682L135.825 432.682Z" fill="black"/>
<path d="M135.825 465.966L135.825 449.325L119.277 449.325L119.277 465.966L135.825 465.966Z" fill="black"/>
<path d="M135.825 499.248L135.825 482.607L119.277 482.607L119.277 499.248L135.825 499.248Z" fill="black"/>
<path d="M135.825 532.532L135.825 515.891L119.277 515.891L119.277 532.532L135.825 532.532Z" fill="black"/>
<path d="M119.277 282.907L119.277 266.266L102.729 266.266L102.729 282.907L119.277 282.907Z" fill="black"/>
<path d="M119.277 316.191L119.277 299.55L102.729 299.55L102.729 316.191L119.277 316.191Z" fill="black"/>
<path d="M119.277 349.473L119.277 332.832L102.729 332.832L102.729 349.473L119.277 349.473Z" fill="black"/>
<path d="M119.277 382.757L119.277 366.116L102.729 366.116L102.729 382.757L119.277 382.757Z" fill="black"/>
<path d="M119.277 416.041L119.277 399.4L102.729 399.4L102.729 416.041L119.277 416.041Z" fill="black"/>
<path d="M119.277 449.323L119.277 432.682L102.729 432.682L102.729 449.323L119.277 449.323Z" fill="black"/>
<path d="M119.277 482.607L119.277 465.966L102.729 465.966L102.729 482.607L119.277 482.607Z" fill="black"/>
<path d="M119.277 515.891L119.277 499.25L102.729 499.25L102.729 515.891L119.277 515.891Z" fill="black"/>
<path d="M102.729 299.548L102.729 282.907L86.1818 282.907L86.1817 299.548L102.729 299.548Z" fill="black"/>
<path d="M102.729 332.832L102.729 316.191L86.1817 316.191L86.1817 332.832L102.729 332.832Z" fill="black"/>
<path d="M102.729 366.116L102.729 349.475L86.1817 349.475L86.1817 366.116L102.729 366.116Z" fill="black"/>
<path d="M102.729 399.398L102.729 382.757L86.1817 382.757L86.1817 399.398L102.729 399.398Z" fill="black"/>
<path d="M102.729 432.682L102.729 416.041L86.1817 416.041L86.1817 432.682L102.729 432.682Z" fill="black"/>
<path d="M102.729 465.966L102.729 449.325L86.1817 449.325L86.1817 465.966L102.729 465.966Z" fill="black"/>
<path d="M102.729 499.248L102.729 482.607L86.1817 482.607L86.1817 499.248L102.729 499.248Z" fill="black"/>
<path d="M102.729 532.532L102.729 515.891L86.1817 515.891L86.1817 532.532L102.729 532.532Z" fill="black"/>
<path d="M86.18 282.907L86.18 266.266L69.6324 266.266L69.6324 282.907L86.18 282.907Z" fill="black"/>
<path d="M86.18 316.191L86.18 299.55L69.6324 299.55L69.6324 316.191L86.18 316.191Z" fill="black"/>
<path d="M86.18 349.473L86.18 332.832L69.6324 332.832L69.6324 349.473L86.18 349.473Z" fill="black"/>
<path d="M86.18 382.757L86.18 366.116L69.6324 366.116L69.6324 382.757L86.18 382.757Z" fill="black"/>
<path d="M86.18 416.041L86.18 399.4L69.6324 399.4L69.6324 416.041L86.18 416.041Z" fill="black"/>
<path d="M86.18 449.323L86.18 432.682L69.6324 432.682L69.6324 449.323L86.18 449.323Z" fill="black"/>
<path d="M86.18 482.607L86.18 465.966L69.6323 465.966L69.6323 482.607L86.18 482.607Z" fill="black"/>
<path d="M86.18 515.891L86.18 499.25L69.6323 499.25L69.6323 515.891L86.18 515.891Z" fill="black"/>
<path d="M69.6324 299.548L69.6324 282.907L53.0847 282.907L53.0847 299.548L69.6324 299.548Z" fill="black"/>
<path d="M69.6324 332.832L69.6324 316.191L53.0847 316.191L53.0847 332.832L69.6324 332.832Z" fill="black"/>
<path d="M69.6324 366.116L69.6324 349.475L53.0847 349.475L53.0847 366.116L69.6324 366.116Z" fill="black"/>
<path d="M69.6324 399.398L69.6324 382.757L53.0847 382.757L53.0847 399.398L69.6324 399.398Z" fill="black"/>
<path d="M69.6324 432.682L69.6324 416.041L53.0847 416.041L53.0847 432.682L69.6324 432.682Z" fill="black"/>
<path d="M69.6323 465.966L69.6324 449.325L53.0847 449.325L53.0847 465.966L69.6323 465.966Z" fill="black"/>
<path d="M69.6323 499.248L69.6323 482.607L53.0847 482.607L53.0847 499.248L69.6323 499.248Z" fill="black"/>
<path d="M69.6323 532.532L69.6323 515.891L53.0847 515.891L53.0847 532.532L69.6323 532.532Z" fill="black"/>
<path d="M53.0847 282.907L53.0847 266.266L36.5371 266.266L36.5371 282.907L53.0847 282.907Z" fill="black"/>
<path d="M53.0847 316.191L53.0847 299.55L36.5371 299.55L36.537 316.191L53.0847 316.191Z" fill="black"/>
<path d="M53.0847 349.473L53.0847 332.832L36.537 332.832L36.537 349.473L53.0847 349.473Z" fill="black"/>
<path d="M53.0847 382.757L53.0847 366.116L36.537 366.116L36.537 382.757L53.0847 382.757Z" fill="black"/>
<path d="M53.0847 416.041L53.0847 399.4L36.537 399.4L36.537 416.041L53.0847 416.041Z" fill="black"/>
<path d="M53.0847 449.323L53.0847 432.682L36.537 432.682L36.537 449.323L53.0847 449.323Z" fill="black"/>
<path d="M53.0847 482.607L53.0847 465.966L36.537 465.966L36.537 482.607L53.0847 482.607Z" fill="black"/>
<path d="M53.0847 515.891L53.0847 499.25L36.537 499.25L36.537 515.891L53.0847 515.891Z" fill="black"/>
<path d="M36.5353 299.548L36.5353 282.907L19.9877 282.907L19.9877 299.548L36.5353 299.548Z" fill="black"/>
<path d="M36.5353 332.832L36.5353 316.191L19.9877 316.191L19.9877 332.832L36.5353 332.832Z" fill="black"/>
<path d="M36.5353 366.116L36.5353 349.475L19.9877 349.475L19.9877 366.116L36.5353 366.116Z" fill="black"/>
<path d="M36.5353 399.398L36.5353 382.757L19.9877 382.757L19.9877 399.398L36.5353 399.398Z" fill="black"/>
<path d="M36.5353 432.682L36.5353 416.041L19.9877 416.041L19.9877 432.682L36.5353 432.682Z" fill="black"/>
<path d="M36.5353 465.966L36.5353 449.325L19.9877 449.325L19.9877 465.966L36.5353 465.966Z" fill="black"/>
<path d="M36.5353 499.248L36.5353 482.607L19.9877 482.607L19.9877 499.248L36.5353 499.248Z" fill="black"/>
<path d="M36.5353 532.532L36.5353 515.891L19.9877 515.891L19.9877 532.532L36.5353 532.532Z" fill="black"/>
<path d="M218.566 798.74L218.566 532.532L19.9877 532.532L19.9877 798.74L218.566 798.74Z" fill="white"/>
<path d="M218.566 549.173L218.566 532.532L202.019 532.532L202.019 549.173L218.566 549.173Z" fill="black"/>
<path d="M218.566 582.457L218.566 565.816L202.019 565.816L202.019 582.457L218.566 582.457Z" fill="black"/>
<path d="M218.566 615.739L218.566 599.098L202.019 599.098L202.019 615.739L218.566 615.739Z" fill="black"/>
<path d="M218.566 649.023L218.566 632.382L202.019 632.382L202.019 649.023L218.566 649.023Z" fill="black"/>
<path d="M218.566 682.307L218.566 665.666L202.019 665.666L202.019 682.307L218.566 682.307Z" fill="black"/>
<path d="M218.566 715.589L218.566 698.948L202.019 698.948L202.019 715.589L218.566 715.589Z" fill="black"/>
<path d="M218.566 748.873L218.566 732.232L202.019 732.232L202.019 748.873L218.566 748.873Z" fill="black"/>
<path d="M218.566 782.157L218.566 765.516L202.019 765.516L202.019 782.157L218.566 782.157Z" fill="black"/>
<path d="M202.019 565.814L202.019 549.173L185.471 549.173L185.471 565.814L202.019 565.814Z" fill="black"/>
<path d="M202.019 599.098L202.019 582.457L185.471 582.457L185.471 599.098L202.019 599.098Z" fill="black"/>
<path d="M202.019 632.382L202.019 615.741L185.471 615.741L185.471 632.382L202.019 632.382Z" fill="black"/>
<path d="M202.019 665.664L202.019 649.023L185.471 649.023L185.471 665.664L202.019 665.664Z" fill="black"/>
<path d="M202.019 698.948L202.019 682.307L185.471 682.307L185.471 698.948L202.019 698.948Z" fill="black"/>
<path d="M202.019 732.232L202.019 715.591L185.471 715.591L185.471 732.232L202.019 732.232Z" fill="black"/>
<path d="M202.019 765.514L202.019 748.873L185.471 748.873L185.471 765.514L202.019 765.514Z" fill="black"/>
<path d="M202.019 798.798L202.019 782.157L185.471 782.157L185.471 798.798L202.019 798.798Z" fill="black"/>
<path d="M185.469 549.173L185.469 532.532L168.922 532.532L168.922 549.173L185.469 549.173Z" fill="black"/>
<path d="M185.469 582.457L185.469 565.816L168.922 565.816L168.922 582.457L185.469 582.457Z" fill="black"/>
<path d="M185.469 615.739L185.469 599.098L168.922 599.098L168.922 615.739L185.469 615.739Z" fill="black"/>
<path d="M185.469 649.023L185.469 632.382L168.922 632.382L168.922 649.023L185.469 649.023Z" fill="black"/>
<path d="M185.469 682.307L185.469 665.666L168.922 665.666L168.922 682.307L185.469 682.307Z" fill="black"/>
<path d="M185.469 715.589L185.469 698.948L168.922 698.948L168.922 715.589L185.469 715.589Z" fill="black"/>
<path d="M185.469 748.873L185.469 732.232L168.922 732.232L168.922 748.873L185.469 748.873Z" fill="black"/>
<path d="M185.469 782.157L185.469 765.516L168.922 765.516L168.922 782.157L185.469 782.157Z" fill="black"/>
<path d="M168.922 565.814L168.922 549.173L152.374 549.173L152.374 565.814L168.922 565.814Z" fill="black"/>
<path d="M168.922 599.098L168.922 582.457L152.374 582.457L152.374 599.098L168.922 599.098Z" fill="black"/>
<path d="M168.922 632.382L168.922 615.741L152.374 615.741L152.374 632.382L168.922 632.382Z" fill="black"/>
<path d="M168.922 665.664L168.922 649.023L152.374 649.023L152.374 665.664L168.922 665.664Z" fill="black"/>
<path d="M168.922 698.948L168.922 682.307L152.374 682.307L152.374 698.948L168.922 698.948Z" fill="black"/>
<path d="M168.922 732.232L168.922 715.591L152.374 715.591L152.374 732.232L168.922 732.232Z" fill="black"/>
<path d="M168.922 765.514L168.922 748.873L152.374 748.873L152.374 765.514L168.922 765.514Z" fill="black"/>
<path d="M168.922 798.798L168.922 782.157L152.374 782.157L152.374 798.798L168.922 798.798Z" fill="black"/>
<path d="M152.374 549.173L152.374 532.532L135.826 532.532L135.826 549.173L152.374 549.173Z" fill="black"/>
<path d="M152.374 582.457L152.374 565.816L135.826 565.816L135.826 582.457L152.374 582.457Z" fill="black"/>
<path d="M152.374 615.739L152.374 599.098L135.826 599.098L135.826 615.739L152.374 615.739Z" fill="black"/>
<path d="M152.374 649.023L152.374 632.382L135.826 632.382L135.826 649.023L152.374 649.023Z" fill="black"/>
<path d="M152.374 682.307L152.374 665.666L135.826 665.666L135.826 682.307L152.374 682.307Z" fill="black"/>
<path d="M152.374 715.589L152.374 698.948L135.826 698.948L135.826 715.589L152.374 715.589Z" fill="black"/>
<path d="M152.374 748.873L152.374 732.232L135.826 732.232L135.826 748.873L152.374 748.873Z" fill="black"/>
<path d="M152.374 782.157L152.374 765.516L135.826 765.516L135.826 782.157L152.374 782.157Z" fill="black"/>
<path d="M135.825 565.814L135.825 549.173L119.277 549.173L119.277 565.814L135.825 565.814Z" fill="black"/>
<path d="M135.825 599.098L135.825 582.457L119.277 582.457L119.277 599.098L135.825 599.098Z" fill="black"/>
<path d="M135.825 632.382L135.825 615.741L119.277 615.741L119.277 632.382L135.825 632.382Z" fill="black"/>
<path d="M135.825 665.664L135.825 649.023L119.277 649.023L119.277 665.664L135.825 665.664Z" fill="black"/>
<path d="M135.825 698.948L135.825 682.307L119.277 682.307L119.277 698.948L135.825 698.948Z" fill="black"/>
<path d="M135.825 732.232L135.825 715.591L119.277 715.591L119.277 732.232L135.825 732.232Z" fill="black"/>
<path d="M135.825 765.514L135.825 748.873L119.277 748.873L119.277 765.514L135.825 765.514Z" fill="black"/>
<path d="M135.825 798.798L135.825 782.157L119.277 782.157L119.277 798.798L135.825 798.798Z" fill="black"/>
<path d="M119.277 549.173L119.277 532.532L102.729 532.532L102.729 549.173L119.277 549.173Z" fill="black"/>
<path d="M119.277 582.457L119.277 565.816L102.729 565.816L102.729 582.457L119.277 582.457Z" fill="black"/>
<path d="M119.277 615.739L119.277 599.098L102.729 599.098L102.729 615.739L119.277 615.739Z" fill="black"/>
<path d="M119.277 649.023L119.277 632.382L102.729 632.382L102.729 649.023L119.277 649.023Z" fill="black"/>
<path d="M119.277 682.307L119.277 665.666L102.729 665.666L102.729 682.307L119.277 682.307Z" fill="black"/>
<path d="M119.277 715.589L119.277 698.948L102.729 698.948L102.729 715.589L119.277 715.589Z" fill="black"/>
<path d="M119.277 748.873L119.277 732.232L102.729 732.232L102.729 748.873L119.277 748.873Z" fill="black"/>
<path d="M119.277 782.157L119.277 765.516L102.729 765.516L102.729 782.157L119.277 782.157Z" fill="black"/>
<path d="M102.729 565.814L102.729 549.173L86.1817 549.173L86.1817 565.814L102.729 565.814Z" fill="black"/>
<path d="M102.729 599.098L102.729 582.457L86.1817 582.457L86.1817 599.098L102.729 599.098Z" fill="black"/>
<path d="M102.729 632.382L102.729 615.741L86.1817 615.741L86.1817 632.382L102.729 632.382Z" fill="black"/>
<path d="M102.729 665.664L102.729 649.023L86.1817 649.023L86.1817 665.664L102.729 665.664Z" fill="black"/>
<path d="M102.729 698.948L102.729 682.307L86.1817 682.307L86.1817 698.948L102.729 698.948Z" fill="black"/>
<path d="M102.729 732.232L102.729 715.591L86.1817 715.591L86.1817 732.232L102.729 732.232Z" fill="black"/>
<path d="M102.729 765.514L102.729 748.873L86.1817 748.873L86.1817 765.514L102.729 765.514Z" fill="black"/>
<path d="M102.729 798.798L102.729 782.157L86.1817 782.157L86.1817 798.798L102.729 798.798Z" fill="black"/>
<path d="M86.18 549.173L86.18 532.532L69.6323 532.532L69.6323 549.173L86.18 549.173Z" fill="black"/>
<path d="M86.18 582.457L86.18 565.816L69.6323 565.816L69.6323 582.457L86.18 582.457Z" fill="black"/>
<path d="M86.18 615.739L86.18 599.098L69.6323 599.098L69.6323 615.739L86.18 615.739Z" fill="black"/>
<path d="M86.18 649.023L86.18 632.382L69.6323 632.382L69.6323 649.023L86.18 649.023Z" fill="black"/>
<path d="M86.18 682.307L86.18 665.666L69.6323 665.666L69.6323 682.307L86.18 682.307Z" fill="black"/>
<path d="M86.18 715.589L86.18 698.948L69.6323 698.948L69.6323 715.589L86.18 715.589Z" fill="black"/>
<path d="M86.18 748.873L86.18 732.232L69.6323 732.232L69.6323 748.873L86.18 748.873Z" fill="black"/>
<path d="M86.18 782.157L86.18 765.516L69.6323 765.516L69.6323 782.157L86.18 782.157Z" fill="black"/>
<path d="M69.6323 565.814L69.6323 549.173L53.0847 549.173L53.0847 565.814L69.6323 565.814Z" fill="black"/>
<path d="M69.6323 599.098L69.6323 582.457L53.0847 582.457L53.0847 599.098L69.6323 599.098Z" fill="black"/>
<path d="M69.6323 632.382L69.6323 615.741L53.0847 615.741L53.0847 632.382L69.6323 632.382Z" fill="black"/>
<path d="M69.6323 665.664L69.6323 649.023L53.0847 649.023L53.0847 665.664L69.6323 665.664Z" fill="black"/>
<path d="M69.6323 698.948L69.6323 682.307L53.0847 682.307L53.0847 698.948L69.6323 698.948Z" fill="black"/>
<path d="M69.6323 732.232L69.6323 715.591L53.0847 715.591L53.0847 732.232L69.6323 732.232Z" fill="black"/>
<path d="M69.6323 765.514L69.6323 748.873L53.0847 748.873L53.0847 765.514L69.6323 765.514Z" fill="black"/>
<path d="M69.6323 798.798L69.6323 782.157L53.0847 782.157L53.0847 798.798L69.6323 798.798Z" fill="black"/>
<path d="M53.0847 549.173L53.0847 532.532L36.537 532.532L36.537 549.173L53.0847 549.173Z" fill="black"/>
<path d="M53.0847 582.457L53.0847 565.816L36.537 565.816L36.537 582.457L53.0847 582.457Z" fill="black"/>
<path d="M53.0847 615.739L53.0847 599.098L36.537 599.098L36.537 615.739L53.0847 615.739Z" fill="black"/>
<path d="M53.0847 649.023L53.0847 632.382L36.537 632.382L36.537 649.023L53.0847 649.023Z" fill="black"/>
<path d="M53.0847 682.307L53.0847 665.666L36.537 665.666L36.537 682.307L53.0847 682.307Z" fill="black"/>
<path d="M53.0847 715.589L53.0847 698.948L36.537 698.948L36.537 715.589L53.0847 715.589Z" fill="black"/>
<path d="M53.0847 748.873L53.0847 732.232L36.537 732.232L36.537 748.873L53.0847 748.873Z" fill="black"/>
<path d="M53.0847 782.157L53.0847 765.516L36.537 765.516L36.537 782.157L53.0847 782.157Z" fill="black"/>
<path d="M36.5353 565.814L36.5353 549.173L19.9877 549.173L19.9877 565.814L36.5353 565.814Z" fill="black"/>
<path d="M36.5353 599.098L36.5353 582.457L19.9877 582.457L19.9877 599.098L36.5353 599.098Z" fill="black"/>
<path d="M36.5353 632.382L36.5353 615.741L19.9877 615.741L19.9877 632.382L36.5353 632.382Z" fill="black"/>
<path d="M36.5353 665.664L36.5353 649.023L19.9877 649.023L19.9877 665.664L36.5353 665.664Z" fill="black"/>
<path d="M36.5353 698.948L36.5353 682.307L19.9877 682.307L19.9877 698.948L36.5353 698.948Z" fill="black"/>
<path d="M36.5353 732.232L36.5353 715.591L19.9877 715.591L19.9877 732.232L36.5353 732.232Z" fill="black"/>
<path d="M36.5353 765.514L36.5353 748.873L19.9877 748.873L19.9877 765.514L36.5353 765.514Z" fill="black"/>
<path d="M36.5353 798.798L36.5353 782.157L19.9877 782.157L19.9877 798.798L36.5353 798.798Z" fill="black"/>
<path d="M218.566 1064.42L218.566 798.215L19.9877 798.215L19.9876 1064.42L218.566 1064.42Z" fill="white"/>
<path d="M218.566 814.856L218.566 798.215L202.019 798.215L202.019 814.856L218.566 814.856Z" fill="black"/>
<path d="M218.566 848.14L218.566 831.499L202.019 831.499L202.019 848.14L218.566 848.14Z" fill="black"/>
<path d="M218.566 881.422L218.566 864.781L202.019 864.781L202.019 881.422L218.566 881.422Z" fill="black"/>
<path d="M218.566 914.706L218.566 898.065L202.019 898.065L202.019 914.706L218.566 914.706Z" fill="black"/>
<path d="M218.566 947.99L218.566 931.349L202.019 931.349L202.019 947.99L218.566 947.99Z" fill="black"/>
<path d="M218.566 981.272L218.566 964.631L202.019 964.631L202.019 981.272L218.566 981.272Z" fill="black"/>
<path d="M218.566 1014.56L218.566 997.915L202.019 997.915L202.019 1014.56L218.566 1014.56Z" fill="black"/>
<path d="M218.566 1047.84L218.566 1031.2L202.019 1031.2L202.019 1047.84L218.566 1047.84Z" fill="black"/>
<path d="M202.019 831.497L202.019 814.856L185.471 814.856L185.471 831.497L202.019 831.497Z" fill="black"/>
<path d="M202.019 864.781L202.019 848.14L185.471 848.14L185.471 864.781L202.019 864.781Z" fill="black"/>
<path d="M202.019 898.065L202.019 881.424L185.471 881.424L185.471 898.065L202.019 898.065Z" fill="black"/>
<path d="M202.019 931.347L202.019 914.706L185.471 914.706L185.471 931.347L202.019 931.347Z" fill="black"/>
<path d="M202.019 964.631L202.019 947.99L185.471 947.99L185.471 964.631L202.019 964.631Z" fill="black"/>
<path d="M202.019 997.915L202.019 981.274L185.471 981.274L185.471 997.915L202.019 997.915Z" fill="black"/>
<path d="M202.019 1031.2L202.019 1014.56L185.471 1014.56L185.471 1031.2L202.019 1031.2Z" fill="black"/>
<path d="M202.019 1064.48L202.019 1047.84L185.471 1047.84L185.471 1064.48L202.019 1064.48Z" fill="black"/>
<path d="M185.469 814.856L185.469 798.215L168.922 798.215L168.922 814.856L185.469 814.856Z" fill="black"/>
<path d="M185.469 848.14L185.469 831.499L168.922 831.499L168.922 848.14L185.469 848.14Z" fill="black"/>
<path d="M185.469 881.422L185.469 864.781L168.922 864.781L168.922 881.422L185.469 881.422Z" fill="black"/>
<path d="M185.469 914.706L185.469 898.065L168.922 898.065L168.922 914.706L185.469 914.706Z" fill="black"/>
<path d="M185.469 947.99L185.469 931.349L168.922 931.349L168.922 947.99L185.469 947.99Z" fill="black"/>
<path d="M185.469 981.272L185.469 964.631L168.922 964.631L168.922 981.272L185.469 981.272Z" fill="black"/>
<path d="M185.469 1014.56L185.469 997.915L168.922 997.915L168.922 1014.56L185.469 1014.56Z" fill="black"/>
<path d="M185.469 1047.84L185.469 1031.2L168.922 1031.2L168.922 1047.84L185.469 1047.84Z" fill="black"/>
<path d="M168.922 831.497L168.922 814.856L152.374 814.856L152.374 831.497L168.922 831.497Z" fill="black"/>
<path d="M168.922 864.781L168.922 848.14L152.374 848.14L152.374 864.781L168.922 864.781Z" fill="black"/>
<path d="M168.922 898.065L168.922 881.424L152.374 881.424L152.374 898.065L168.922 898.065Z" fill="black"/>
<path d="M168.922 931.347L168.922 914.706L152.374 914.706L152.374 931.347L168.922 931.347Z" fill="black"/>
<path d="M168.922 964.631L168.922 947.99L152.374 947.99L152.374 964.631L168.922 964.631Z" fill="black"/>
<path d="M168.922 997.915L168.922 981.274L152.374 981.274L152.374 997.915L168.922 997.915Z" fill="black"/>
<path d="M168.922 1031.2L168.922 1014.56L152.374 1014.56L152.374 1031.2L168.922 1031.2Z" fill="black"/>
<path d="M168.922 1064.48L168.922 1047.84L152.374 1047.84L152.374 1064.48L168.922 1064.48Z" fill="black"/>
<path d="M152.374 814.856L152.374 798.215L135.826 798.215L135.826 814.856L152.374 814.856Z" fill="black"/>
<path d="M152.374 848.14L152.374 831.499L135.826 831.499L135.826 848.14L152.374 848.14Z" fill="black"/>
<path d="M152.374 881.422L152.374 864.781L135.826 864.781L135.826 881.422L152.374 881.422Z" fill="black"/>
<path d="M152.374 914.706L152.374 898.065L135.826 898.065L135.826 914.706L152.374 914.706Z" fill="black"/>
<path d="M152.374 947.99L152.374 931.349L135.826 931.349L135.826 947.99L152.374 947.99Z" fill="black"/>
<path d="M152.374 981.272L152.374 964.631L135.826 964.631L135.826 981.272L152.374 981.272Z" fill="black"/>
<path d="M152.374 1014.56L152.374 997.915L135.826 997.915L135.826 1014.56L152.374 1014.56Z" fill="black"/>
<path d="M152.374 1047.84L152.374 1031.2L135.826 1031.2L135.826 1047.84L152.374 1047.84Z" fill="black"/>
<path d="M135.825 831.497L135.825 814.856L119.277 814.856L119.277 831.497L135.825 831.497Z" fill="black"/>
<path d="M135.825 864.781L135.825 848.14L119.277 848.14L119.277 864.781L135.825 864.781Z" fill="black"/>
<path d="M135.825 898.065L135.825 881.424L119.277 881.424L119.277 898.065L135.825 898.065Z" fill="black"/>
<path d="M135.825 931.347L135.825 914.706L119.277 914.706L119.277 931.347L135.825 931.347Z" fill="black"/>
<path d="M135.825 964.631L135.825 947.99L119.277 947.99L119.277 964.631L135.825 964.631Z" fill="black"/>
<path d="M135.825 997.915L135.825 981.274L119.277 981.274L119.277 997.915L135.825 997.915Z" fill="black"/>
<path d="M135.825 1031.2L135.825 1014.56L119.277 1014.56L119.277 1031.2L135.825 1031.2Z" fill="black"/>
<path d="M135.825 1064.48L135.825 1047.84L119.277 1047.84L119.277 1064.48L135.825 1064.48Z" fill="black"/>
<path d="M119.277 814.856L119.277 798.215L102.729 798.215L102.729 814.856L119.277 814.856Z" fill="black"/>
<path d="M119.277 848.14L119.277 831.499L102.729 831.499L102.729 848.14L119.277 848.14Z" fill="black"/>
<path d="M119.277 881.422L119.277 864.781L102.729 864.781L102.729 881.422L119.277 881.422Z" fill="black"/>
<path d="M119.277 914.706L119.277 898.065L102.729 898.065L102.729 914.706L119.277 914.706Z" fill="black"/>
<path d="M119.277 947.99L119.277 931.349L102.729 931.349L102.729 947.99L119.277 947.99Z" fill="black"/>
<path d="M119.277 981.272L119.277 964.631L102.729 964.631L102.729 981.272L119.277 981.272Z" fill="black"/>
<path d="M119.277 1014.56L119.277 997.915L102.729 997.915L102.729 1014.56L119.277 1014.56Z" fill="black"/>
<path d="M119.277 1047.84L119.277 1031.2L102.729 1031.2L102.729 1047.84L119.277 1047.84Z" fill="black"/>
<path d="M102.729 831.497L102.729 814.856L86.1817 814.856L86.1817 831.497L102.729 831.497Z" fill="black"/>
<path d="M102.729 864.781L102.729 848.14L86.1817 848.14L86.1817 864.781L102.729 864.781Z" fill="black"/>
<path d="M102.729 898.065L102.729 881.424L86.1817 881.424L86.1817 898.065L102.729 898.065Z" fill="black"/>
<path d="M102.729 931.347L102.729 914.706L86.1817 914.706L86.1817 931.347L102.729 931.347Z" fill="black"/>
<path d="M102.729 964.631L102.729 947.99L86.1817 947.99L86.1817 964.631L102.729 964.631Z" fill="black"/>
<path d="M102.729 997.915L102.729 981.274L86.1817 981.274L86.1817 997.915L102.729 997.915Z" fill="black"/>
<path d="M102.729 1031.2L102.729 1014.56L86.1817 1014.56L86.1817 1031.2L102.729 1031.2Z" fill="black"/>
<path d="M102.729 1064.48L102.729 1047.84L86.1817 1047.84L86.1817 1064.48L102.729 1064.48Z" fill="black"/>
<path d="M86.18 814.856L86.18 798.215L69.6323 798.215L69.6323 814.856L86.18 814.856Z" fill="black"/>
<path d="M86.18 848.14L86.18 831.499L69.6323 831.499L69.6323 848.14L86.18 848.14Z" fill="black"/>
<path d="M86.18 881.422L86.18 864.781L69.6323 864.781L69.6323 881.422L86.18 881.422Z" fill="black"/>
<path d="M86.18 914.706L86.18 898.065L69.6323 898.065L69.6323 914.706L86.18 914.706Z" fill="black"/>
<path d="M86.18 947.99L86.18 931.349L69.6323 931.349L69.6323 947.99L86.18 947.99Z" fill="black"/>
<path d="M86.18 981.272L86.18 964.631L69.6323 964.631L69.6323 981.272L86.18 981.272Z" fill="black"/>
<path d="M86.18 1014.56L86.18 997.915L69.6323 997.915L69.6323 1014.56L86.18 1014.56Z" fill="black"/>
<path d="M86.18 1047.84L86.18 1031.2L69.6323 1031.2L69.6323 1047.84L86.18 1047.84Z" fill="black"/>
<path d="M69.6323 831.497L69.6323 814.856L53.0847 814.856L53.0847 831.497L69.6323 831.497Z" fill="black"/>
<path d="M69.6323 864.781L69.6323 848.14L53.0847 848.14L53.0847 864.781L69.6323 864.781Z" fill="black"/>
<path d="M69.6323 898.065L69.6323 881.424L53.0847 881.424L53.0847 898.065L69.6323 898.065Z" fill="black"/>
<path d="M69.6323 931.347L69.6323 914.706L53.0847 914.706L53.0847 931.347L69.6323 931.347Z" fill="black"/>
<path d="M69.6323 964.631L69.6323 947.99L53.0847 947.99L53.0847 964.631L69.6323 964.631Z" fill="black"/>
<path d="M69.6323 997.915L69.6323 981.274L53.0847 981.274L53.0847 997.915L69.6323 997.915Z" fill="black"/>
<path d="M69.6323 1031.2L69.6323 1014.56L53.0847 1014.56L53.0847 1031.2L69.6323 1031.2Z" fill="black"/>
<path d="M69.6323 1064.48L69.6323 1047.84L53.0847 1047.84L53.0847 1064.48L69.6323 1064.48Z" fill="black"/>
<path d="M53.0847 814.856L53.0847 798.215L36.537 798.215L36.537 814.856L53.0847 814.856Z" fill="black"/>
<path d="M53.0847 848.14L53.0847 831.499L36.537 831.499L36.537 848.14L53.0847 848.14Z" fill="black"/>
<path d="M53.0847 881.422L53.0847 864.781L36.537 864.781L36.537 881.422L53.0847 881.422Z" fill="black"/>
<path d="M53.0847 914.706L53.0847 898.065L36.537 898.065L36.537 914.706L53.0847 914.706Z" fill="black"/>
<path d="M53.0847 947.99L53.0847 931.349L36.537 931.349L36.537 947.99L53.0847 947.99Z" fill="black"/>
<path d="M53.0847 981.272L53.0847 964.631L36.537 964.631L36.537 981.272L53.0847 981.272Z" fill="black"/>
<path d="M53.0847 1014.56L53.0847 997.915L36.537 997.915L36.537 1014.56L53.0847 1014.56Z" fill="black"/>
<path d="M53.0847 1047.84L53.0847 1031.2L36.537 1031.2L36.537 1047.84L53.0847 1047.84Z" fill="black"/>
<path d="M36.5353 831.497L36.5353 814.856L19.9877 814.856L19.9876 831.497L36.5353 831.497Z" fill="black"/>
<path d="M36.5353 864.781L36.5353 848.14L19.9876 848.14L19.9876 864.781L36.5353 864.781Z" fill="black"/>
<path d="M36.5353 898.065L36.5353 881.424L19.9876 881.424L19.9876 898.065L36.5353 898.065Z" fill="black"/>
<path d="M36.5353 931.347L36.5353 914.706L19.9876 914.706L19.9876 931.347L36.5353 931.347Z" fill="black"/>
<path d="M36.5353 964.631L36.5353 947.99L19.9876 947.99L19.9876 964.631L36.5353 964.631Z" fill="black"/>
<path d="M36.5353 997.915L36.5353 981.274L19.9876 981.274L19.9876 997.915L36.5353 997.915Z" fill="black"/>
<path d="M36.5353 1031.2L36.5353 1014.56L19.9876 1014.56L19.9876 1031.2L36.5353 1031.2Z" fill="black"/>
<path d="M36.5353 1064.48L36.5353 1047.84L19.9876 1047.84L19.9876 1064.48L36.5353 1064.48Z" fill="black"/>
</g>
<defs>
<linearGradient id="paint0_linear_1059_1003" x1="841.004" y1="849.002" x2="-0.00441127" y2="849.002" gradientUnits="userSpaceOnUse">
<stop offset="0.1974" stop-color="#BB8A4F"/>
<stop offset="0.4423" stop-color="#E9B471"/>
<stop offset="0.6898" stop-color="#E9B471"/>
<stop offset="1" stop-color="#E8C66C"/>
</linearGradient>
<linearGradient id="paint1_linear_1059_1003" x1="992.004" y1="849.002" x2="150.996" y2="849.002" gradientUnits="userSpaceOnUse">
<stop offset="0.1974" stop-color="#BB8A4F"/>
<stop offset="0.4423" stop-color="#E9B471"/>
<stop offset="0.6898" stop-color="#E9B471"/>
<stop offset="1" stop-color="#E8C66C"/>
</linearGradient>
<clipPath id="clip0_1059_1003">
<rect width="131" height="839" fill="white" transform="translate(19.9883)"/>
</clipPath>
</defs>
</svg>
