<svg width="110" height="180" viewBox="0 0 110 180" fill="none" xmlns="http://www.w3.org/2000/svg">
<g filter="url(#filter0_f_1169_1693)">
<path d="M30.0237 149.821L44.6035 149.821L44.6035 136.579L53.7988 136.579L53.7988 149.821L77.9882 149.821L77.9882 160L20.8284 160L20.8284 134.51L30.0237 134.51L30.0237 149.821Z" fill="white"/>
<path d="M66.8876 108.538L66.8876 121.862L77.9882 124.18L77.9882 134.773L20.8284 120.125L20.8284 110.193L77.9882 95.6276L77.9882 106.221L66.8876 108.538ZM57.7751 110.359L34.5799 115.159L57.7751 119.959L57.7751 110.359Z" fill="white"/>
<path d="M62.2485 60C65.6726 60 68.5996 60.6621 71.0296 61.9862C73.4043 63.3104 75.2268 65.1311 76.497 67.4484L86.8521 63.7242L90 72.3312L78.6509 76.3865L78.6509 76.4693C78.6509 81.3797 77.2702 85.2694 74.5089 88.1384C71.6923 91.0074 67.6055 92.4419 62.2485 92.4419L36.4852 92.4419C31.073 92.4419 26.9862 90.9247 24.2248 87.8901C21.4083 84.8556 20 80.8555 20 75.8899C20 71.0899 21.4083 67.2553 24.2248 64.3863C26.9862 61.4621 31.073 60 36.4852 60L62.2485 60ZM61.0888 82.2625C66.6667 82.2625 69.4556 80.221 69.4556 76.1382C69.4556 74.2071 68.7377 72.745 67.3018 71.7519C65.8106 70.7036 63.7396 70.1795 61.0888 70.1795L38.142 70.1795C35.215 70.1795 33.0059 70.676 31.5148 71.6692C29.9684 72.6623 29.1953 74.152 29.1953 76.1382C29.1953 78.29 29.9408 79.8624 31.4319 80.8555C32.9231 81.7935 35.1598 82.2625 38.142 82.2625L61.0888 82.2625Z" fill="white"/>
</g>
<path d="M44.6035 136.079L44.1035 136.079L44.1035 136.579L44.1035 149.321L30.5237 149.321L30.5237 134.51L30.5237 134.01L30.0237 134.01L20.8284 134.01L20.3284 134.01L20.3284 134.51L20.3284 160L20.3284 160.5L20.8284 160.5L77.9882 160.5L78.4882 160.5L78.4882 160L78.4882 149.821L78.4882 149.321L77.9882 149.321L54.2988 149.321L54.2988 136.579L54.2988 136.079L53.7988 136.079L44.6035 136.079ZM78.4882 124.18L78.4882 123.773L78.0903 123.69L67.3876 121.456L67.3876 108.945L78.0903 106.71L78.4882 106.627L78.4882 106.221L78.4882 95.6276L78.4882 94.9842L77.8647 95.143L20.7049 109.709L20.3284 109.805L20.3284 110.193L20.3284 120.125L20.3284 120.513L20.7043 120.609L77.864 135.257L78.4882 135.417L78.4882 134.773L78.4882 124.18ZM71.2731 61.5495L71.2688 61.5472C68.75 60.1746 65.7366 59.5 62.2485 59.5L36.4852 59.5C30.9869 59.5 26.7496 60.9867 23.8646 64.0395C20.9412 67.0194 19.5 70.9879 19.5 75.8899C19.5 80.9541 20.9389 85.0839 23.8567 88.2285C26.7405 91.3964 30.9806 92.9419 36.4852 92.9419L62.2485 92.9419C67.6935 92.9419 71.927 91.4821 74.8657 88.4887L74.8691 88.4851C77.6882 85.5561 79.0995 81.6221 79.1495 76.7393L90.1682 72.8021L90.6426 72.6326L90.4696 72.1595L87.3216 63.5525L87.1508 63.0854L86.6828 63.2537L76.7242 66.8354C75.4193 64.6098 73.5991 62.8465 71.2731 61.5495ZM67.0142 72.161L67.0173 72.1631C68.3023 73.0519 68.9556 74.3509 68.9556 76.1382C68.9556 78.053 68.3101 79.4192 67.0686 80.3279C65.798 81.2579 63.8315 81.7625 61.0888 81.7625L38.142 81.7625C35.1999 81.7625 33.0773 81.2975 31.7036 80.4357C30.3846 79.5547 29.6953 78.1586 29.6953 76.1382C29.6953 74.3058 30.3951 72.9825 31.785 72.0899L31.785 72.0899L31.792 72.0853C33.1639 71.1715 35.257 70.6795 38.142 70.6795L61.0888 70.6795C63.6814 70.6795 65.6376 71.1932 67.0142 72.161ZM57.2751 119.345L37.0472 115.159L57.2751 110.973L57.2751 119.345Z" fill="white" stroke="black"/>
<g filter="url(#filter1_f_1169_1693)">
<circle cx="55" cy="28" r="8" fill="white"/>
</g>
<circle cx="55" cy="28" r="7.5" fill="white" stroke="black"/>
<defs>
<filter id="filter0_f_1169_1693" x="0" y="40" width="110" height="140" filterUnits="userSpaceOnUse" color-interpolation-filters="sRGB">
<feFlood flood-opacity="0" result="BackgroundImageFix"/>
<feBlend mode="normal" in="SourceGraphic" in2="BackgroundImageFix" result="shape"/>
<feGaussianBlur stdDeviation="10" result="effect1_foregroundBlur_1169_1693"/>
</filter>
<filter id="filter1_f_1169_1693" x="27" y="0" width="56" height="56" filterUnits="userSpaceOnUse" color-interpolation-filters="sRGB">
<feFlood flood-opacity="0" result="BackgroundImageFix"/>
<feBlend mode="normal" in="SourceGraphic" in2="BackgroundImageFix" result="shape"/>
<feGaussianBlur stdDeviation="10" result="effect1_foregroundBlur_1169_1693"/>
</filter>
</defs>
</svg>
