<svg width="160" height="160" viewBox="0 0 160 160" fill="none" xmlns="http://www.w3.org/2000/svg">
<path d="M136.568 80.0007C136.568 84.5782 136.012 89.1389 134.913 93.5825L79.9997 80.0007H136.568Z" fill="url(#paint0_linear_1006_520)"/>
<path d="M120 119.999C116.763 123.236 113.145 126.068 109.226 128.433L80 79.9993L120 119.999Z" fill="url(#paint1_linear_1006_520)"/>
<path d="M80.0003 136.569C75.4227 136.569 70.8621 136.013 66.4185 134.914L80.0003 80.0007L80.0003 136.569Z" fill="url(#paint2_linear_1006_520)"/>
<path d="M40.001 120C36.7642 116.763 33.9322 113.145 31.5672 109.226L80.0007 80L40.001 120Z" fill="url(#paint3_linear_1006_520)"/>
<path d="M23.4322 79.9993C23.4322 75.4218 23.9878 70.8611 25.0869 66.4175L80.0003 79.9993L23.4322 79.9993Z" fill="url(#paint4_linear_1006_520)"/>
<path d="M40.0003 40.001C43.2371 36.7642 46.8549 33.9322 50.7742 31.5672L80 80.0007L40.0003 40.001Z" fill="url(#paint5_linear_1006_520)"/>
<path d="M79.9997 23.4312C84.5773 23.4312 89.1379 23.9869 93.5815 25.0859L79.9997 79.9993L79.9997 23.4312Z" fill="url(#paint6_linear_1006_520)"/>
<path d="M119.999 40.0003C123.236 43.2371 126.068 46.8549 128.433 50.7742L79.9993 80L119.999 40.0003Z" fill="url(#paint7_linear_1006_520)"/>
<circle cx="80.0011" cy="80.0006" r="4.71401" fill="url(#paint8_linear_1006_520)"/>
<defs>
<linearGradient id="paint0_linear_1006_520" x1="136.568" y1="80.0001" x2="23.431" y2="80.0001" gradientUnits="userSpaceOnUse">
<stop offset="0.1974" stop-color="#BB8A4F"/>
<stop offset="0.4423" stop-color="#E9B471"/>
<stop offset="0.6898" stop-color="#E9B471"/>
<stop offset="1" stop-color="#E8C66C"/>
</linearGradient>
<linearGradient id="paint1_linear_1006_520" x1="120" y1="119.999" x2="40.0003" y2="39.9989" gradientUnits="userSpaceOnUse">
<stop offset="0.1974" stop-color="#BB8A4F"/>
<stop offset="0.4423" stop-color="#E9B471"/>
<stop offset="0.6898" stop-color="#E9B471"/>
<stop offset="1" stop-color="#E8C66C"/>
</linearGradient>
<linearGradient id="paint2_linear_1006_520" x1="80.0008" y1="136.569" x2="80.0008" y2="23.432" gradientUnits="userSpaceOnUse">
<stop offset="0.1974" stop-color="#BB8A4F"/>
<stop offset="0.4423" stop-color="#E9B471"/>
<stop offset="0.6898" stop-color="#E9B471"/>
<stop offset="1" stop-color="#E8C66C"/>
</linearGradient>
<linearGradient id="paint3_linear_1006_520" x1="40.001" y1="120" x2="120.001" y2="40.0003" gradientUnits="userSpaceOnUse">
<stop offset="0.1974" stop-color="#BB8A4F"/>
<stop offset="0.4423" stop-color="#E9B471"/>
<stop offset="0.6898" stop-color="#E9B471"/>
<stop offset="1" stop-color="#E8C66C"/>
</linearGradient>
<linearGradient id="paint4_linear_1006_520" x1="23.4316" y1="79.9999" x2="136.569" y2="79.9999" gradientUnits="userSpaceOnUse">
<stop offset="0.1974" stop-color="#BB8A4F"/>
<stop offset="0.4423" stop-color="#E9B471"/>
<stop offset="0.6898" stop-color="#E9B471"/>
<stop offset="1" stop-color="#E8C66C"/>
</linearGradient>
<linearGradient id="paint5_linear_1006_520" x1="39.9995" y1="40.001" x2="120" y2="120.001" gradientUnits="userSpaceOnUse">
<stop offset="0.1974" stop-color="#BB8A4F"/>
<stop offset="0.4423" stop-color="#E9B471"/>
<stop offset="0.6898" stop-color="#E9B471"/>
<stop offset="1" stop-color="#E8C66C"/>
</linearGradient>
<linearGradient id="paint6_linear_1006_520" x1="79.9992" y1="23.4306" x2="79.9992" y2="136.568" gradientUnits="userSpaceOnUse">
<stop offset="0.1974" stop-color="#BB8A4F"/>
<stop offset="0.4423" stop-color="#E9B471"/>
<stop offset="0.6898" stop-color="#E9B471"/>
<stop offset="1" stop-color="#E8C66C"/>
</linearGradient>
<linearGradient id="paint7_linear_1006_520" x1="119.999" y1="39.9995" x2="39.9989" y2="120" gradientUnits="userSpaceOnUse">
<stop offset="0.1974" stop-color="#BB8A4F"/>
<stop offset="0.4423" stop-color="#E9B471"/>
<stop offset="0.6898" stop-color="#E9B471"/>
<stop offset="1" stop-color="#E8C66C"/>
</linearGradient>
<linearGradient id="paint8_linear_1006_520" x1="84.7152" y1="80.0006" x2="75.2871" y2="80.0006" gradientUnits="userSpaceOnUse">
<stop offset="0.1974" stop-color="#BB8A4F"/>
<stop offset="0.4423" stop-color="#E9B471"/>
<stop offset="0.6898" stop-color="#E9B471"/>
<stop offset="1" stop-color="#E8C66C"/>
</linearGradient>
</defs>
</svg>
