<svg width="333" height="697" viewBox="0 0 333 697" fill="none" xmlns="http://www.w3.org/2000/svg">
<path d="M149.263 674.198C145.094 566.33 142.757 505.853 138.588 397.985L109.17 388.986L104.382 456.302L37.9825 618.009L9.00098 596.151L63.3474 474.497L74.3675 340.16L109.216 331.744L132.417 32.0685L184.443 8.99999L298.307 99.6899L306.367 132.7L264.91 190.481C264.251 232.829 264.307 319.636 269.804 328.08C275.301 336.524 307.947 385.429 323.581 408.828C304.868 436.825 267.713 497.387 268.803 515.665C270.165 538.512 272.461 614.882 261.193 642.861C213.037 705.112 166.508 689.69 149.263 674.198Z" stroke="#3D3D3D" stroke-width="18" stroke-linejoin="round"/>
<path d="M138.588 397.985L109.17 388.986L104.382 456.302L37.9825 618.009L9.00098 596.151L63.3474 474.497L74.3675 340.16L109.216 331.743L132.417 32.0683L184.443 8.99986L298.307 99.6897L306.367 132.7L264.91 190.481C264.251 232.829 264.307 319.636 269.804 328.08C275.301 336.524 307.947 385.429 323.581 408.828C304.868 436.824 267.713 497.386 268.803 515.664" stroke="#3D3D3D" stroke-width="18" stroke-linejoin="round"/>
<path d="M138.587 397.985L109.169 388.985L104.382 456.302L37.9816 618.008L9.00006 596.15L63.3475 474.496L74.3676 340.159L109.216 331.743L132.417 32.0677L184.443 9.00019L298.307 99.69L306.367 132.699" stroke="#3D3D3D" stroke-width="18" stroke-linejoin="round"/>
<path d="M146.877 608.849L138.587 397.713L109.169 388.712L104.382 456.029L37.9815 617.735L8.99996 595.878L63.3474 474.224L74.3675 339.887L109.216 331.47L132.417 31.7952" stroke="url(#paint0_linear_1057_555)" stroke-width="18" stroke-linejoin="round"/>
<path d="M147.139 618.264L147.538 628.695" stroke="white" stroke-width="18" stroke-linejoin="round"/>
<path d="M147.895 639.055L148.294 649.486" stroke="white" stroke-width="18" stroke-linejoin="round"/>
<path d="M147.517 628.66L147.916 639.091" stroke="black" stroke-width="18" stroke-linejoin="round"/>
<path d="M151.769 628.66L152.169 639.091" stroke="white" stroke-width="9" stroke-linejoin="round"/>
<path d="M151.391 618.264L151.791 628.695" stroke="black" stroke-width="9" stroke-linejoin="round"/>
<path d="M152.147 639.055L152.547 649.486" stroke="black" stroke-width="9" stroke-linejoin="round"/>
<path d="M133 46C140.732 46 147 39.732 147 32C147 24.268 140.732 18 133 18C125.268 18 119 24.268 119 32C119 39.732 125.268 46 133 46Z" fill="black" stroke="white" stroke-width="2"/>
<path d="M133 38C136.314 38 139 35.3137 139 32C139 28.6863 136.314 26 133 26C129.686 26 127 28.6863 127 32C127 35.3137 129.686 38 133 38Z" fill="white"/>
<defs>
<linearGradient id="paint0_linear_1057_555" x1="195.888" y1="596.155" x2="-23.6615" y2="100.997" gradientUnits="userSpaceOnUse">
<stop offset="0.1974" stop-color="#BB8A4F"/>
<stop offset="0.4423" stop-color="#E9B471"/>
<stop offset="0.6898" stop-color="#E9B471"/>
<stop offset="1" stop-color="#E8C66C"/>
</linearGradient>
</defs>
</svg>
