<svg width="703" height="703" viewBox="0 0 703 703" fill="none" xmlns="http://www.w3.org/2000/svg">
<path d="M133.237 109.366C212.459 182.692 256.875 223.803 336.097 297.129L363.263 282.691L319.048 231.706L251.656 70.4105L287.605 65.3732L335.199 189.824L422.397 292.607L403.706 323.2L599.203 551.508L578.727 604.608L434.085 620.994L405.044 603.352L393.502 533.18C364.023 502.769 302.602 441.427 292.744 439.344C282.886 437.26 225.221 425.762 197.62 420.273C191.056 387.243 174.505 318.147 160.81 305.993C143.691 290.801 88.0651 238.422 76.2492 210.67C66.2823 132.601 110.088 110.605 133.237 109.366Z" stroke="url(#paint0_linear_1057_642)" stroke-width="18" stroke-linejoin="round"/>
<path d="M336.097 297.129L363.263 282.691L319.049 231.706L251.656 70.4105L287.605 65.3733L335.199 189.825L422.397 292.607L403.706 323.2L599.203 551.508L578.727 604.608L434.086 620.995L405.044 603.352L393.502 533.181C364.023 502.769 302.602 441.427 292.744 439.344C282.887 437.26 225.221 425.762 197.621 420.273C191.056 387.243 174.505 318.147 160.81 305.993" stroke="url(#paint1_linear_1057_642)" stroke-width="18" stroke-linejoin="round"/>
<path d="M336.098 297.129L363.264 282.691L319.048 231.706L251.657 70.4106L287.606 65.3733L335.199 189.825L422.397 292.608L403.707 323.201L599.204 551.508L578.727 604.608L434.085 620.995L405.045 603.353" stroke="url(#paint2_linear_1057_642)" stroke-width="18" stroke-linejoin="round"/>
<path d="M181.133 153.887L336.291 297.321L363.457 282.884L319.241 231.899L251.85 70.603L287.798 65.5651L335.391 190.017L422.59 292.8L403.9 323.393L599.396 551.701" stroke="url(#paint3_linear_1057_642)" stroke-width="18" stroke-linejoin="round"/>
<path d="M174.29 147.414L166.632 140.322" stroke="white" stroke-width="18" stroke-linejoin="round"/>
<path d="M159.054 133.248L151.396 126.155" stroke="white" stroke-width="18" stroke-linejoin="round"/>
<path d="M166.672 140.331L159.014 133.238" stroke="black" stroke-width="18" stroke-linejoin="round"/>
<path d="M163.665 143.338L156.007 136.245" stroke="white" stroke-width="9" stroke-linejoin="round"/>
<path d="M171.283 150.422L163.625 143.329" stroke="black" stroke-width="9" stroke-linejoin="round"/>
<path d="M156.047 136.255L148.389 129.162" stroke="black" stroke-width="9" stroke-linejoin="round"/>
<path d="M588.94 542.069C583.472 547.536 583.472 556.401 588.94 561.868C594.407 567.335 603.271 567.335 608.739 561.868C614.206 556.401 614.206 547.536 608.739 542.069C603.271 536.602 594.407 536.602 588.94 542.069Z" fill="black" stroke="white" stroke-width="2"/>
<path d="M594.597 547.726C592.254 550.069 592.254 553.868 594.597 556.211C596.94 558.554 600.739 558.554 603.082 556.211C605.425 553.868 605.425 550.069 603.082 547.726C600.739 545.383 596.94 545.383 594.597 547.726Z" fill="white"/>
<path d="M396.994 591.822C391.527 597.29 391.527 606.154 396.994 611.621C402.462 617.089 411.326 617.089 416.793 611.621C422.261 606.154 422.261 597.29 416.793 591.822C411.326 586.355 402.462 586.355 396.994 591.822Z" fill="black" stroke="white" stroke-width="2"/>
<path d="M402.651 597.479C400.308 599.822 400.308 603.621 402.651 605.965C404.995 608.308 408.794 608.308 411.137 605.965C413.48 603.621 413.48 599.822 411.137 597.479C408.794 595.136 404.995 595.136 402.651 597.479Z" fill="white"/>
<path d="M150.921 296.252C145.454 301.719 145.454 310.583 150.921 316.051C156.389 321.518 165.253 321.518 170.72 316.051C176.188 310.583 176.188 301.719 170.72 296.252C165.253 290.784 156.389 290.784 150.921 296.252Z" fill="black" stroke="white" stroke-width="2"/>
<path d="M156.578 301.908C154.235 304.252 154.235 308.051 156.578 310.394C158.922 312.737 162.721 312.737 165.064 310.394C167.407 308.051 167.407 304.252 165.064 301.908C162.721 299.565 158.922 299.565 156.578 301.908Z" fill="white"/>
<defs>
<linearGradient id="paint0_linear_1057_642" x1="462.719" y1="240.485" x2="240.275" y2="462.929" gradientUnits="userSpaceOnUse">
<stop offset="0.1974" stop-color="#BB8A4F"/>
<stop offset="0.4423" stop-color="#E9B471"/>
<stop offset="0.6898" stop-color="#E9B471"/>
<stop offset="1" stop-color="#E8C66C"/>
</linearGradient>
<linearGradient id="paint1_linear_1057_642" x1="487.465" y1="265.231" x2="265.021" y2="487.675" gradientUnits="userSpaceOnUse">
<stop offset="0.1974" stop-color="#BB8A4F"/>
<stop offset="0.4423" stop-color="#E9B471"/>
<stop offset="0.6898" stop-color="#E9B471"/>
<stop offset="1" stop-color="#E8C66C"/>
</linearGradient>
<linearGradient id="paint2_linear_1057_642" x1="487.466" y1="265.231" x2="277.193" y2="475.504" gradientUnits="userSpaceOnUse">
<stop offset="0.1974" stop-color="#BB8A4F"/>
<stop offset="0.4423" stop-color="#E9B471"/>
<stop offset="0.6898" stop-color="#E9B471"/>
<stop offset="1" stop-color="#E8C66C"/>
</linearGradient>
<linearGradient id="paint3_linear_1057_642" x1="155.452" y1="197.519" x2="660.828" y2="392.404" gradientUnits="userSpaceOnUse">
<stop offset="0.1974" stop-color="#BB8A4F"/>
<stop offset="0.4423" stop-color="#E9B471"/>
<stop offset="0.6898" stop-color="#E9B471"/>
<stop offset="1" stop-color="#E8C66C"/>
</linearGradient>
</defs>
</svg>
