<svg width="612" height="746" viewBox="0 0 612 746" fill="none" xmlns="http://www.w3.org/2000/svg">
<path d="M128.372 646.888C178.696 551.387 206.91 497.844 257.234 402.343L236.257 379.84L198.452 435.744L60.0954 542.586L45.9256 509.166L153.818 430.984L230.53 320.155L264.918 330.29L434.848 82.3643L491.438 88.3996L544.703 223.871L535.178 256.489L470.385 285.8C448.639 322.145 405.284 397.35 405.823 407.411C406.362 417.472 410.181 476.149 412.022 504.23C381.817 519.119 319.359 552.99 311.164 569.364C300.92 589.831 264.723 657.118 240.975 675.714C168.145 705.547 135.561 668.927 128.372 646.888Z" stroke="#3D3D3D" stroke-width="18" stroke-linejoin="round"/>
<path d="M257.234 402.343L236.257 379.84L198.452 435.744L60.0954 542.586L45.9256 509.166L153.818 430.984L230.53 320.155L264.918 330.29L434.848 82.3643L491.438 88.3996L544.703 223.871L535.178 256.489L470.385 285.8C448.639 322.145 405.284 397.35 405.823 407.411C406.362 417.472 410.181 476.149 412.022 504.23C381.817 519.119 319.359 552.99 311.164 569.364" stroke="#3D3D3D" stroke-width="18" stroke-linejoin="round"/>
<path d="M257.233 402.343L236.256 379.839L198.453 435.744L60.0951 542.585L45.9253 509.165L153.819 430.983L230.531 320.154L264.918 330.29L434.848 82.3637L491.438 88.3998L544.703 223.872L535.178 256.489" stroke="url(#paint0_linear_1057_599)" stroke-width="18" stroke-linejoin="round"/>
<path d="M158.98 589.101L257.369 402.107L236.392 379.603L198.589 435.508L60.2312 542.349L46.0609 508.93L153.954 430.748L230.667 319.918L265.054 330.054L434.984 82.1277" stroke="url(#paint1_linear_1057_599)" stroke-width="18" stroke-linejoin="round"/>
<path d="M154.499 597.386L149.63 606.619" stroke="white" stroke-width="18" stroke-linejoin="round"/>
<path d="M144.759 615.769L139.89 625.002" stroke="white" stroke-width="18" stroke-linejoin="round"/>
<path d="M149.629 606.577L144.76 615.811" stroke="black" stroke-width="18" stroke-linejoin="round"/>
<path d="M153.312 608.704L148.443 617.937" stroke="white" stroke-width="9" stroke-linejoin="round"/>
<path d="M158.182 599.512L153.313 608.745" stroke="black" stroke-width="9" stroke-linejoin="round"/>
<path d="M148.442 617.896L143.573 627.129" stroke="black" stroke-width="9" stroke-linejoin="round"/>
<path d="M428.387 94.7211C435.083 98.5871 443.646 96.2929 447.512 89.5968C451.378 82.9007 449.083 74.3384 442.387 70.4724C435.691 66.6064 427.129 68.9007 423.263 75.5968C419.397 82.2929 421.691 90.8551 428.387 94.7211Z" fill="black" stroke="white" stroke-width="2"/>
<path d="M432.387 87.7927C435.257 89.4496 438.927 88.4663 440.584 85.5966C442.24 82.7268 441.257 79.0572 438.387 77.4004C435.518 75.7435 431.848 76.7268 430.191 79.5966C428.534 82.4663 429.518 86.1358 432.387 87.7927Z" fill="white"/>
<path d="M526.124 267.249C532.821 271.115 541.383 268.82 545.249 262.124C549.115 255.428 546.821 246.866 540.124 243C533.428 239.134 524.866 241.428 521 248.124C517.134 254.82 519.428 263.383 526.124 267.249Z" fill="black" stroke="white" stroke-width="2"/>
<path d="M530.125 260.32C532.994 261.977 536.664 260.994 538.321 258.124C539.978 255.254 538.994 251.585 536.125 249.928C533.255 248.271 529.585 249.254 527.928 252.124C526.272 254.994 527.255 258.663 530.125 260.32Z" fill="white"/>
<defs>
<linearGradient id="paint0_linear_1057_599" x1="187.245" y1="264.388" x2="444.776" y2="413.073" gradientUnits="userSpaceOnUse">
<stop offset="0.1974" stop-color="#BB8A4F"/>
<stop offset="0.4423" stop-color="#E9B471"/>
<stop offset="0.6898" stop-color="#E9B471"/>
<stop offset="1" stop-color="#E8C66C"/>
</linearGradient>
<linearGradient id="paint1_linear_1057_599" x1="207.772" y1="602.614" x2="265.216" y2="64.0189" gradientUnits="userSpaceOnUse">
<stop offset="0.1974" stop-color="#BB8A4F"/>
<stop offset="0.4423" stop-color="#E9B471"/>
<stop offset="0.6898" stop-color="#E9B471"/>
<stop offset="1" stop-color="#E8C66C"/>
</linearGradient>
</defs>
</svg>
