<svg width="697" height="333" viewBox="0 0 697 333" fill="none" xmlns="http://www.w3.org/2000/svg">
<path d="M22.802 149.682C130.67 145.513 191.147 143.175 299.015 139.006L308.014 109.588L240.698 104.801L78.9914 38.4012L100.849 9.41967L222.503 63.7661L356.84 74.7862L365.256 109.635L664.932 132.835L688 184.862L597.31 298.726L564.3 306.786L506.519 265.329C464.171 264.669 377.364 264.725 368.92 270.222C360.476 275.72 311.571 308.365 288.172 324C260.175 305.286 199.613 268.132 181.335 269.222C158.488 270.583 82.1176 272.88 54.1387 261.611C-8.11207 213.456 7.30976 166.927 22.802 149.682Z" stroke="#3D3D3D" stroke-width="18" stroke-linejoin="round"/>
<path d="M299.015 139.006L308.014 109.588L240.698 104.801L78.9913 38.4012L100.849 9.41967L222.503 63.7661L356.84 74.7862L365.256 109.635L664.932 132.835L688 184.862L597.31 298.726L564.3 306.786L506.519 265.329C464.171 264.669 377.364 264.725 368.92 270.222C360.476 275.72 311.571 308.365 288.172 324C260.175 305.286 199.613 268.132 181.335 269.222" stroke="url(#paint0_linear_1057_621)" stroke-width="18" stroke-linejoin="round"/>
<path d="M299.015 139.006L308.015 109.587L240.698 104.801L78.9923 38.4003L100.85 9.41876L222.504 63.7661L356.841 74.7862L365.257 109.635L664.932 132.835L688 184.862L597.31 298.726L564.301 306.786" stroke="url(#paint1_linear_1057_621)" stroke-width="18" stroke-linejoin="round"/>
<path d="M88.1507 147.295L299.287 139.005L308.288 109.587L240.97 104.801L79.2645 38.4002L101.121 9.41865L222.776 63.7661L357.113 74.7862L365.53 109.635L665.205 132.835" stroke="url(#paint2_linear_1057_621)" stroke-width="18" stroke-linejoin="round"/>
<path d="M78.7355 147.557L68.3048 147.957" stroke="white" stroke-width="18" stroke-linejoin="round"/>
<path d="M57.9446 148.313L47.5139 148.713" stroke="white" stroke-width="18" stroke-linejoin="round"/>
<path d="M68.3401 147.935L57.9094 148.335" stroke="black" stroke-width="18" stroke-linejoin="round"/>
<path d="M68.3401 152.188L57.9094 152.588" stroke="white" stroke-width="9" stroke-linejoin="round"/>
<path d="M78.7355 151.81L68.3048 152.21" stroke="black" stroke-width="9" stroke-linejoin="round"/>
<path d="M57.9446 152.566L47.5139 152.966" stroke="black" stroke-width="9" stroke-linejoin="round"/>
<path d="M651 133.419C651 141.151 657.268 147.419 665 147.419C672.732 147.419 679 141.151 679 133.419C679 125.687 672.732 119.419 665 119.419C657.268 119.419 651 125.687 651 133.419Z" fill="black" stroke="white" stroke-width="2"/>
<path d="M659 133.419C659 136.732 661.686 139.419 665 139.419C668.314 139.419 671 136.732 671 133.419C671 130.105 668.314 127.419 665 127.419C661.686 127.419 659 130.105 659 133.419Z" fill="white"/>
<path d="M550.455 304.325C550.455 312.057 556.723 318.325 564.455 318.325C572.187 318.325 578.455 312.057 578.455 304.325C578.455 296.593 572.187 290.325 564.455 290.325C556.723 290.325 550.455 296.593 550.455 304.325Z" fill="black" stroke="white" stroke-width="2"/>
<path d="M558.455 304.325C558.455 307.639 561.141 310.325 564.455 310.325C567.769 310.325 570.455 307.639 570.455 304.325C570.455 301.012 567.769 298.325 564.455 298.325C561.141 298.325 558.455 301.012 558.455 304.325Z" fill="white"/>
<path d="M167.455 269.325C167.455 277.057 173.723 283.325 181.455 283.325C189.187 283.325 195.455 277.057 195.455 269.325C195.455 261.593 189.187 255.325 181.455 255.325C173.723 255.325 167.455 261.593 167.455 269.325Z" fill="black" stroke="white" stroke-width="2"/>
<path d="M175.455 269.325C175.455 272.639 178.141 275.325 181.455 275.325C184.769 275.325 187.455 272.639 187.455 269.325C187.455 266.012 184.769 263.325 181.455 263.325C178.141 263.325 175.455 266.012 175.455 269.325Z" fill="white"/>
<defs>
<linearGradient id="paint0_linear_1057_621" x1="383.493" y1="9.41801" x2="383.493" y2="324.002" gradientUnits="userSpaceOnUse">
<stop offset="0.1974" stop-color="#BB8A4F"/>
<stop offset="0.4423" stop-color="#E9B471"/>
<stop offset="0.6898" stop-color="#E9B471"/>
<stop offset="1" stop-color="#E8C66C"/>
</linearGradient>
<linearGradient id="paint1_linear_1057_621" x1="383.493" y1="9.41719" x2="383.493" y2="306.788" gradientUnits="userSpaceOnUse">
<stop offset="0.1974" stop-color="#BB8A4F"/>
<stop offset="0.4423" stop-color="#E9B471"/>
<stop offset="0.6898" stop-color="#E9B471"/>
<stop offset="1" stop-color="#E8C66C"/>
</linearGradient>
<linearGradient id="paint2_linear_1057_621" x1="100.845" y1="196.307" x2="596.003" y2="-23.2429" gradientUnits="userSpaceOnUse">
<stop offset="0.1974" stop-color="#BB8A4F"/>
<stop offset="0.4423" stop-color="#E9B471"/>
<stop offset="0.6898" stop-color="#E9B471"/>
<stop offset="1" stop-color="#E8C66C"/>
</linearGradient>
</defs>
</svg>
