<svg width="110" height="407" viewBox="0 0 110 407" fill="none" xmlns="http://www.w3.org/2000/svg">
<g filter="url(#filter0_f_1169_1395)">
<circle cx="55" cy="28" r="8" transform="rotate(180 55 28)" fill="white"/>
</g>
<circle cx="55" cy="28" r="7.5" transform="rotate(180 55 28)" fill="white" stroke="black"/>
<g filter="url(#filter1_f_1169_1395)">
<path d="M61.822 369.007L61.822 374.84L89.209 374.84L89.209 387L20.9887 387L20.9887 368.414C20.9887 361.691 22.6036 356.946 25.8333 354.178C29.0631 351.344 34.2373 349.926 41.3559 349.926C45.904 349.926 49.694 350.553 52.726 351.805C55.758 353.057 58.032 355.1 59.548 357.934L89.209 347.751L89.209 360.406L61.822 369.007ZM50.9463 374.84L50.9463 368.513C50.9463 366.074 50.1554 364.393 48.5734 363.471C46.9256 362.548 44.5198 362.087 41.3559 362.087C38.1921 362.087 35.8192 362.548 34.2373 363.471C32.6554 364.327 31.8644 366.008 31.8644 368.513L31.8644 374.84L50.9463 374.84Z" fill="white"/>
<path d="M90 322.842C90 328.708 88.3522 333.354 85.0565 336.782C81.6949 340.209 76.8173 341.922 70.4237 341.922L39.6751 341.922C33.2156 341.922 28.338 340.11 25.0424 336.485C21.6808 332.86 20 328.082 20 322.15C20 316.416 21.6808 311.835 25.0424 308.408C28.338 304.915 33.2156 303.168 39.6751 303.168L70.4237 303.168C76.7514 303.168 81.596 305.014 84.9576 308.705C88.3192 312.33 90 317.042 90 322.842ZM79.0254 322.447C79.0254 320.14 78.1685 318.393 76.4548 317.207C74.6751 315.955 72.2034 315.328 69.0395 315.328L41.6525 315.328C38.1591 315.328 35.5226 315.922 33.7429 317.108C31.8974 318.294 30.9746 320.074 30.9746 322.447C30.9746 325.017 31.8644 326.895 33.6441 328.082C35.4237 329.202 38.0932 329.762 41.6525 329.762L69.0395 329.762C75.6968 329.762 79.0254 327.324 79.0254 322.447Z" fill="white"/>
<path d="M75.9604 267.501L75.9604 283.418L89.209 286.186L89.209 298.841L20.9887 281.342L20.9887 269.478L89.209 252.079L89.209 264.733L75.9604 267.501ZM65.0847 269.676L37.4011 275.41L65.0847 281.144L65.0847 269.676Z" fill="white"/>
<path d="M20.9887 247.298L20.9887 228.416C20.9887 222.682 22.6365 218.101 25.9322 214.674C29.2279 211.181 34.1055 209.434 40.565 209.434L69.6328 209.434C76.0264 209.434 80.9039 211.247 84.2655 214.872C87.5612 218.496 89.209 223.209 89.209 229.009L89.209 247.298L20.9887 247.298ZM78.3333 228.712C78.3333 226.405 77.4435 224.659 75.6638 223.473C73.8842 222.22 71.4124 221.594 68.2486 221.594L42.6412 221.594C39.1478 221.594 36.5113 222.187 34.7316 223.374C32.8861 224.56 31.9633 226.34 31.9633 228.712L31.9633 235.237L78.3333 235.237L78.3333 228.712Z" fill="white"/>
<path d="M20.9887 153.39L89.209 153.39L89.209 165.55L49.2655 165.55L75.9604 174.25L75.9604 180.775L49.5621 189.376L89.209 189.376L89.209 201.536L20.9887 201.536L20.9887 189.376L56.9774 177.512L20.9887 165.55L20.9887 153.39Z" fill="white"/>
<path d="M75.9604 117.276L75.9604 133.193L89.209 135.961L89.209 148.616L20.9887 131.117L20.9887 119.254L89.209 101.854L89.209 114.508L75.9604 117.276ZM65.0847 119.451L37.4011 125.185L65.0847 130.919L65.0847 119.451Z" fill="white"/>
<path d="M20.9887 78.685C20.9887 71.9624 22.7683 67.184 26.3277 64.3499C29.887 61.45 35.2589 60 42.4435 60C49.694 60 55.0989 61.4829 58.6582 64.4488C62.2175 67.3488 63.9972 72.0942 63.9972 78.685L63.9972 85.0122L89.209 85.0122L89.209 97.0735L20.9887 97.0735L20.9887 78.685ZM53.0226 79.0805C53.0226 76.5101 52.1657 74.7305 50.452 73.7419C48.7382 72.6874 46.0687 72.1601 42.4435 72.1601C38.8183 72.1601 36.1488 72.6874 34.435 73.7419C32.7213 74.7305 31.8644 76.5101 31.8644 79.0805L31.8644 85.0122L53.0226 85.0122L53.0226 79.0805Z" fill="white"/>
</g>
<mask id="path-4-outside-1_1169_1395" maskUnits="userSpaceOnUse" x="19" y="59" width="72" height="329" fill="black">
<rect fill="white" x="19" y="59" width="72" height="329"/>
<path d="M61.822 369.007L61.822 374.84L89.209 374.84L89.209 387L20.9887 387L20.9887 368.414C20.9887 361.691 22.6036 356.946 25.8333 354.178C29.0631 351.344 34.2373 349.926 41.3559 349.926C45.904 349.926 49.694 350.553 52.726 351.805C55.758 353.057 58.032 355.1 59.548 357.934L89.209 347.751L89.209 360.406L61.822 369.007ZM50.9463 374.84L50.9463 368.513C50.9463 366.074 50.1554 364.393 48.5734 363.471C46.9256 362.548 44.5198 362.087 41.3559 362.087C38.1921 362.087 35.8192 362.548 34.2373 363.471C32.6554 364.327 31.8644 366.008 31.8644 368.513L31.8644 374.84L50.9463 374.84Z"/>
<path d="M90 322.842C90 328.708 88.3522 333.354 85.0565 336.782C81.6949 340.209 76.8173 341.922 70.4237 341.922L39.6751 341.922C33.2156 341.922 28.338 340.11 25.0424 336.485C21.6808 332.86 20 328.082 20 322.15C20 316.416 21.6808 311.835 25.0424 308.408C28.338 304.915 33.2156 303.168 39.6751 303.168L70.4237 303.168C76.7514 303.168 81.596 305.014 84.9576 308.705C88.3192 312.33 90 317.042 90 322.842ZM79.0254 322.447C79.0254 320.14 78.1685 318.393 76.4548 317.207C74.6751 315.955 72.2034 315.328 69.0395 315.328L41.6525 315.328C38.1591 315.328 35.5226 315.922 33.7429 317.108C31.8974 318.294 30.9746 320.074 30.9746 322.447C30.9746 325.017 31.8644 326.895 33.6441 328.082C35.4237 329.202 38.0932 329.762 41.6525 329.762L69.0395 329.762C75.6968 329.762 79.0254 327.324 79.0254 322.447Z"/>
<path d="M75.9604 267.501L75.9604 283.418L89.209 286.186L89.209 298.841L20.9887 281.342L20.9887 269.478L89.209 252.079L89.209 264.733L75.9604 267.501ZM65.0847 269.676L37.4011 275.41L65.0847 281.144L65.0847 269.676Z"/>
<path d="M20.9887 247.298L20.9887 228.416C20.9887 222.682 22.6365 218.101 25.9322 214.674C29.2279 211.181 34.1055 209.434 40.565 209.434L69.6328 209.434C76.0264 209.434 80.9039 211.247 84.2655 214.872C87.5612 218.496 89.209 223.209 89.209 229.009L89.209 247.298L20.9887 247.298ZM78.3333 228.712C78.3333 226.405 77.4435 224.659 75.6638 223.473C73.8842 222.22 71.4124 221.594 68.2486 221.594L42.6412 221.594C39.1478 221.594 36.5113 222.187 34.7316 223.374C32.8861 224.56 31.9633 226.34 31.9633 228.712L31.9633 235.237L78.3333 235.237L78.3333 228.712Z"/>
<path d="M20.9887 153.39L89.209 153.39L89.209 165.55L49.2655 165.55L75.9604 174.25L75.9604 180.775L49.5621 189.376L89.209 189.376L89.209 201.536L20.9887 201.536L20.9887 189.376L56.9774 177.512L20.9887 165.55L20.9887 153.39Z"/>
<path d="M75.9604 117.276L75.9604 133.193L89.209 135.961L89.209 148.616L20.9887 131.117L20.9887 119.254L89.209 101.854L89.209 114.508L75.9604 117.276ZM65.0847 119.451L37.4011 125.185L65.0847 130.919L65.0847 119.451Z"/>
<path d="M20.9887 78.685C20.9887 71.9624 22.7683 67.184 26.3277 64.3499C29.887 61.45 35.2589 60 42.4435 60C49.694 60 55.0989 61.4829 58.6582 64.4488C62.2175 67.3488 63.9972 72.0942 63.9972 78.685L63.9972 85.0122L89.209 85.0122L89.209 97.0735L20.9887 97.0735L20.9887 78.685ZM53.0226 79.0805C53.0226 76.5101 52.1657 74.7305 50.452 73.7419C48.7382 72.6874 46.0687 72.1601 42.4435 72.1601C38.8183 72.1601 36.1488 72.6874 34.435 73.7419C32.7213 74.7305 31.8644 76.5101 31.8644 79.0805L31.8644 85.0122L53.0226 85.0122L53.0226 79.0805Z"/>
</mask>
<path d="M61.822 369.007L61.822 374.84L89.209 374.84L89.209 387L20.9887 387L20.9887 368.414C20.9887 361.691 22.6036 356.946 25.8333 354.178C29.0631 351.344 34.2373 349.926 41.3559 349.926C45.904 349.926 49.694 350.553 52.726 351.805C55.758 353.057 58.032 355.1 59.548 357.934L89.209 347.751L89.209 360.406L61.822 369.007ZM50.9463 374.84L50.9463 368.513C50.9463 366.074 50.1554 364.393 48.5734 363.471C46.9256 362.548 44.5198 362.087 41.3559 362.087C38.1921 362.087 35.8192 362.548 34.2373 363.471C32.6554 364.327 31.8644 366.008 31.8644 368.513L31.8644 374.84L50.9463 374.84Z" fill="white"/>
<path d="M90 322.842C90 328.708 88.3522 333.354 85.0565 336.782C81.6949 340.209 76.8173 341.922 70.4237 341.922L39.6751 341.922C33.2156 341.922 28.338 340.11 25.0424 336.485C21.6808 332.86 20 328.082 20 322.15C20 316.416 21.6808 311.835 25.0424 308.408C28.338 304.915 33.2156 303.168 39.6751 303.168L70.4237 303.168C76.7514 303.168 81.596 305.014 84.9576 308.705C88.3192 312.33 90 317.042 90 322.842ZM79.0254 322.447C79.0254 320.14 78.1685 318.393 76.4548 317.207C74.6751 315.955 72.2034 315.328 69.0395 315.328L41.6525 315.328C38.1591 315.328 35.5226 315.922 33.7429 317.108C31.8974 318.294 30.9746 320.074 30.9746 322.447C30.9746 325.017 31.8644 326.895 33.6441 328.082C35.4237 329.202 38.0932 329.762 41.6525 329.762L69.0395 329.762C75.6968 329.762 79.0254 327.324 79.0254 322.447Z" fill="white"/>
<path d="M75.9604 267.501L75.9604 283.418L89.209 286.186L89.209 298.841L20.9887 281.342L20.9887 269.478L89.209 252.079L89.209 264.733L75.9604 267.501ZM65.0847 269.676L37.4011 275.41L65.0847 281.144L65.0847 269.676Z" fill="white"/>
<path d="M20.9887 247.298L20.9887 228.416C20.9887 222.682 22.6365 218.101 25.9322 214.674C29.2279 211.181 34.1055 209.434 40.565 209.434L69.6328 209.434C76.0264 209.434 80.9039 211.247 84.2655 214.872C87.5612 218.496 89.209 223.209 89.209 229.009L89.209 247.298L20.9887 247.298ZM78.3333 228.712C78.3333 226.405 77.4435 224.659 75.6638 223.473C73.8842 222.22 71.4124 221.594 68.2486 221.594L42.6412 221.594C39.1478 221.594 36.5113 222.187 34.7316 223.374C32.8861 224.56 31.9633 226.34 31.9633 228.712L31.9633 235.237L78.3333 235.237L78.3333 228.712Z" fill="white"/>
<path d="M20.9887 153.39L89.209 153.39L89.209 165.55L49.2655 165.55L75.9604 174.25L75.9604 180.775L49.5621 189.376L89.209 189.376L89.209 201.536L20.9887 201.536L20.9887 189.376L56.9774 177.512L20.9887 165.55L20.9887 153.39Z" fill="white"/>
<path d="M75.9604 117.276L75.9604 133.193L89.209 135.961L89.209 148.616L20.9887 131.117L20.9887 119.254L89.209 101.854L89.209 114.508L75.9604 117.276ZM65.0847 119.451L37.4011 125.185L65.0847 130.919L65.0847 119.451Z" fill="white"/>
<path d="M20.9887 78.685C20.9887 71.9624 22.7683 67.184 26.3277 64.3499C29.887 61.45 35.2589 60 42.4435 60C49.694 60 55.0989 61.4829 58.6582 64.4488C62.2175 67.3488 63.9972 72.0942 63.9972 78.685L63.9972 85.0122L89.209 85.0122L89.209 97.0735L20.9887 97.0735L20.9887 78.685ZM53.0226 79.0805C53.0226 76.5101 52.1657 74.7305 50.452 73.7419C48.7382 72.6874 46.0687 72.1601 42.4435 72.1601C38.8183 72.1601 36.1488 72.6874 34.435 73.7419C32.7213 74.7305 31.8644 76.5101 31.8644 79.0805L31.8644 85.0122L53.0226 85.0122L53.0226 79.0805Z" fill="white"/>
<path d="M61.822 369.007L61.822 374.84L89.209 374.84L89.209 387L20.9887 387L20.9887 368.414C20.9887 361.691 22.6036 356.946 25.8333 354.178C29.0631 351.344 34.2373 349.926 41.3559 349.926C45.904 349.926 49.694 350.553 52.726 351.805C55.758 353.057 58.032 355.1 59.548 357.934L89.209 347.751L89.209 360.406L61.822 369.007ZM50.9463 374.84L50.9463 368.513C50.9463 366.074 50.1554 364.393 48.5734 363.471C46.9256 362.548 44.5198 362.087 41.3559 362.087C38.1921 362.087 35.8192 362.548 34.2373 363.471C32.6554 364.327 31.8644 366.008 31.8644 368.513L31.8644 374.84L50.9463 374.84Z" stroke="black" stroke-width="2" mask="url(#path-4-outside-1_1169_1395)"/>
<path d="M90 322.842C90 328.708 88.3522 333.354 85.0565 336.782C81.6949 340.209 76.8173 341.922 70.4237 341.922L39.6751 341.922C33.2156 341.922 28.338 340.11 25.0424 336.485C21.6808 332.86 20 328.082 20 322.15C20 316.416 21.6808 311.835 25.0424 308.408C28.338 304.915 33.2156 303.168 39.6751 303.168L70.4237 303.168C76.7514 303.168 81.596 305.014 84.9576 308.705C88.3192 312.33 90 317.042 90 322.842ZM79.0254 322.447C79.0254 320.14 78.1685 318.393 76.4548 317.207C74.6751 315.955 72.2034 315.328 69.0395 315.328L41.6525 315.328C38.1591 315.328 35.5226 315.922 33.7429 317.108C31.8974 318.294 30.9746 320.074 30.9746 322.447C30.9746 325.017 31.8644 326.895 33.6441 328.082C35.4237 329.202 38.0932 329.762 41.6525 329.762L69.0395 329.762C75.6968 329.762 79.0254 327.324 79.0254 322.447Z" stroke="black" stroke-width="2" mask="url(#path-4-outside-1_1169_1395)"/>
<path d="M75.9604 267.501L75.9604 283.418L89.209 286.186L89.209 298.841L20.9887 281.342L20.9887 269.478L89.209 252.079L89.209 264.733L75.9604 267.501ZM65.0847 269.676L37.4011 275.41L65.0847 281.144L65.0847 269.676Z" stroke="black" stroke-width="2" mask="url(#path-4-outside-1_1169_1395)"/>
<path d="M20.9887 247.298L20.9887 228.416C20.9887 222.682 22.6365 218.101 25.9322 214.674C29.2279 211.181 34.1055 209.434 40.565 209.434L69.6328 209.434C76.0264 209.434 80.9039 211.247 84.2655 214.872C87.5612 218.496 89.209 223.209 89.209 229.009L89.209 247.298L20.9887 247.298ZM78.3333 228.712C78.3333 226.405 77.4435 224.659 75.6638 223.473C73.8842 222.22 71.4124 221.594 68.2486 221.594L42.6412 221.594C39.1478 221.594 36.5113 222.187 34.7316 223.374C32.8861 224.56 31.9633 226.34 31.9633 228.712L31.9633 235.237L78.3333 235.237L78.3333 228.712Z" stroke="black" stroke-width="2" mask="url(#path-4-outside-1_1169_1395)"/>
<path d="M20.9887 153.39L89.209 153.39L89.209 165.55L49.2655 165.55L75.9604 174.25L75.9604 180.775L49.5621 189.376L89.209 189.376L89.209 201.536L20.9887 201.536L20.9887 189.376L56.9774 177.512L20.9887 165.55L20.9887 153.39Z" stroke="black" stroke-width="2" mask="url(#path-4-outside-1_1169_1395)"/>
<path d="M75.9604 117.276L75.9604 133.193L89.209 135.961L89.209 148.616L20.9887 131.117L20.9887 119.254L89.209 101.854L89.209 114.508L75.9604 117.276ZM65.0847 119.451L37.4011 125.185L65.0847 130.919L65.0847 119.451Z" stroke="black" stroke-width="2" mask="url(#path-4-outside-1_1169_1395)"/>
<path d="M20.9887 78.685C20.9887 71.9624 22.7683 67.184 26.3277 64.3499C29.887 61.45 35.2589 60 42.4435 60C49.694 60 55.0989 61.4829 58.6582 64.4488C62.2175 67.3488 63.9972 72.0942 63.9972 78.685L63.9972 85.0122L89.209 85.0122L89.209 97.0735L20.9887 97.0735L20.9887 78.685ZM53.0226 79.0805C53.0226 76.5101 52.1657 74.7305 50.452 73.7419C48.7382 72.6874 46.0687 72.1601 42.4435 72.1601C38.8183 72.1601 36.1488 72.6874 34.435 73.7419C32.7213 74.7305 31.8644 76.5101 31.8644 79.0805L31.8644 85.0122L53.0226 85.0122L53.0226 79.0805Z" stroke="black" stroke-width="2" mask="url(#path-4-outside-1_1169_1395)"/>
<defs>
<filter id="filter0_f_1169_1395" x="27" y="0" width="56" height="56" filterUnits="userSpaceOnUse" color-interpolation-filters="sRGB">
<feFlood flood-opacity="0" result="BackgroundImageFix"/>
<feBlend mode="normal" in="SourceGraphic" in2="BackgroundImageFix" result="shape"/>
<feGaussianBlur stdDeviation="10" result="effect1_foregroundBlur_1169_1395"/>
</filter>
<filter id="filter1_f_1169_1395" x="0" y="40" width="110" height="367" filterUnits="userSpaceOnUse" color-interpolation-filters="sRGB">
<feFlood flood-opacity="0" result="BackgroundImageFix"/>
<feBlend mode="normal" in="SourceGraphic" in2="BackgroundImageFix" result="shape"/>
<feGaussianBlur stdDeviation="10" result="effect1_foregroundBlur_1169_1395"/>
</filter>
</defs>
</svg>
